<?xml version="1.0" encoding="UTF-8"?>
<svg width="44.021px" height="56.28px" viewBox="0 0 44.021 56.28" version="1.1" xmlns="http://www.w3.org/2000/svg" xmlns:xlink="http://www.w3.org/1999/xlink">
    <title>icon-SCHOLARLY ARTICLES</title>
    <g id="icon-SCHOLARLY-ARTICLES" stroke="none" stroke-width="1" fill="none" fill-rule="evenodd">
        <path d="M43.498,48.612 L38.207,43.027 C40.532,38.649 40.082,33.059 36.857,29.15 L36.857,11.604 C36.857,10.122 35.715,8.917 34.311,8.917 L28.16,8.917 L28.16,8.064 C28.16,5.782 26.402,3.926 24.24,3.926 L23.294,3.926 L23.294,2.946 C23.294,1.322 22.042,-5.68434189e-14 20.503,-5.68434189e-14 L16.354,-5.68434189e-14 C14.815,-5.68434189e-14 13.563,1.322 13.563,2.946 L13.563,3.926 L12.617,3.926 C10.455,3.926 8.697,5.782 8.697,8.064 L8.697,8.917 L2.546,8.917 C1.142,8.917 0,10.122 0,11.604 L0,53.592 C0,55.074 1.142,56.28 2.546,56.28 L29.488,56.28 C29.918,56.28 30.267,55.911 30.267,55.457 C30.267,55.003 29.918,54.634 29.488,54.634 L2.546,54.634 C2.001,54.634 1.558,54.167 1.558,53.592 L1.558,11.604 C1.558,11.03 2.001,10.562 2.546,10.562 L8.697,10.562 L8.697,10.831 C8.697,11.605 9.293,12.235 10.027,12.235 L12.576,12.235 C13.006,12.235 13.355,11.867 13.355,11.413 C13.355,10.958 13.006,10.59 12.576,10.59 L10.255,10.59 L10.255,8.064 C10.255,6.689 11.315,5.571 12.617,5.571 L24.24,5.571 C25.542,5.571 26.601,6.689 26.601,8.064 L26.601,10.59 L16.358,10.59 C15.927,10.59 15.578,10.958 15.578,11.413 C15.578,11.867 15.927,12.235 16.358,12.235 L26.83,12.235 C27.563,12.235 28.16,11.605 28.16,10.831 L28.16,10.562 L34.311,10.562 C34.855,10.562 35.298,11.029 35.298,11.604 L35.298,27.583 C31.62,24.52 26.488,24.098 22.377,26.655 C22.006,26.886 21.882,27.39 22.101,27.782 C22.319,28.173 22.797,28.304 23.168,28.073 C27.06,25.652 32.012,26.32 35.21,29.696 C39.077,33.778 39.077,40.42 35.21,44.502 C33.337,46.48 30.847,47.569 28.198,47.569 C25.549,47.569 23.058,46.48 21.185,44.502 C17.553,40.668 17.315,34.437 20.643,30.316 C20.922,29.97 20.883,29.451 20.555,29.156 C20.228,28.861 19.736,28.903 19.457,29.248 C17.59,31.56 16.622,34.51 16.73,37.555 C16.838,40.617 18.029,43.498 20.083,45.666 C22.25,47.954 25.132,49.214 28.198,49.214 C30.198,49.214 32.119,48.678 33.815,47.669 L35.298,49.235 L35.298,53.592 C35.298,54.166 34.856,54.634 34.311,54.634 L33.25,54.634 C32.82,54.634 32.471,55.002 32.471,55.457 C32.471,55.911 32.82,56.279 33.25,56.279 L34.311,56.279 C35.715,56.279 36.857,55.074 36.857,53.592 L36.857,50.88 L39.103,53.251 C39.451,53.618 39.908,53.802 40.365,53.802 C40.821,53.802 41.278,53.618 41.626,53.251 L43.498,51.275 C43.835,50.919 44.021,50.446 44.021,49.943 C44.021,49.441 43.835,48.968 43.498,48.612 Z M15.122,2.946 C15.122,2.229 15.675,1.646 16.354,1.646 L20.503,1.646 C21.182,1.646 21.735,2.229 21.735,2.946 L21.735,3.926 L15.122,3.926 L15.122,2.946 Z M42.396,50.112 L40.524,52.088 C40.436,52.181 40.293,52.181 40.205,52.088 L35.144,46.745 C35.552,46.416 35.943,46.056 36.313,45.666 C36.684,45.274 37.024,44.861 37.334,44.432 L42.396,49.776 C42.484,49.868 42.484,50.019 42.396,50.112 L42.396,50.112 Z" id="Fill-288" fill="#AE542D"></path>
        <path d="M24.9308,18.9682 L31.5368,18.9682 C31.9668,18.9682 32.3158,18.6002 32.3158,18.1452 C32.3158,17.6912 31.9668,17.3222 31.5368,17.3222 L24.9308,17.3222 C24.5008,17.3222 24.1518,17.6912 24.1518,18.1452 C24.1518,18.6002 24.5008,18.9682 24.9308,18.9682" id="Fill-290" fill="#AE542D"></path>
        <path d="M5.6719,18.9682 L20.0909,18.9682 C20.5219,18.9682 20.8699,18.6002 20.8699,18.1452 C20.8699,17.6912 20.5219,17.3222 20.0909,17.3222 L5.6719,17.3222 C5.2419,17.3222 4.8929,17.6912 4.8929,18.1452 C4.8929,18.6002 5.2419,18.9682 5.6719,18.9682" id="Fill-292" fill="#AE542D"></path>
        <path d="M5.6719,22.3556 L20.0909,22.3556 C20.5219,22.3556 20.8699,21.9876 20.8699,21.5326 C20.8699,21.0786 20.5219,20.7096 20.0909,20.7096 L5.6719,20.7096 C5.2419,20.7096 4.8929,21.0786 4.8929,21.5326 C4.8929,21.9876 5.2419,22.3556 5.6719,22.3556" id="Fill-294" fill="#AE542D"></path>
        <path d="M14.7932,25.0821 C14.7932,24.6281 14.4442,24.2591 14.0142,24.2591 L5.6722,24.2591 C5.2412,24.2591 4.8922,24.6281 4.8922,25.0821 C4.8922,25.5361 5.2412,25.9051 5.6722,25.9051 L14.0142,25.9051 C14.4442,25.9051 14.7932,25.5361 14.7932,25.0821" id="Fill-296" fill="#AE542D"></path>
        <path d="M24.9308,22.3556 L31.5368,22.3556 C31.9668,22.3556 32.3158,21.9876 32.3158,21.5326 C32.3158,21.0786 31.9668,20.7096 31.5368,20.7096 L24.9308,20.7096 C24.5008,20.7096 24.1518,21.0786 24.1518,21.5326 C24.1518,21.9876 24.5008,22.3556 24.9308,22.3556" id="Fill-298" fill="#AE542D"></path>
        <path d="M8.3995,33.0979 C6.3095,33.0979 4.6085,34.8929 4.6085,37.0999 C4.6085,39.3059 6.3095,41.1009 8.3995,41.1009 C10.4895,41.1009 12.1905,39.3059 12.1905,37.0999 C12.1905,34.8929 10.4895,33.0979 8.3995,33.0979 M8.3995,39.4559 C7.1685,39.4559 6.1675,38.3989 6.1675,37.0999 C6.1675,35.8009 7.1685,34.7439 8.3995,34.7439 C9.6305,34.7439 10.6315,35.8009 10.6315,37.0999 C10.6315,38.3989 9.6305,39.4559 8.3995,39.4559" id="Fill-300" fill="#AE542D"></path>
        <path d="M8.3995,44.1913 C6.3095,44.1913 4.6085,45.9863 4.6085,48.1933 C4.6085,50.3993 6.3095,52.1943 8.3995,52.1943 C10.4895,52.1943 12.1905,50.3993 12.1905,48.1933 C12.1905,45.9863 10.4895,44.1913 8.3995,44.1913 M8.3995,50.5493 C7.1685,50.5493 6.1675,49.4923 6.1675,48.1933 C6.1675,46.8943 7.1685,45.8373 8.3995,45.8373 C9.6305,45.8373 10.6315,46.8943 10.6315,48.1933 C10.6315,49.4923 9.6305,50.5493 8.3995,50.5493" id="Fill-302" fill="#AE542D"></path>
        <path d="M14.8311,49.0157 L18.4281,49.0157 C18.8591,49.0157 19.2081,48.6477 19.2081,48.1927 C19.2081,47.7387 18.8591,47.3697 18.4281,47.3697 L14.8311,47.3697 C14.4011,47.3697 14.0521,47.7387 14.0521,48.1927 C14.0521,48.6477 14.4011,49.0157 14.8311,49.0157" id="Fill-304" fill="#AE542D"></path>
    </g>
</svg>