<?xml version="1.0" encoding="UTF-8"?>
<svg width="50.3612px" height="55.279px" viewBox="0 0 50.3612 55.279" version="1.1" xmlns="http://www.w3.org/2000/svg" xmlns:xlink="http://www.w3.org/1999/xlink">
    <title>icon-OP-ED &amp; ANALYSIS PIECES</title>
    <g id="icon-OP-ED-&amp;-ANALYSIS-PIECES" stroke="none" stroke-width="1" fill="none" fill-rule="evenodd">
        <path d="M46.5842,55.279 L3.7772,55.279 C1.6952,55.279 0.0002,53.419 0.0002,51.133 L0.0002,4.146 C0.0002,1.86 1.6952,0 3.7772,0 L46.5842,0 C48.6662,0 50.3612,1.86 50.3612,4.146 L50.3612,51.133 C50.3612,53.419 48.6662,55.279 46.5842,55.279 L46.5842,55.279 Z M3.7772,1.842 C2.6202,1.842 1.6792,2.876 1.6792,4.146 L1.6792,51.133 C1.6792,52.403 2.6202,53.436 3.7772,53.436 L46.5842,53.436 C47.7412,53.436 48.6822,52.403 48.6822,51.133 L48.6822,4.146 C48.6822,2.876 47.7412,1.842 46.5842,1.842 L3.7772,1.842 Z" id="Fill-237" fill="#AE542D"></path>
        <path d="M7.5543,9.2129 L4.1973,9.2129 C3.7333,9.2129 3.3573,8.7999 3.3573,8.2919 L3.3573,4.6059 C3.3573,4.0979 3.7333,3.6849 4.1973,3.6849 L7.5543,3.6849 C8.0173,3.6849 8.3933,4.0979 8.3933,4.6059 L8.3933,8.2919 C8.3933,8.7999 8.0173,9.2129 7.5543,9.2129 L7.5543,9.2129 Z M5.0363,7.3699 L6.7153,7.3699 L6.7153,5.5269 L5.0363,5.5269 L5.0363,7.3699 Z" id="Fill-239" fill="#AE542D"></path>
        <path d="M14.2692,9.2129 L10.9122,9.2129 C10.4482,9.2129 10.0722,8.7999 10.0722,8.2919 L10.0722,4.6059 C10.0722,4.0979 10.4482,3.6849 10.9122,3.6849 L14.2692,3.6849 C14.7322,3.6849 15.1082,4.0979 15.1082,4.6059 L15.1082,8.2919 C15.1082,8.7999 14.7322,9.2129 14.2692,9.2129 L14.2692,9.2129 Z M11.7512,7.3699 L13.4302,7.3699 L13.4302,5.5269 L11.7512,5.5269 L11.7512,7.3699 Z" id="Fill-241" fill="#AE542D"></path>
        <path d="M20.984,9.2129 L17.627,9.2129 C17.163,9.2129 16.787,8.7999 16.787,8.2919 L16.787,4.6059 C16.787,4.0979 17.163,3.6849 17.627,3.6849 L20.984,3.6849 C21.447,3.6849 21.823,4.0979 21.823,4.6059 L21.823,8.2919 C21.823,8.7999 21.447,9.2129 20.984,9.2129 L20.984,9.2129 Z M18.466,7.3699 L20.145,7.3699 L20.145,5.5269 L18.466,5.5269 L18.466,7.3699 Z" id="Fill-243" fill="#AE542D"></path>
        <path d="M49.522,12.8982 L0.84,12.8982 C0.376,12.8982 0,12.4852 0,11.9772 L0,4.1452 C0,1.8602 1.695,0.0002 3.777,0.0002 L46.584,0.0002 C48.667,0.0002 50.361,1.8602 50.361,4.1452 L50.361,11.9772 C50.361,12.4852 49.985,12.8982 49.522,12.8982 L49.522,12.8982 Z M1.679,11.0552 L48.683,11.0552 L48.683,4.1452 C48.683,2.8762 47.741,1.8422 46.584,1.8422 L3.777,1.8422 C2.621,1.8422 1.679,2.8762 1.679,4.1452 L1.679,11.0552 Z" id="Fill-245" fill="#AE542D"></path>
        <path d="M22.6627,35.0099 L4.1967,35.0099 C3.7337,35.0099 3.3577,34.5969 3.3577,34.0889 L3.3577,15.6619 C3.3577,15.1539 3.7337,14.7409 4.1967,14.7409 L22.6627,14.7409 C23.1257,14.7409 23.5017,15.1539 23.5017,15.6619 L23.5017,34.0889 C23.5017,34.5969 23.1257,35.0099 22.6627,35.0099 L22.6627,35.0099 Z M5.0367,33.1669 L21.8237,33.1669 L21.8237,16.5829 L5.0367,16.5829 L5.0367,33.1669 Z" id="Fill-247" fill="#AE542D"></path>
        <path d="M13.4298,35.0099 C13.2148,35.0099 12.9998,34.9199 12.8368,34.7399 L8.3938,29.8629 L4.7908,33.8189 C4.4618,34.1789 3.9318,34.1789 3.6038,33.8189 C3.2758,33.4579 3.2758,32.8759 3.6038,32.5159 L7.7998,27.9089 C8.1288,27.5489 8.6588,27.5489 8.9868,27.9089 L14.0228,33.4369 C14.3518,33.7979 14.3518,34.3799 14.0228,34.7399 C13.8598,34.9199 13.6448,35.0099 13.4298,35.0099" id="Fill-249" fill="#AE542D"></path>
        <path d="M10.0724,25.7967 C8.2204,25.7967 6.7154,24.1437 6.7154,22.1117 C6.7154,20.0787 8.2204,18.4257 10.0724,18.4257 C11.9244,18.4257 13.4294,20.0787 13.4294,22.1117 C13.4294,24.1437 11.9244,25.7967 10.0724,25.7967 M10.0724,20.2687 C9.1464,20.2687 8.3934,21.0957 8.3934,22.1117 C8.3934,23.1277 9.1464,23.9537 10.0724,23.9537 C10.9984,23.9537 11.7514,23.1277 11.7514,22.1117 C11.7514,21.0957 10.9984,20.2687 10.0724,20.2687" id="Fill-251" fill="#AE542D"></path>
        <path d="M22.6627,33.1673 C22.4477,33.1673 22.2327,33.0773 22.0697,32.8973 L16.8137,27.1283 L12.1917,32.6583 C11.8787,33.0333 11.3487,33.0583 11.0057,32.7143 C10.6637,32.3703 10.6407,31.7873 10.9547,31.4123 L16.1677,25.1743 C16.3227,24.9883 16.5397,24.8813 16.7677,24.8753 C16.9997,24.8643 17.2177,24.9673 17.3797,25.1453 L23.2557,31.5943 C23.5837,31.9553 23.5837,32.5373 23.2557,32.8973 C23.0927,33.0773 22.8777,33.1673 22.6627,33.1673" id="Fill-253" fill="#AE542D"></path>
        <path d="M46.1645,51.5937 L27.6985,51.5937 C27.2355,51.5937 26.8595,51.1807 26.8595,50.6727 L26.8595,32.2457 C26.8595,31.7377 27.2355,31.3247 27.6985,31.3247 L46.1645,31.3247 C46.6275,31.3247 47.0035,31.7377 47.0035,32.2457 L47.0035,50.6727 C47.0035,51.1807 46.6275,51.5937 46.1645,51.5937 L46.1645,51.5937 Z M28.5385,49.7507 L45.3255,49.7507 L45.3255,33.1667 L28.5385,33.1667 L28.5385,49.7507 Z" id="Fill-255" fill="#AE542D"></path>
        <path d="M36.9317,51.5937 C36.7167,51.5937 36.5017,51.5037 36.3387,51.3237 L31.8957,46.4477 L28.2927,50.4027 C27.9637,50.7627 27.4337,50.7627 27.1057,50.4027 C26.7777,50.0427 26.7777,49.4597 27.1057,49.0997 L31.3017,44.4927 C31.6307,44.1327 32.1607,44.1327 32.4887,44.4927 L37.5247,50.0207 C37.8537,50.3817 37.8537,50.9637 37.5247,51.3237 C37.3617,51.5037 37.1467,51.5937 36.9317,51.5937" id="Fill-257" fill="#AE542D"></path>
        <path d="M33.5743,42.3805 C31.7223,42.3805 30.2173,40.7275 30.2173,38.6955 C30.2173,36.6625 31.7223,35.0095 33.5743,35.0095 C35.4263,35.0095 36.9313,36.6625 36.9313,38.6955 C36.9313,40.7275 35.4263,42.3805 33.5743,42.3805 M33.5743,36.8525 C32.6483,36.8525 31.8953,37.6785 31.8953,38.6955 C31.8953,39.7115 32.6483,40.5375 33.5743,40.5375 C34.5003,40.5375 35.2533,39.7115 35.2533,38.6955 C35.2533,37.6785 34.5003,36.8525 33.5743,36.8525" id="Fill-259" fill="#AE542D"></path>
        <path d="M46.1645,49.751 C45.9495,49.751 45.7345,49.661 45.5715,49.481 L40.3155,43.712 L35.6935,49.242 C35.3805,49.617 34.8505,49.642 34.5075,49.298 C34.1655,48.954 34.1425,48.371 34.4565,47.996 L39.6695,41.758 C39.8245,41.572 40.0415,41.465 40.2695,41.459 C40.4935,41.449 40.7195,41.551 40.8815,41.729 L46.7575,48.178 C47.0855,48.539 47.0855,49.121 46.7575,49.481 C46.5945,49.661 46.3795,49.751 46.1645,49.751" id="Fill-261" fill="#AE542D"></path>
        <path d="M41.1284,20.2687 L27.6984,20.2687 C27.2354,20.2687 26.8594,19.8557 26.8594,19.3477 C26.8594,18.8387 27.2354,18.4257 27.6984,18.4257 L41.1284,18.4257 C41.5914,18.4257 41.9674,18.8387 41.9674,19.3477 C41.9674,19.8557 41.5914,20.2687 41.1284,20.2687" id="Fill-263" fill="#AE542D"></path>
        <path d="M46.1645,20.2687 L44.4855,20.2687 C44.0225,20.2687 43.6465,19.8557 43.6465,19.3477 C43.6465,18.8387 44.0225,18.4257 44.4855,18.4257 L46.1645,18.4257 C46.6275,18.4257 47.0035,18.8387 47.0035,19.3477 C47.0035,19.8557 46.6275,20.2687 46.1645,20.2687" id="Fill-265" fill="#AE542D"></path>
        <path d="M41.1284,27.6393 L27.6984,27.6393 C27.2354,27.6393 26.8594,27.2263 26.8594,26.7183 C26.8594,26.2093 27.2354,25.7963 27.6984,25.7963 L41.1284,25.7963 C41.5914,25.7963 41.9674,26.2093 41.9674,26.7183 C41.9674,27.2263 41.5914,27.6393 41.1284,27.6393" id="Fill-267" fill="#AE542D"></path>
        <path d="M46.1645,27.6393 L44.4855,27.6393 C44.0225,27.6393 43.6465,27.2263 43.6465,26.7183 C43.6465,26.2093 44.0225,25.7963 44.4855,25.7963 L46.1645,25.7963 C46.6275,25.7963 47.0035,26.2093 47.0035,26.7183 C47.0035,27.2263 46.6275,27.6393 46.1645,27.6393" id="Fill-269" fill="#AE542D"></path>
        <path d="M46.1645,23.9541 L32.7345,23.9541 C32.2715,23.9541 31.8955,23.5411 31.8955,23.0331 C31.8955,22.5241 32.2715,22.1111 32.7345,22.1111 L46.1645,22.1111 C46.6275,22.1111 47.0035,22.5241 47.0035,23.0331 C47.0035,23.5411 46.6275,23.9541 46.1645,23.9541" id="Fill-271" fill="#AE542D"></path>
        <path d="M29.3775,23.9541 L27.6985,23.9541 C27.2355,23.9541 26.8595,23.5411 26.8595,23.0331 C26.8595,22.5241 27.2355,22.1111 27.6985,22.1111 L29.3775,22.1111 C29.8405,22.1111 30.2165,22.5241 30.2165,23.0331 C30.2165,23.5411 29.8405,23.9541 29.3775,23.9541" id="Fill-273" fill="#AE542D"></path>
        <path d="M17.6266,40.5379 L4.1966,40.5379 C3.7336,40.5379 3.3576,40.1249 3.3576,39.6169 C3.3576,39.1079 3.7336,38.6949 4.1966,38.6949 L17.6266,38.6949 C18.0896,38.6949 18.4656,39.1079 18.4656,39.6169 C18.4656,40.1249 18.0896,40.5379 17.6266,40.5379" id="Fill-275" fill="#AE542D"></path>
        <path d="M22.6627,40.5379 L20.9837,40.5379 C20.5207,40.5379 20.1447,40.1249 20.1447,39.6169 C20.1447,39.1079 20.5207,38.6949 20.9837,38.6949 L22.6627,38.6949 C23.1257,38.6949 23.5017,39.1079 23.5017,39.6169 C23.5017,40.1249 23.1257,40.5379 22.6627,40.5379" id="Fill-277" fill="#AE542D"></path>
        <path d="M17.6266,47.9085 L4.1966,47.9085 C3.7336,47.9085 3.3576,47.4955 3.3576,46.9875 C3.3576,46.4785 3.7336,46.0655 4.1966,46.0655 L17.6266,46.0655 C18.0896,46.0655 18.4656,46.4785 18.4656,46.9875 C18.4656,47.4955 18.0896,47.9085 17.6266,47.9085" id="Fill-279" fill="#AE542D"></path>
        <path d="M22.6627,47.9085 L20.9837,47.9085 C20.5207,47.9085 20.1447,47.4955 20.1447,46.9875 C20.1447,46.4785 20.5207,46.0655 20.9837,46.0655 L22.6627,46.0655 C23.1257,46.0655 23.5017,46.4785 23.5017,46.9875 C23.5017,47.4955 23.1257,47.9085 22.6627,47.9085" id="Fill-281" fill="#AE542D"></path>
        <path d="M22.6627,44.2232 L9.2327,44.2232 C8.7697,44.2232 8.3937,43.8102 8.3937,43.3022 C8.3937,42.7932 8.7697,42.3802 9.2327,42.3802 L22.6627,42.3802 C23.1257,42.3802 23.5017,42.7932 23.5017,43.3022 C23.5017,43.8102 23.1257,44.2232 22.6627,44.2232" id="Fill-283" fill="#AE542D"></path>
        <path d="M5.8756,44.2232 L4.1966,44.2232 C3.7336,44.2232 3.3576,43.8102 3.3576,43.3022 C3.3576,42.7932 3.7336,42.3802 4.1966,42.3802 L5.8756,42.3802 C6.3386,42.3802 6.7146,42.7932 6.7146,43.3022 C6.7146,43.8102 6.3386,44.2232 5.8756,44.2232" id="Fill-285" fill="#AE542D"></path>
    </g>
</svg>