<?xml version="1.0" encoding="UTF-8"?>
<svg width="54.6371px" height="45.0419813px" viewBox="0 0 54.6371 45.0419813" version="1.1" xmlns="http://www.w3.org/2000/svg" xmlns:xlink="http://www.w3.org/1999/xlink">
    <title>icon-EVENTS &amp; WORKSHOPS</title>
    <g id="icon-EVENTS-&amp;-WORKSHOPS" stroke="none" stroke-width="1" fill="none" fill-rule="evenodd">
        <g id="Group-334" fill="#AE542D">
            <path d="M53.834,28.3849813 C53.39,28.3849813 53.031,28.7289813 53.031,29.1529813 L53.031,32.6739813 L44.76,32.6739813 C43.109,32.6739813 41.765,33.9589813 41.765,35.5369813 L41.765,43.5059813 L4.089,43.5059813 C2.72,43.5059813 1.606,42.4409813 1.606,41.1319813 L1.606,17.9719813 C1.606,17.5479813 1.246,17.2039813 0.803,17.2039813 C0.359,17.2039813 0,17.5479813 0,17.9719813 L0,41.1319813 C0,43.2879813 1.834,45.0419813 4.089,45.0419813 L50.548,45.0419813 C52.803,45.0419813 54.637,43.2879813 54.637,41.1319813 L54.637,29.1529813 C54.637,28.7289813 54.278,28.3849813 53.834,28.3849813 L53.834,28.3849813 Z M43.371,35.5369813 C43.371,34.8049813 43.994,34.2089813 44.76,34.2089813 L51.895,34.2089813 L43.372,42.3589813 L43.372,35.5369813 L43.371,35.5369813 Z M50.548,43.5059813 L44.443,43.5059813 L53.031,35.2949813 L53.031,41.1319813 C53.031,42.4409813 51.917,43.5059813 50.548,43.5059813 L50.548,43.5059813 Z" id="Fill-308"></path>
            <path d="M50.9951,2.90748131 L50.9951,2.35048131 C50.9951,1.08948131 49.9851,0.0584813062 48.6961,0.00248130622 C48.0311,-0.0265186938 47.4011,0.199481306 46.9211,0.638481306 C46.4481,1.07148131 46.1771,1.67748131 46.1771,2.30348131 L46.1771,2.88348131 L43.9061,2.88348131 L43.9061,2.34748131 C43.9061,1.14348131 42.9851,0.140481306 41.7631,0.0144813062 C41.0801,-0.0565186938 40.3961,0.152481306 39.8881,0.589481306 C39.3791,1.02548131 39.0871,1.65048131 39.0871,2.30348131 L39.0871,2.88348131 L36.8171,2.88348131 L36.8171,2.34748131 C36.8171,1.14348131 35.8951,0.140481306 34.6731,0.0144813062 C33.9911,-0.0565186938 33.3071,0.152481306 32.7991,0.589481306 C32.2901,1.02548131 31.9981,1.65048131 31.9981,2.30348131 L31.9981,2.88348131 L29.7271,2.88348131 L29.7271,2.30348131 C29.7271,1.65048131 29.4351,1.02548131 28.9271,0.589481306 C28.4181,0.152481306 27.7341,-0.0565186938 27.0521,0.0144813062 C25.8301,0.140481306 24.9091,1.14348131 24.9091,2.34748131 L24.9091,2.88348131 L22.6381,2.88348131 L22.6381,2.30348131 C22.6381,1.65048131 22.3461,1.02548131 21.8371,0.589481306 C21.3291,0.152481306 20.6451,-0.0565186938 19.9631,0.0144813062 C18.7411,0.140481306 17.8191,1.14348131 17.8191,2.34748131 L17.8191,2.88348131 L15.5491,2.88348131 L15.5491,2.30348131 C15.5491,1.65048131 15.2571,1.02548131 14.7491,0.589481306 C14.2401,0.152481306 13.5561,-0.0565186938 12.8741,0.0144813062 C11.6521,0.140481306 10.7311,1.14348131 10.7311,2.34748131 L10.7311,2.88348131 L8.4601,2.88348131 L8.4601,2.30348131 C8.4601,1.65048131 8.1681,1.02548131 7.6591,0.589481306 C7.1511,0.152481306 6.4671,-0.0575186938 5.7841,0.0144813062 C4.5631,0.140481306 3.6411,1.14348131 3.6411,2.34748131 L3.6411,2.90748131 C1.5971,3.12148131 0.0001,4.78148131 0.0001,6.79248131 L0.0001,14.6994813 C0.0001,15.1234813 0.3591,15.4674813 0.8031,15.4674813 C1.2461,15.4674813 1.6061,15.1234813 1.6061,14.6994813 L1.6061,11.7724813 L45.5841,11.7724813 C46.0281,11.7724813 46.3871,11.4294813 46.3871,11.0054813 C46.3871,10.5814813 46.0281,10.2374813 45.5841,10.2374813 L1.6061,10.2374813 L1.6061,6.79248131 C1.6061,5.63048131 2.4851,4.66048131 3.6421,4.45848131 L3.6421,5.42848131 C3.6421,6.63148131 4.5631,7.63448131 5.7851,7.76148131 C5.8721,7.77048131 5.9591,7.77448131 6.0461,7.77448131 C6.6401,7.77448131 7.2161,7.56648131 7.6591,7.18648131 C8.1681,6.74948131 8.4601,6.12448131 8.4601,5.47148131 L8.4601,4.41948131 L10.7311,4.41948131 L10.7311,5.42848131 C10.7311,6.63148131 11.6521,7.63448131 12.8741,7.76148131 C12.9611,7.77048131 13.0481,7.77448131 13.1351,7.77448131 C13.7291,7.77448131 14.3051,7.56648131 14.7491,7.18648131 C15.2571,6.74948131 15.5491,6.12448131 15.5491,5.47148131 L15.5491,4.41948131 L17.8201,4.41948131 L17.8201,5.42848131 C17.8201,6.63148131 18.7411,7.63448131 19.9631,7.76148131 C20.0501,7.77048131 20.1381,7.77448131 20.2251,7.77448131 C20.8181,7.77448131 21.3941,7.56648131 21.8381,7.18648131 C22.3461,6.74948131 22.6381,6.12448131 22.6381,5.47148131 L22.6381,4.41948131 L24.9091,4.41948131 L24.9091,5.42848131 C24.9091,6.63148131 25.8301,7.63448131 27.0521,7.76148131 C27.1401,7.77048131 27.2271,7.77448131 27.3141,7.77448131 C27.9071,7.77448131 28.4841,7.56648131 28.9271,7.18648131 C29.4361,6.74948131 29.7271,6.12448131 29.7271,5.47148131 L29.7271,4.41948131 L31.9981,4.41948131 L31.9981,5.47148131 C31.9981,6.12448131 32.2901,6.74948131 32.7991,7.18648131 C33.2421,7.56648131 33.8191,7.77448131 34.4121,7.77448131 C34.4991,7.77448131 34.5861,7.77048131 34.6741,7.76148131 C35.8951,7.63448131 36.8171,6.63148131 36.8171,5.42848131 L36.8171,4.41948131 L39.0881,4.41948131 L39.0881,5.47148131 C39.0881,6.12448131 39.3791,6.74948131 39.8881,7.18648131 C40.3311,7.56648131 40.9081,7.77448131 41.5011,7.77448131 C41.5881,7.77448131 41.6761,7.77048131 41.7631,7.76148131 C42.9851,7.63448131 43.9061,6.63148131 43.9061,5.42848131 L43.9061,4.41948131 L46.1771,4.41948131 L46.1771,5.47148131 C46.1771,6.12448131 46.4681,6.74948131 46.9771,7.18648131 C47.4211,7.56648131 47.9971,7.77448131 48.5901,7.77448131 C48.6771,7.77448131 48.7651,7.77048131 48.8521,7.76148131 C50.0741,7.63448131 50.9951,6.63148131 50.9951,5.42848131 L50.9951,4.45848131 C52.1511,4.66048131 53.0311,5.63048131 53.0311,6.79348131 L53.0311,10.2374813 L49.0061,10.2374813 C48.5631,10.2374813 48.2031,10.5814813 48.2031,11.0054813 C48.2031,11.4294813 48.5631,11.7724813 49.0061,11.7724813 L53.0311,11.7724813 L53.0311,25.8804813 C53.0311,26.3044813 53.3901,26.6484813 53.8341,26.6484813 C54.2781,26.6484813 54.6371,26.3044813 54.6371,25.8804813 L54.6371,6.79248131 C54.6371,4.78148131 53.0401,3.12148131 50.9951,2.90748131 L50.9951,2.90748131 Z M6.8541,5.47148131 C6.8541,5.69248131 6.7591,5.89548131 6.5871,6.04348131 C6.4151,6.19048131 6.1921,6.25848131 5.9581,6.23448131 C5.5601,6.19348131 5.2481,5.83948131 5.2481,5.42848131 L5.2481,2.34748131 C5.2481,1.93648131 5.5601,1.58148131 5.9581,1.54048131 C6.1911,1.51648131 6.4151,1.58448131 6.5871,1.73148131 C6.7591,1.87948131 6.8541,2.08248131 6.8541,2.30348131 L6.8541,5.47148131 Z M13.9431,5.47148131 C13.9431,5.69248131 13.8481,5.89548131 13.6761,6.04348131 C13.5041,6.19048131 13.2811,6.25848131 13.0471,6.23448131 C12.6491,6.19348131 12.3371,5.83948131 12.3371,5.42848131 L12.3371,2.34748131 C12.3371,1.93648131 12.6491,1.58148131 13.0471,1.54048131 C13.2801,1.51648131 13.5041,1.58448131 13.6761,1.73148131 C13.8481,1.87948131 13.9431,2.08248131 13.9431,2.30348131 L13.9431,5.47148131 Z M21.0321,5.47148131 C21.0321,5.69248131 20.9371,5.89548131 20.7651,6.04348131 C20.5931,6.19148131 20.3701,6.25848131 20.1361,6.23448131 C19.7381,6.19348131 19.4261,5.83948131 19.4261,5.42848131 L19.4261,2.34748131 C19.4261,1.93648131 19.7381,1.58148131 20.1361,1.54048131 C20.1671,1.53748131 20.1981,1.53548131 20.2291,1.53548131 C20.4281,1.53548131 20.6161,1.60448131 20.7651,1.73148131 C20.9371,1.87948131 21.0321,2.08248131 21.0321,2.30348131 L21.0321,5.47148131 Z M28.1211,5.47148131 C28.1211,5.69248131 28.0261,5.89548131 27.8541,6.04348131 C27.6821,6.19148131 27.4591,6.25848131 27.2251,6.23448131 C26.8271,6.19348131 26.5151,5.83948131 26.5151,5.42848131 L26.5151,2.34748131 C26.5151,1.93648131 26.8271,1.58148131 27.2251,1.54048131 C27.2561,1.53748131 27.2871,1.53548131 27.3181,1.53548131 C27.5171,1.53548131 27.7051,1.60448131 27.8541,1.73148131 C28.0261,1.87948131 28.1211,2.08248131 28.1211,2.30348131 L28.1211,5.47148131 Z M35.2111,5.42848131 C35.2111,5.83948131 34.8991,6.19348131 34.5001,6.23448131 C34.2671,6.25848131 34.0431,6.19048131 33.8711,6.04348131 C33.6991,5.89548131 33.6041,5.69248131 33.6041,5.47148131 L33.6041,2.30348131 C33.6041,2.08248131 33.6991,1.87948131 33.8711,1.73148131 C34.0211,1.60348131 34.2081,1.53548131 34.4081,1.53548131 C34.4391,1.53548131 34.4691,1.53748131 34.5001,1.54048131 C34.8991,1.58148131 35.2111,1.93648131 35.2111,2.34648131 L35.2111,5.42848131 Z M42.3001,5.42848131 C42.3001,5.83948131 41.9881,6.19348131 41.5901,6.23448131 C41.3561,6.25848131 41.1331,6.19048131 40.9611,6.04348131 C40.7891,5.89548131 40.6941,5.69248131 40.6941,5.47148131 L40.6941,2.30348131 C40.6941,2.08248131 40.7891,1.87948131 40.9611,1.73148131 C41.1331,1.58448131 41.3551,1.51648131 41.5901,1.54048131 C41.9881,1.58148131 42.3001,1.93648131 42.3001,2.34748131 L42.3001,5.42848131 Z M49.3891,5.42848131 C49.3891,5.83948131 49.0771,6.19348131 48.6791,6.23448131 C48.4451,6.25848131 48.2221,6.19048131 48.0501,6.04348131 C47.8781,5.89548131 47.7831,5.69248131 47.7831,5.47148131 L47.7831,2.30348131 C47.7831,2.09248131 47.8711,1.89448131 48.0311,1.74848131 C48.1821,1.61048131 48.3781,1.53548131 48.5861,1.53548131 C48.5991,1.53548131 48.6111,1.53648131 48.6241,1.53648131 C49.0461,1.55448131 49.3891,1.91948131 49.3891,2.35048131 L49.3891,5.42848131 Z" id="Fill-310"></path>
            <path d="M6.3307,21.1199813 L10.2247,21.1199813 C11.0417,21.1199813 11.7057,20.4839813 11.7057,19.7029813 L11.7057,15.9809813 C11.7057,15.1999813 11.0417,14.5639813 10.2247,14.5639813 L6.3307,14.5639813 C5.5137,14.5639813 4.8487,15.1999813 4.8487,15.9809813 L4.8487,19.7029813 C4.8487,20.4839813 5.5137,21.1199813 6.3307,21.1199813 L6.3307,21.1199813 Z M6.4557,19.5849813 L10.1007,19.5849813 L10.1007,16.0999813 L6.4557,16.0999813 L6.4557,19.5849813 Z" id="Fill-312"></path>
            <path d="M19.0319,21.1199813 L22.9259,21.1199813 C23.7429,21.1199813 24.4069,20.4839813 24.4069,19.7029813 L24.4069,15.9809813 C24.4069,15.1999813 23.7429,14.5639813 22.9259,14.5639813 L19.0319,14.5639813 C18.2149,14.5639813 17.5499,15.1999813 17.5499,15.9809813 L17.5499,19.7029813 C17.5499,20.4839813 18.2149,21.1199813 19.0319,21.1199813 L19.0319,21.1199813 Z M19.1559,19.5849813 L22.8009,19.5849813 L22.8009,16.0999813 L19.1559,16.0999813 L19.1559,19.5849813 Z" id="Fill-314"></path>
            <path d="M31.7331,21.1199813 L35.6271,21.1199813 C36.4441,21.1199813 37.1081,20.4839813 37.1081,19.7029813 L37.1081,15.9809813 C37.1081,15.1999813 36.4441,14.5639813 35.6271,14.5639813 L31.7331,14.5639813 C30.9161,14.5639813 30.2511,15.1999813 30.2511,15.9809813 L30.2511,19.7029813 C30.2511,20.4839813 30.9161,21.1199813 31.7331,21.1199813 L31.7331,21.1199813 Z M31.8571,19.5849813 L35.5021,19.5849813 L35.5021,16.0999813 L31.8571,16.0999813 L31.8571,19.5849813 Z" id="Fill-316"></path>
            <path d="M44.4343,21.1199813 L48.3283,21.1199813 C49.1453,21.1199813 49.8093,20.4839813 49.8093,19.7029813 L49.8093,15.9809813 C49.8093,15.1999813 49.1453,14.5639813 48.3283,14.5639813 L44.4343,14.5639813 C43.6173,14.5639813 42.9523,15.1999813 42.9523,15.9809813 L42.9523,19.7029813 C42.9523,20.4839813 43.6173,21.1199813 44.4343,21.1199813 L44.4343,21.1199813 Z M44.5583,19.5849813 L48.2033,19.5849813 L48.2033,16.0999813 L44.5583,16.0999813 L44.5583,19.5849813 Z" id="Fill-318"></path>
            <path d="M4.8491,29.2423813 C4.8491,30.0233813 5.5141,30.6593813 6.3311,30.6593813 L10.2241,30.6593813 C11.0411,30.6593813 11.7061,30.0233813 11.7061,29.2423813 L11.7061,25.5193813 C11.7061,24.7383813 11.0411,24.1033813 10.2241,24.1033813 L6.3311,24.1033813 C5.5141,24.1033813 4.8491,24.7383813 4.8491,25.5193813 L4.8491,29.2423813 Z M6.4551,29.1233813 L10.1001,29.1233813 L10.1001,25.6383813 L6.4551,25.6383813 L6.4551,29.1233813 Z" id="Fill-320"></path>
            <path d="M17.5502,29.2423813 C17.5502,30.0233813 18.2152,30.6593813 19.0322,30.6593813 L22.9252,30.6593813 C23.7422,30.6593813 24.4072,30.0233813 24.4072,29.2423813 L24.4072,25.5193813 C24.4072,24.7383813 23.7422,24.1033813 22.9252,24.1033813 L19.0322,24.1033813 C18.2152,24.1033813 17.5502,24.7383813 17.5502,25.5193813 L17.5502,29.2423813 Z M19.1562,29.1233813 L22.8012,29.1233813 L22.8012,25.6383813 L19.1562,25.6383813 L19.1562,29.1233813 Z" id="Fill-322"></path>
            <path d="M42.9527,29.2423813 C42.9527,30.0233813 43.6177,30.6593813 44.4347,30.6593813 L48.3277,30.6593813 C49.1447,30.6593813 49.8097,30.0233813 49.8097,29.2423813 L49.8097,25.5193813 C49.8097,24.7383813 49.1447,24.1033813 48.3277,24.1033813 L44.4347,24.1033813 C43.6177,24.1033813 42.9527,24.7383813 42.9527,25.5193813 L42.9527,29.2423813 Z M44.5587,29.1233813 L48.2037,29.1233813 L48.2037,25.6383813 L44.5587,25.6383813 L44.5587,29.1233813 Z" id="Fill-324"></path>
            <path d="M4.8491,38.7815813 C4.8491,39.5625813 5.5141,40.1985813 6.3311,40.1985813 L10.2241,40.1985813 C11.0411,40.1985813 11.7061,39.5625813 11.7061,38.7815813 L11.7061,35.0585813 C11.7061,34.2775813 11.0411,33.6425813 10.2241,33.6425813 L6.3311,33.6425813 C5.5141,33.6425813 4.8491,34.2775813 4.8491,35.0585813 L4.8491,38.7815813 Z M6.4551,38.6625813 L10.1001,38.6625813 L10.1001,35.1775813 L6.4551,35.1775813 L6.4551,38.6625813 Z" id="Fill-326"></path>
            <path d="M17.5502,38.7815813 C17.5502,39.5625813 18.2152,40.1985813 19.0322,40.1985813 L22.9252,40.1985813 C23.7422,40.1985813 24.4072,39.5625813 24.4072,38.7815813 L24.4072,35.0585813 C24.4072,34.2775813 23.7422,33.6425813 22.9252,33.6425813 L19.0322,33.6425813 C18.2152,33.6425813 17.5502,34.2775813 17.5502,35.0585813 L17.5502,38.7815813 Z M19.1562,38.6625813 L22.8012,38.6625813 L22.8012,35.1775813 L19.1562,35.1775813 L19.1562,38.6625813 Z" id="Fill-328"></path>
            <path d="M35.6267,33.6424813 L31.7327,33.6424813 C30.9157,33.6424813 30.2517,34.2774813 30.2517,35.0594813 L30.2517,38.7814813 C30.2517,39.5624813 30.9157,40.1984813 31.7327,40.1984813 L35.6267,40.1984813 C36.4437,40.1984813 37.1087,39.5624813 37.1087,38.7814813 L37.1087,35.0594813 C37.1087,34.2774813 36.4437,33.6424813 35.6267,33.6424813 L35.6267,33.6424813 Z M31.8577,38.6624813 L35.5027,38.6624813 L35.5027,35.1774813 L31.8577,35.1774813 L31.8577,38.6624813 Z" id="Fill-330"></path>
            <path d="M29.2511,26.4662813 C29.0591,27.0302813 29.2681,27.6432813 29.7691,27.9912813 L30.7381,28.6642813 L30.3681,29.7522813 C30.1761,30.3162813 30.3851,30.9292813 30.8861,31.2782813 C31.1371,31.4522813 31.4311,31.5392813 31.7251,31.5392813 C32.0191,31.5392813 32.3131,31.4522813 32.5641,31.2782813 L33.5321,30.6052813 L34.5011,31.2782813 C35.0031,31.6262813 35.6761,31.6262813 36.1781,31.2782813 C36.6801,30.9292813 36.8881,30.3162813 36.6961,29.7532813 L36.3261,28.6642813 L37.2951,27.9912813 C37.7971,27.6432813 38.0051,27.0302813 37.8131,26.4662813 C37.6221,25.9022813 37.0771,25.5232813 36.4571,25.5232813 L35.2591,25.5232813 L34.8891,24.4352813 C34.6981,23.8712813 34.1521,23.4922813 33.5321,23.4922813 L33.5321,23.4922813 C32.9121,23.4922813 32.3671,23.8712813 32.1751,24.4352813 L31.8051,25.5232813 L30.6081,25.5232813 C29.9881,25.5232813 29.4431,25.9022813 29.2511,26.4662813 L29.2511,26.4662813 Z M31.9351,27.0592813 C32.5551,27.0592813 33.1011,26.6802813 33.2921,26.1162813 L33.5321,25.4112813 L33.7721,26.1162813 C33.9631,26.6802813 34.5091,27.0592813 35.1291,27.0592813 L35.9041,27.0592813 L35.2771,27.4952813 C34.7751,27.8432813 34.5671,28.4562813 34.7591,29.0202813 L34.9981,29.7252813 L34.3711,29.2892813 C33.8691,28.9412813 33.1951,28.9412813 32.6931,29.2892813 L32.0661,29.7252813 L32.3061,29.0202813 C32.4971,28.4562813 32.2891,27.8432813 31.7871,27.4952813 L31.1601,27.0592813 L31.9351,27.0592813 Z" id="Fill-332"></path>
        </g>
    </g>
</svg>