<?xml version="1.0" encoding="UTF-8"?>
<svg width="63.139px" height="62.144px" viewBox="0 0 63.139 62.144" version="1.1" xmlns="http://www.w3.org/2000/svg" xmlns:xlink="http://www.w3.org/1999/xlink">
    <title>icon-CASE STUDIES</title>
    <g id="icon-CASE-STUDIES" stroke="none" stroke-width="1" fill="none" fill-rule="evenodd">
        <g id="Group-225" fill="#AE542D">
            <path d="M57.029,33.608 L57.029,13.952 C60.478,13.463 63.139,10.543 63.139,7.016 C63.139,3.148 59.942,0 56.011,0 C52.08,0 48.882,3.148 48.882,7.016 L0,7.016 L0,47.109 L30.603,47.109 C31.133,55.485 38.205,62.144 46.845,62.144 C55.829,62.144 63.139,54.95 63.139,46.107 C63.139,41.056 60.749,36.55 57.029,33.608 L57.029,33.608 Z M56.011,2.005 C58.818,2.005 61.103,4.253 61.103,7.016 C61.103,9.78 58.818,12.028 56.011,12.028 C53.203,12.028 50.919,9.78 50.919,7.016 C50.919,4.253 53.203,2.005 56.011,2.005 L56.011,2.005 Z M2.036,9.021 L49.182,9.021 C49.426,9.821 49.813,10.557 50.31,11.211 L44.081,17.341 C43.682,17.153 43.242,17.039 42.772,17.039 C42.301,17.039 41.861,17.153 41.463,17.341 L39.411,15.322 C39.601,14.929 39.717,14.496 39.717,14.032 C39.717,12.375 38.346,11.026 36.661,11.026 C34.977,11.026 33.606,12.375 33.606,14.032 C33.606,14.496 33.721,14.929 33.913,15.32 L28.806,20.347 C28.406,20.16 27.966,20.046 27.496,20.046 C25.812,20.046 24.441,21.396 24.441,23.053 C24.441,24.711 25.812,26.06 27.496,26.06 C29.18,26.06 30.551,24.711 30.551,23.053 C30.551,22.59 30.436,22.157 30.245,21.765 L35.352,16.739 C35.751,16.926 36.191,17.039 36.661,17.039 C37.132,17.039 37.572,16.926 37.97,16.738 L40.022,18.757 C39.832,19.15 39.717,19.583 39.717,20.046 C39.717,21.704 41.087,23.053 42.772,23.053 C44.456,23.053 45.827,21.704 45.827,20.046 C45.827,19.583 45.712,19.15 45.52,18.758 L51.75,12.628 C52.682,13.316 53.788,13.782 54.992,13.953 L54.992,32.241 C52.592,30.869 49.815,30.07 46.845,30.07 C41.977,30.07 37.613,32.193 34.625,35.535 L34.625,31.072 L28.514,31.072 L28.514,43.1 L30.848,43.1 C30.722,43.755 30.646,44.425 30.603,45.105 L2.036,45.105 L2.036,9.021 Z M42.772,19.044 C43.333,19.044 43.79,19.493 43.79,20.046 C43.79,20.6 43.333,21.049 42.772,21.049 C42.211,21.049 41.753,20.6 41.753,20.046 C41.753,19.493 42.211,19.044 42.772,19.044 L42.772,19.044 Z M35.643,14.032 C35.643,13.479 36.1,13.03 36.661,13.03 C37.223,13.03 37.68,13.479 37.68,14.032 C37.68,14.586 37.223,15.035 36.661,15.035 C36.1,15.035 35.643,14.586 35.643,14.032 L35.643,14.032 Z M28.514,23.053 C28.514,23.607 28.057,24.056 27.496,24.056 C26.935,24.056 26.478,23.607 26.478,23.053 C26.478,22.5 26.935,22.051 27.496,22.051 C28.057,22.051 28.514,22.5 28.514,23.053 L28.514,23.053 Z M46.845,54.126 C42.353,54.126 38.698,50.528 38.698,46.107 C38.698,41.686 42.353,38.088 46.845,38.088 C51.337,38.088 54.992,41.686 54.992,46.107 C54.992,50.528 51.337,54.126 46.845,54.126 L46.845,54.126 Z M32.588,38.36 C32.1,39.226 31.697,40.141 31.377,41.095 L30.551,41.095 L30.551,33.077 L32.588,33.077 L32.588,38.36 Z M45.827,32.126 L45.827,36.135 C40.688,36.64 36.661,40.919 36.661,46.107 C36.661,47.573 36.991,48.964 37.569,50.221 L34.036,52.228 C33.117,50.376 32.588,48.303 32.588,46.107 C32.588,38.708 38.44,32.643 45.827,32.126 L45.827,32.126 Z M46.845,60.14 C41.943,60.14 37.611,57.691 35.044,53.97 L38.591,51.955 C40.443,54.478 43.448,56.13 46.845,56.13 C50.243,56.13 53.248,54.478 55.099,51.955 L58.646,53.97 C56.08,57.691 51.748,60.14 46.845,60.14 L46.845,60.14 Z M59.654,52.228 L56.122,50.221 C56.699,48.964 57.029,47.573 57.029,46.107 C57.029,40.919 53.002,36.639 47.864,36.135 L47.864,32.126 C55.25,32.643 61.103,38.708 61.103,46.107 C61.103,48.303 60.573,50.376 59.654,52.228 L59.654,52.228 Z" id="Fill-221"></path>
            <path d="M46.8452,40.0931 C43.4752,40.0931 40.7352,42.7901 40.7352,46.1071 C40.7352,49.4241 43.4752,52.1211 46.8452,52.1211 C50.2152,52.1211 52.9552,49.4241 52.9552,46.1071 C52.9552,42.7901 50.2152,40.0931 46.8452,40.0931 M46.8452,50.1161 C44.5982,50.1161 42.7712,48.3181 42.7712,46.1071 C42.7712,43.8961 44.5982,42.0981 46.8452,42.0981 C49.0922,42.0981 50.9192,43.8961 50.9192,46.1071 C50.9192,48.3181 49.0922,50.1161 46.8452,50.1161" id="Fill-223"></path>
        </g>
        <polygon id="Fill-226" fill="#AE542D" points="4.0735 13.0304 6.1105 13.0304 6.1105 11.0254 4.0735 11.0254"></polygon>
        <polygon id="Fill-227" fill="#AE542D" points="8.1465 13.0304 22.4035 13.0304 22.4035 11.0254 8.1465 11.0254"></polygon>
        <polygon id="Fill-228" fill="#AE542D" points="4.0735 17.0394 6.1105 17.0394 6.1105 15.0344 4.0735 15.0344"></polygon>
        <polygon id="Fill-229" fill="#AE542D" points="8.1465 17.0394 22.4035 17.0394 22.4035 15.0344 8.1465 15.0344"></polygon>
        <polygon id="Fill-230" fill="#AE542D" points="4.0735 21.0494 6.1105 21.0494 6.1105 19.0444 4.0735 19.0444"></polygon>
        <polygon id="Fill-231" fill="#AE542D" points="8.1465 21.0494 22.4035 21.0494 22.4035 19.0444 8.1465 19.0444"></polygon>
        <polygon id="Fill-232" fill="#AE542D" points="4.0735 25.0584 6.1105 25.0584 6.1105 23.0534 4.0735 23.0534"></polygon>
        <polygon id="Fill-233" fill="#AE542D" points="8.1465 25.0584 22.4035 25.0584 22.4035 23.0534 8.1465 23.0534"></polygon>
        <path d="M4.0735,43.1004 L10.1835,43.1004 L10.1835,33.0774 L4.0735,33.0774 L4.0735,43.1004 Z M6.1095,41.0954 L8.1465,41.0954 L8.1465,35.0814 L6.1095,35.0814 L6.1095,41.0954 Z" id="Fill-234" fill="#AE542D"></path>
        <path d="M12.2205,43.1004 L18.3305,43.1004 L18.3305,35.0814 L12.2205,35.0814 L12.2205,43.1004 Z M14.2565,41.0954 L16.2935,41.0954 L16.2935,37.0864 L14.2565,37.0864 L14.2565,41.0954 Z" id="Fill-235" fill="#AE542D"></path>
        <path d="M20.3675,43.1004 L26.4775,43.1004 L26.4775,27.0634 L20.3675,27.0634 L20.3675,43.1004 Z M22.4045,41.0954 L24.4415,41.0954 L24.4415,29.0674 L22.4045,29.0674 L22.4045,41.0954 Z" id="Fill-236" fill="#AE542D"></path>
    </g>
</svg>