<?xml version="1.0" encoding="UTF-8"?>
<svg width="47.891px" height="51.26px" viewBox="0 0 47.891 51.26" version="1.1" xmlns="http://www.w3.org/2000/svg" xmlns:xlink="http://www.w3.org/1999/xlink">
    <title>icon-media-mentions</title>
    <g id="icon-media-mentions" stroke="none" stroke-width="1" fill="none" fill-rule="evenodd">
        <path d="M46.956,0 L9.166,0 C8.65,0 8.231,0.448 8.231,1.001 L8.231,5.406 L5.051,5.406 C4.534,5.406 4.115,5.855 4.115,6.407 L4.115,11.814 L0.935,11.814 C0.418,11.814 1.42108547e-14,12.262 1.42108547e-14,12.815 L1.42108547e-14,45.854 C1.42108547e-14,48.835 2.265,51.26 5.051,51.26 L42.84,51.26 C45.625,51.26 47.891,48.835 47.891,45.854 L47.891,1.001 C47.891,0.448 47.473,0 46.956,0 L46.956,0 Z M46.021,45.854 C46.021,47.731 44.594,49.258 42.84,49.258 L8.971,49.258 C9.677,48.327 10.102,47.143 10.102,45.854 L10.102,32.338 C10.102,31.785 9.683,31.337 9.166,31.337 C8.65,31.337 8.231,31.785 8.231,32.338 L8.231,45.854 C8.231,47.731 6.804,49.258 5.051,49.258 C3.297,49.258 1.87,47.731 1.87,45.854 L1.87,13.816 L4.115,13.816 L4.115,44.852 C4.115,45.405 4.534,45.854 5.051,45.854 C5.567,45.854 5.986,45.405 5.986,44.852 L5.986,7.409 L8.231,7.409 L8.231,23.328 C8.231,23.88 8.65,24.329 9.166,24.329 C9.683,24.329 10.102,23.88 10.102,23.328 L10.102,2.002 L46.021,2.002 L46.021,45.854 Z" id="Fill-336" fill="#AE542D"></path>
        <path d="M13.6562,15.8185 L42.4662,15.8185 C42.9822,15.8185 43.4012,15.3705 43.4012,14.8175 L43.4012,7.6085 C43.4012,7.0565 42.9822,6.6075 42.4662,6.6075 L13.6562,6.6075 C13.1392,6.6075 12.7212,7.0565 12.7212,7.6085 L12.7212,14.8175 C12.7212,15.3705 13.1392,15.8185 13.6562,15.8185 L13.6562,15.8185 Z M14.5912,13.8165 L41.5302,13.8165 L41.5302,8.6105 L14.5912,8.6105 L14.5912,13.8165 Z" id="Fill-338" fill="#AE542D"></path>
        <path d="M13.6562,39.8466 L28.0612,39.8466 C28.5772,39.8466 28.9962,39.3986 28.9962,38.8456 L28.9962,19.6226 C28.9962,19.0696 28.5772,18.6216 28.0612,18.6216 L13.6562,18.6216 C13.1392,18.6216 12.7212,19.0696 12.7212,19.6226 L12.7212,38.8456 C12.7212,39.3986 13.1392,39.8466 13.6562,39.8466 L13.6562,39.8466 Z M14.5912,37.8446 L27.1252,37.8446 L27.1252,20.6246 L14.5912,20.6246 L14.5912,37.8446 Z" id="Fill-340" fill="#AE542D"></path>
        <path d="M42.4661,18.6217 L32.5511,18.6217 C32.0341,18.6217 31.6161,19.0697 31.6161,19.6227 C31.6161,20.1757 32.0341,20.6237 32.5511,20.6237 L42.4661,20.6237 C42.9831,20.6237 43.4011,20.1757 43.4011,19.6227 C43.4011,19.0697 42.9831,18.6217 42.4661,18.6217" id="Fill-342" fill="#AE542D"></path>
        <path d="M42.4661,23.4274 L32.5511,23.4274 C32.0341,23.4274 31.6161,23.8754 31.6161,24.4284 C31.6161,24.9814 32.0341,25.4294 32.5511,25.4294 L42.4661,25.4294 C42.9831,25.4294 43.4011,24.9814 43.4011,24.4284 C43.4011,23.8754 42.9831,23.4274 42.4661,23.4274" id="Fill-344" fill="#AE542D"></path>
        <path d="M42.4661,28.233 L32.5511,28.233 C32.0341,28.233 31.6161,28.681 31.6161,29.234 C31.6161,29.787 32.0341,30.235 32.5511,30.235 L42.4661,30.235 C42.9831,30.235 43.4011,29.787 43.4011,29.234 C43.4011,28.681 42.9831,28.233 42.4661,28.233" id="Fill-346" fill="#AE542D"></path>
        <path d="M42.4661,33.0386 L32.5511,33.0386 C32.0341,33.0386 31.6161,33.4866 31.6161,34.0396 C31.6161,34.5926 32.0341,35.0406 32.5511,35.0406 L42.4661,35.0406 C42.9831,35.0406 43.4011,34.5926 43.4011,34.0396 C43.4011,33.4866 42.9831,33.0386 42.4661,33.0386" id="Fill-348" fill="#AE542D"></path>
        <path d="M42.4661,37.8443 L32.5511,37.8443 C32.0341,37.8443 31.6161,38.2923 31.6161,38.8453 C31.6161,39.3983 32.0341,39.8463 32.5511,39.8463 L42.4661,39.8463 C42.9831,39.8463 43.4011,39.3983 43.4011,38.8453 C43.4011,38.2923 42.9831,37.8443 42.4661,37.8443" id="Fill-350" fill="#AE542D"></path>
        <path d="M13.6562,44.6522 L42.4662,44.6522 C42.9822,44.6522 43.4012,44.2042 43.4012,43.6512 C43.4012,43.0982 42.9822,42.6502 42.4662,42.6502 L13.6562,42.6502 C13.1392,42.6502 12.7212,43.0982 12.7212,43.6512 C12.7212,44.2042 13.1392,44.6522 13.6562,44.6522" id="Fill-352" fill="#AE542D"></path>
        <path d="M9.2131,26.8313 C8.9671,26.8313 8.7261,26.9383 8.5521,27.1243 C8.3781,27.3113 8.2781,27.5693 8.2781,27.8323 C8.2781,28.0973 8.3781,28.3543 8.5521,28.5403 C8.7261,28.7273 8.9671,28.8333 9.2131,28.8333 C9.4591,28.8333 9.7001,28.7273 9.8741,28.5403 C10.0481,28.3543 10.1481,28.0963 10.1481,27.8323 C10.1481,27.5693 10.0481,27.3113 9.8741,27.1243 C9.7001,26.9383 9.4591,26.8313 9.2131,26.8313" id="Fill-354" fill="#AE542D"></path>
    </g>
</svg>