<?xml version="1.0" encoding="UTF-8"?>
<svg width="50.958px" height="56.28px" viewBox="0 0 50.958 56.28" version="1.1" xmlns="http://www.w3.org/2000/svg" xmlns:xlink="http://www.w3.org/1999/xlink">
    <title>icon-PUBLIC-FACING REPORTS</title>
    <g id="icon-PUBLIC-FACING-REPORTS" stroke="none" stroke-width="1" fill="none" fill-rule="evenodd">
        <path d="M49.963,22.946 L43.593,22.946 C43.043,22.946 42.598,23.438 42.598,24.045 L42.598,29.596 C42.598,30.203 43.043,30.695 43.593,30.695 C44.143,30.695 44.588,30.203 44.588,29.596 L44.588,25.144 L48.968,25.144 L48.968,54.081 L46.778,54.081 L44.588,54.081 L44.588,37.84 C44.588,37.233 44.143,36.741 43.593,36.741 C43.043,36.741 42.598,37.233 42.598,37.84 L42.598,54.081 L40.607,54.081 L40.607,31.328 C40.607,30.721 40.162,30.228 39.612,30.228 L33.242,30.228 C32.692,30.228 32.247,30.721 32.247,31.328 L32.247,54.081 L30.256,54.081 L30.256,39.022 C30.256,38.415 29.811,37.923 29.261,37.923 L22.891,37.923 C22.341,37.923 21.896,38.415 21.896,39.022 L21.896,54.081 L19.905,54.081 L19.905,45.329 C19.905,44.722 19.46,44.229 18.91,44.229 L12.54,44.229 C11.99,44.229 11.545,44.722 11.545,45.329 L11.545,54.081 L2.985,54.081 C2.437,54.081 1.99,53.588 1.99,52.982 L1.99,3.298 C1.99,2.692 2.437,2.199 2.985,2.199 L28.661,2.199 L28.661,9.454 C28.661,11.272 30.001,12.751 31.647,12.751 L38.216,12.751 L38.216,26.271 C38.216,26.878 38.662,27.37 39.211,27.37 C39.761,27.37 40.207,26.878 40.207,26.271 L40.207,11.652 C40.207,11.361 40.102,11.081 39.915,10.875 L30.36,0.322 C30.174,0.116 29.921,0 29.657,0 L2.985,0 C1.339,0 0,1.48 0,3.298 L0,52.982 C0,54.8 1.339,56.28 2.985,56.28 L49.963,56.28 C50.513,56.28 50.958,55.787 50.958,55.18 L50.958,24.045 C50.958,23.438 50.513,22.946 49.963,22.946 L49.963,22.946 Z M30.652,3.753 L36.809,10.553 L31.647,10.553 C31.098,10.553 30.652,10.06 30.652,9.454 L30.652,3.753 Z M13.536,54.081 L17.915,54.081 L17.915,46.428 L13.536,46.428 L13.536,54.081 Z M23.887,54.081 L28.266,54.081 L28.266,40.121 L23.887,40.121 L23.887,54.081 Z M34.238,54.081 L38.617,54.081 L38.617,32.427 L34.238,32.427 L34.238,54.081 Z" id="Fill-208" fill="#AE542D"></path>
        <path d="M27.7031,41.5558 C27.5871,41.4278 27.4271,41.3548 27.2631,41.3548 C27.0991,41.3548 26.9391,41.4278 26.8231,41.5558 C26.7071,41.6838 26.6401,41.8608 26.6401,42.0418 C26.6401,42.2228 26.7071,42.3998 26.8231,42.5278 C26.9391,42.6558 27.0991,42.7288 27.2631,42.7288 C27.4271,42.7288 27.5871,42.6558 27.7031,42.5278 C27.8191,42.3998 27.8851,42.2228 27.8851,42.0418 C27.8851,41.8608 27.8191,41.6838 27.7031,41.5558" id="Fill-210" fill="#AE542D"></path>
        <path d="M10.0903,25.0775 C9.7463,25.0775 9.4683,25.3855 9.4683,25.7645 L9.4683,27.0015 C6.6023,27.3455 4.3653,30.0335 4.3653,33.2875 C4.3653,36.7735 6.9333,39.6095 10.0903,39.6095 C13.0373,39.6095 15.4703,37.1395 15.7813,33.9745 L16.9013,33.9745 C17.2453,33.9745 17.5243,33.6665 17.5243,33.2875 C17.5243,28.7605 14.1893,25.0775 10.0903,25.0775 L10.0903,25.0775 Z M10.0903,38.2355 C7.6203,38.2355 5.6103,36.0155 5.6103,33.2875 C5.6103,30.7925 7.2913,28.7225 9.4683,28.3865 L9.4683,33.2875 C9.4683,33.6665 9.7463,33.9745 10.0903,33.9745 L14.5273,33.9745 C14.2233,36.3785 12.3493,38.2355 10.0903,38.2355 L10.0903,38.2355 Z M10.7123,32.5995 L10.7123,32.5995 L10.7123,26.4865 C13.6293,26.8095 15.9553,29.3785 16.2483,32.5995 L10.7123,32.5995 Z" id="Fill-212" fill="#AE542D"></path>
        <path d="M15.8721,41.3104 L3.9831,41.3104 C3.6391,41.3104 3.3611,41.6184 3.3611,41.9974 C3.3611,42.3774 3.6391,42.6854 3.9831,42.6854 L15.8721,42.6854 C16.2161,42.6854 16.4941,42.3774 16.4941,41.9974 C16.4941,41.6184 16.2161,41.3104 15.8721,41.3104" id="Fill-214" fill="#AE542D"></path>
        <path d="M7.967,44.6273 L3.983,44.6273 C3.64,44.6273 3.361,44.9353 3.361,45.3143 C3.361,45.6943 3.64,46.0023 3.983,46.0023 L7.967,46.0023 C8.311,46.0023 8.589,45.6943 8.589,45.3143 C8.589,44.9353 8.311,44.6273 7.967,44.6273" id="Fill-216" fill="#AE542D"></path>
        <path d="M11.5243,44.8288 C11.4083,44.7008 11.2483,44.6278 11.0843,44.6278 C10.9203,44.6278 10.7603,44.7008 10.6443,44.8288 C10.5273,44.9568 10.4613,45.1338 10.4613,45.3148 C10.4613,45.4958 10.5273,45.6728 10.6443,45.8008 C10.7603,45.9288 10.9203,46.0018 11.0843,46.0018 C11.2483,46.0018 11.4083,45.9288 11.5243,45.8008 C11.6403,45.6728 11.7063,45.4958 11.7063,45.3148 C11.7063,45.1338 11.6403,44.9568 11.5243,44.8288" id="Fill-218" fill="#AE542D"></path>
    </g>
</svg>