<svg width="265.06" height="289.494" viewBox="0 0 70.131 76.595" xml:space="preserve" xmlns="http://www.w3.org/2000/svg"><defs><clipPath clipPathUnits="userSpaceOnUse" id="a"><path d="M0 0h612v792H0Z" transform="translate(-226.962 -193.589)"/></clipPath></defs><path d="M0 0c14.205 53.013 68.695 84.472 121.707 70.268 53.012-14.205 84.471-68.694 70.267-121.707-14.205-53.012-68.694-84.472-121.706-70.267C17.256-107.501-14.205-53.012 0 0" style="fill:#f68b13;fill-opacity:1;fill-rule:nonzero;stroke:none" transform="matrix(.35278 0 0 -.35278 1.203 32.457)" clip-path="url(#a)"/><path d="M2169.104 753.651c-21.283-5.703-33.913-27.579-28.21-48.861 5.702-21.283 27.578-33.914 48.86-28.21 21.285 5.703 33.914 27.578 28.211 48.86-5.702 21.284-27.578 33.914-48.86 28.211" style="fill:#bd4a1f;fill-opacity:1;fill-rule:nonzero;stroke:none;stroke-width:1.33333" transform="matrix(.26458 0 0 .26458 -521.247 -178.65)"/></svg>