<svg width="174.752" height="260.327" viewBox="0 0 46.237 68.878" xml:space="preserve" xmlns="http://www.w3.org/2000/svg"><defs><clipPath clipPathUnits="userSpaceOnUse" id="b"><path d="M426.5 936.28h978.67V281.565H426.5Z" transform="translate(-427.5 -935.28)"/></clipPath><clipPath clipPathUnits="userSpaceOnUse" id="a"><path style="fill:#000;stroke-width:.833494" transform="scale(1 -1)" d="M2313.248-260.327H2488V0h-174.752z"/></clipPath></defs><g style="display:inline" clip-path="url(#a)" transform="matrix(.26458 0 0 .26458 -612.047 0)"><path d="M0 0c141.245-381.095 507.998-652.715 938.224-652.715 21.732 0 17.06.772 38.447 2.137v325.125c-21.288-2.02-16.63-3.094-38.447-3.094C691.916-328.547 476.396-196.825 358.19 0z" style="display:inline;fill:#303944;fill-opacity:1;fill-rule:nonzero;stroke:none" transform="matrix(1.33333 0 0 -1.33333 2242 -191.04)" clip-path="url(#b)"/><path d="M0 0c51.827-111.388 203.184-229.755 309.193-274.373C159.014-195.312 100.12-84.881 76.562 0Z" style="display:inline;fill:#bd4a1f;fill-opacity:1;fill-rule:nonzero;stroke:none" transform="matrix(1.33333 0 0 -1.33333 2332.618 61.189)"/></g></svg>