<?xml version="1.0" encoding="UTF-8" standalone="no"?>
<!-- Created with Inkscape (http://www.inkscape.org/) -->

<svg
   width="118.59093mm"
   height="20.335054mm"
   viewBox="0 0 118.59092 20.335054"
   version="1.1"
   id="svg1"
   xml:space="preserve"
   xmlns="http://www.w3.org/2000/svg"
   xmlns:svg="http://www.w3.org/2000/svg"><defs
     id="defs1"><clipPath
       clipPathUnits="userSpaceOnUse"
       id="clipPath13"><path
         d="m 27.52,7.412 h 360 V 99.32 h -360 z"
         transform="translate(-107.3736,-43.974204)"
         id="path13" /></clipPath><clipPath
       clipPathUnits="userSpaceOnUse"
       id="clipPath15"><path
         d="m 27.52,7.412 h 360 V 99.32 h -360 z"
         transform="translate(-114.5847,-43.974204)"
         id="path15" /></clipPath><clipPath
       clipPathUnits="userSpaceOnUse"
       id="clipPath17"><path
         d="m 27.52,7.412 h 360 V 99.32 h -360 z"
         transform="translate(-122.7892,-41.865301)"
         id="path17" /></clipPath><clipPath
       clipPathUnits="userSpaceOnUse"
       id="clipPath19"><path
         d="m 27.52,7.412 h 360 V 99.32 h -360 z"
         transform="translate(-130.71771,-41.040226)"
         id="path19" /></clipPath><clipPath
       clipPathUnits="userSpaceOnUse"
       id="clipPath21"><path
         d="m 27.52,7.412 h 360 V 99.32 h -360 z"
         transform="translate(-143.2923,-40.673626)"
         id="path21" /></clipPath><clipPath
       clipPathUnits="userSpaceOnUse"
       id="clipPath23"><path
         d="m 27.52,7.412 h 360 V 99.32 h -360 z"
         transform="translate(-149.7235,-43.974204)"
         id="path23" /></clipPath><clipPath
       clipPathUnits="userSpaceOnUse"
       id="clipPath25"><path
         d="m 27.52,7.412 h 360 V 99.32 h -360 z"
         transform="translate(-155.57421,-50.560299)"
         id="path25" /></clipPath><clipPath
       clipPathUnits="userSpaceOnUse"
       id="clipPath27"><path
         d="m 27.52,7.412 h 360 V 99.32 h -360 z"
         transform="translate(-159.6076,-50.560299)"
         id="path27" /></clipPath><clipPath
       clipPathUnits="userSpaceOnUse"
       id="clipPath29"><path
         d="m 27.52,7.412 h 360 V 99.32 h -360 z"
         transform="translate(-164.466,-44.753401)"
         id="path29" /></clipPath><clipPath
       clipPathUnits="userSpaceOnUse"
       id="clipPath31"><path
         d="m 27.52,7.412 h 360 V 99.32 h -360 z"
         transform="translate(-171.846,-41.865301)"
         id="path31" /></clipPath><clipPath
       clipPathUnits="userSpaceOnUse"
       id="clipPath33"><path
         d="m 27.52,7.412 h 360 V 99.32 h -360 z"
         transform="translate(-177.9718,-44.753401)"
         id="path33" /></clipPath><clipPath
       clipPathUnits="userSpaceOnUse"
       id="clipPath35"><path
         d="m 27.52,7.412 h 360 V 99.32 h -360 z"
         transform="translate(-188.07051,-43.974204)"
         id="path35" /></clipPath><clipPath
       clipPathUnits="userSpaceOnUse"
       id="clipPath37"><path
         d="m 27.52,7.412 h 360 V 99.32 h -360 z"
         transform="translate(-193.2643,-38.610526)"
         id="path37" /></clipPath><clipPath
       clipPathUnits="userSpaceOnUse"
       id="clipPath39"><path
         d="m 27.52,7.412 h 360 V 99.32 h -360 z"
         transform="translate(-207.04581,-40.673626)"
         id="path39" /></clipPath><clipPath
       clipPathUnits="userSpaceOnUse"
       id="clipPath41"><path
         d="m 27.52,7.412 h 360 V 99.32 h -360 z"
         transform="translate(-213.47781,-43.974204)"
         id="path41" /></clipPath><clipPath
       clipPathUnits="userSpaceOnUse"
       id="clipPath43"><path
         d="m 27.52,7.412 h 360 V 99.32 h -360 z"
         transform="translate(-224.1724,-48.359904)"
         id="path43" /></clipPath><clipPath
       clipPathUnits="userSpaceOnUse"
       id="clipPath45"><path
         d="m 27.52,7.412 h 360 V 99.32 h -360 z"
         transform="translate(-235.87531,-48.359904)"
         id="path45" /></clipPath><clipPath
       clipPathUnits="userSpaceOnUse"
       id="clipPath47"><path
         d="m 27.52,7.412 h 360 V 99.32 h -360 z"
         transform="translate(-242.58081,-46.801201)"
         id="path47" /></clipPath><clipPath
       clipPathUnits="userSpaceOnUse"
       id="clipPath49"><path
         d="m 27.52,7.412 h 360 V 99.32 h -360 z"
         transform="translate(-255.81231,-46.113399)"
         id="path49" /></clipPath><clipPath
       clipPathUnits="userSpaceOnUse"
       id="clipPath51"><path
         d="m 27.52,7.412 h 360 V 99.32 h -360 z"
         transform="translate(-260.89921,-51.462204)"
         id="path51" /></clipPath><clipPath
       clipPathUnits="userSpaceOnUse"
       id="clipPath53"><path
         d="m 27.52,7.412 h 360 V 99.32 h -360 z"
         transform="translate(-267.54661,-42.812701)"
         id="path53" /></clipPath><clipPath
       clipPathUnits="userSpaceOnUse"
       id="clipPath55"><path
         d="m 27.52,7.412 h 360 V 99.32 h -360 z"
         transform="translate(-271.6396,-41.880601)"
         id="path55" /></clipPath><clipPath
       clipPathUnits="userSpaceOnUse"
       id="clipPath57"><path
         d="m 27.52,7.412 h 360 V 99.32 h -360 z"
         transform="translate(-278.20911,-41.865301)"
         id="path57" /></clipPath><clipPath
       clipPathUnits="userSpaceOnUse"
       id="clipPath59"><path
         d="m 27.52,7.412 h 360 V 99.32 h -360 z"
         transform="translate(-283.81611,-51.462204)"
         id="path59" /></clipPath><clipPath
       clipPathUnits="userSpaceOnUse"
       id="clipPath61"><path
         d="m 27.52,7.412 h 360 V 99.32 h -360 z"
         transform="translate(-287.1001,-43.974204)"
         id="path61" /></clipPath><clipPath
       clipPathUnits="userSpaceOnUse"
       id="clipPath63"><path
         d="m 27.52,7.412 h 360 V 99.32 h -360 z"
         transform="translate(-298.02471,-46.113399)"
         id="path63" /></clipPath><clipPath
       clipPathUnits="userSpaceOnUse"
       id="clipPath65"><path
         d="m 27.52,7.412 h 360 V 99.32 h -360 z"
         id="path65" /></clipPath><clipPath
       clipPathUnits="userSpaceOnUse"
       id="clipPath67"><path
         d="m 27.52,7.412 h 360 V 99.32 h -360 z"
         transform="translate(-75.273804,-88.117405)"
         id="path67" /></clipPath><clipPath
       clipPathUnits="userSpaceOnUse"
       id="clipPath69"><path
         d="m 27.52,7.412 h 360 V 99.32 h -360 z"
         transform="translate(-63.060302,-89.6422)"
         id="path69" /></clipPath><clipPath
       clipPathUnits="userSpaceOnUse"
       id="clipPath71"><path
         d="m 27.52,7.412 h 360 V 99.32 h -360 z"
         transform="translate(-63.612401,-89.720605)"
         id="path71" /></clipPath><clipPath
       clipPathUnits="userSpaceOnUse"
       id="clipPath73"><path
         d="m 27.52,7.412 h 360 V 99.32 h -360 z"
         transform="translate(-63.060302,-86.274002)"
         id="path73" /></clipPath><clipPath
       clipPathUnits="userSpaceOnUse"
       id="clipPath75"><path
         d="m 27.52,7.412 h 360 V 99.32 h -360 z"
         transform="translate(-63.612401,-86.3524)"
         id="path75" /></clipPath><clipPath
       clipPathUnits="userSpaceOnUse"
       id="clipPath77"><path
         d="m 27.52,7.412 h 360 V 99.32 h -360 z"
         transform="translate(-62.946202,-87.941305)"
         id="path77" /></clipPath><clipPath
       clipPathUnits="userSpaceOnUse"
       id="clipPath79"><path
         d="m 27.52,7.412 h 360 V 99.32 h -360 z"
         transform="translate(-62.394101,-87.8623)"
         id="path79" /></clipPath><clipPath
       clipPathUnits="userSpaceOnUse"
       id="clipPath81"><path
         d="m 27.52,7.412 h 360 V 99.32 h -360 z"
         transform="translate(-70.211402,-89.763805)"
         id="path81" /></clipPath><clipPath
       clipPathUnits="userSpaceOnUse"
       id="clipPath83"><path
         d="m 27.52,7.412 h 360 V 99.32 h -360 z"
         transform="translate(-72.550202,-89.443802)"
         id="path83" /></clipPath><clipPath
       clipPathUnits="userSpaceOnUse"
       id="clipPath85"><path
         d="m 27.52,7.412 h 360 V 99.32 h -360 z"
         transform="translate(-70.059202,-88.098002)"
         id="path85" /></clipPath><clipPath
       clipPathUnits="userSpaceOnUse"
       id="clipPath87"><path
         d="m 27.52,7.412 h 360 V 99.32 h -360 z"
         transform="translate(-72.610602,-87.751802)"
         id="path87" /></clipPath><clipPath
       clipPathUnits="userSpaceOnUse"
       id="clipPath89"><path
         d="m 27.52,7.412 h 360 V 99.32 h -360 z"
         transform="translate(-71.163302,-85.520605)"
         id="path89" /></clipPath><clipPath
       clipPathUnits="userSpaceOnUse"
       id="clipPath91"><path
         d="m 27.52,7.412 h 360 V 99.32 h -360 z"
         transform="translate(-70.611302,-86.3434)"
         id="path91" /></clipPath><clipPath
       clipPathUnits="userSpaceOnUse"
       id="clipPath93"><path
         d="m 27.52,7.412 h 360 V 99.32 h -360 z"
         transform="translate(-60.289601,-75.313899)"
         id="path93" /></clipPath><clipPath
       clipPathUnits="userSpaceOnUse"
       id="clipPath95"><path
         d="m 27.52,7.412 h 360 V 99.32 h -360 z"
         transform="translate(-77.405799,-71.797299)"
         id="path95" /></clipPath><clipPath
       clipPathUnits="userSpaceOnUse"
       id="clipPath97"><path
         d="m 27.52,7.412 h 360 V 99.32 h -360 z"
         transform="translate(-83.076805,-93.839905)"
         id="path97" /></clipPath><clipPath
       clipPathUnits="userSpaceOnUse"
       id="clipPath99"><path
         d="m 27.52,7.412 h 360 V 99.32 h -360 z"
         transform="translate(-106.0318,-81.957002)"
         id="path99" /></clipPath><clipPath
       clipPathUnits="userSpaceOnUse"
       id="clipPath101"><path
         d="m 27.52,7.412 h 360 V 99.32 h -360 z"
         transform="translate(-113.07261,-86.587)"
         id="path101" /></clipPath><clipPath
       clipPathUnits="userSpaceOnUse"
       id="clipPath103"><path
         d="m 27.52,7.412 h 360 V 99.32 h -360 z"
         transform="translate(-125.2189,-92.103602)"
         id="path103" /></clipPath><clipPath
       clipPathUnits="userSpaceOnUse"
       id="clipPath105"><path
         d="m 27.52,7.412 h 360 V 99.32 h -360 z"
         transform="translate(-131.17611,-81.957002)"
         id="path105" /></clipPath><clipPath
       clipPathUnits="userSpaceOnUse"
       id="clipPath107"><path
         d="m 27.52,7.412 h 360 V 99.32 h -360 z"
         transform="translate(-139.1664,-92.4703)"
         id="path107" /></clipPath><clipPath
       clipPathUnits="userSpaceOnUse"
       id="clipPath109"><path
         d="m 27.52,7.412 h 360 V 99.32 h -360 z"
         transform="translate(-146.05761,-82.904402)"
         id="path109" /></clipPath><clipPath
       clipPathUnits="userSpaceOnUse"
       id="clipPath111"><path
         d="m 27.52,7.412 h 360 V 99.32 h -360 z"
         transform="translate(-154.5376,-86.587)"
         id="path111" /></clipPath><clipPath
       clipPathUnits="userSpaceOnUse"
       id="clipPath113"><path
         d="m 27.52,7.412 h 360 V 99.32 h -360 z"
         transform="translate(-159.54801,-87.1219)"
         id="path113" /></clipPath><clipPath
       clipPathUnits="userSpaceOnUse"
       id="clipPath115"><path
         d="m 27.52,7.412 h 360 V 99.32 h -360 z"
         transform="translate(-167.3245,-88.252802)"
         id="path115" /></clipPath><clipPath
       clipPathUnits="userSpaceOnUse"
       id="clipPath117"><path
         d="m 27.52,7.412 h 360 V 99.32 h -360 z"
         transform="translate(-170.7766,-92.4703)"
         id="path117" /></clipPath><clipPath
       clipPathUnits="userSpaceOnUse"
       id="clipPath119"><path
         d="m 27.52,7.412 h 360 V 99.32 h -360 z"
         transform="translate(-179.11911,-78.335199)"
         id="path119" /></clipPath><clipPath
       clipPathUnits="userSpaceOnUse"
       id="clipPath121"><path
         d="m 27.52,7.412 h 360 V 99.32 h -360 z"
         transform="translate(-192.79221,-82.446002)"
         id="path121" /></clipPath><clipPath
       clipPathUnits="userSpaceOnUse"
       id="clipPath123"><path
         d="m 27.52,7.412 h 360 V 99.32 h -360 z"
         transform="translate(-199.6062,-88.955905)"
         id="path123" /></clipPath><clipPath
       clipPathUnits="userSpaceOnUse"
       id="clipPath125"><path
         d="m 27.52,7.412 h 360 V 99.32 h -360 z"
         transform="translate(-213.20361,-81.911102)"
         id="path125" /></clipPath><clipPath
       clipPathUnits="userSpaceOnUse"
       id="clipPath127"><path
         d="m 27.52,7.412 h 360 V 99.32 h -360 z"
         transform="translate(-218.99391,-86.587)"
         id="path127" /></clipPath><clipPath
       clipPathUnits="userSpaceOnUse"
       id="clipPath129"><path
         d="m 27.52,7.412 h 360 V 99.32 h -360 z"
         transform="translate(-224.0662,-82.446002)"
         id="path129" /></clipPath><clipPath
       clipPathUnits="userSpaceOnUse"
       id="clipPath131"><path
         d="m 27.52,7.412 h 360 V 99.32 h -360 z"
         transform="translate(-233.69131,-85.5937)"
         id="path131" /></clipPath><clipPath
       clipPathUnits="userSpaceOnUse"
       id="clipPath133"><path
         d="m 27.52,7.412 h 360 V 99.32 h -360 z"
         transform="translate(-240.9637,-88.252802)"
         id="path133" /></clipPath><clipPath
       clipPathUnits="userSpaceOnUse"
       id="clipPath135"><path
         d="m 27.52,7.412 h 360 V 99.32 h -360 z"
         transform="translate(-250.98531,-85.5937)"
         id="path135" /></clipPath><clipPath
       clipPathUnits="userSpaceOnUse"
       id="clipPath137"><path
         d="m 27.52,7.412 h 360 V 99.32 h -360 z"
         transform="translate(-253.44501,-88.237502)"
         id="path137" /></clipPath><clipPath
       clipPathUnits="userSpaceOnUse"
       id="clipPath139"><path
         d="m 27.52,7.412 h 360 V 99.32 h -360 z"
         transform="translate(-267.14941,-90.254702)"
         id="path139" /></clipPath><clipPath
       clipPathUnits="userSpaceOnUse"
       id="clipPath141"><path
         d="m 27.52,7.412 h 360 V 99.32 h -360 z"
         transform="translate(-279.40311,-83.912905)"
         id="path141" /></clipPath><clipPath
       clipPathUnits="userSpaceOnUse"
       id="clipPath143"><path
         d="m 27.52,7.412 h 360 V 99.32 h -360 z"
         transform="translate(-285.22321,-88.252802)"
         id="path143" /></clipPath><clipPath
       clipPathUnits="userSpaceOnUse"
       id="clipPath145"><path
         d="m 27.52,7.412 h 360 V 99.32 h -360 z"
         transform="translate(-287.07111,-88.237502)"
         id="path145" /></clipPath><clipPath
       clipPathUnits="userSpaceOnUse"
       id="clipPath147"><path
         d="m 27.52,7.412 h 360 V 99.32 h -360 z"
         transform="translate(-294.2365,-92.4703)"
         id="path147" /></clipPath><clipPath
       clipPathUnits="userSpaceOnUse"
       id="clipPath149"><path
         d="m 27.52,7.412 h 360 V 99.32 h -360 z"
         transform="translate(-299.35461,-81.957002)"
         id="path149" /></clipPath><clipPath
       clipPathUnits="userSpaceOnUse"
       id="clipPath151"><path
         d="m 27.52,7.412 h 360 V 99.32 h -360 z"
         transform="translate(-106.4638,-63.859899)"
         id="path151" /></clipPath><clipPath
       clipPathUnits="userSpaceOnUse"
       id="clipPath153"><path
         d="m 27.52,7.412 h 360 V 99.32 h -360 z"
         transform="translate(-114.92001,-66.174302)"
         id="path153" /></clipPath><clipPath
       clipPathUnits="userSpaceOnUse"
       id="clipPath155"><path
         d="m 27.52,7.412 h 360 V 99.32 h -360 z"
         transform="translate(-121.3599,-59.231004)"
         id="path155" /></clipPath><clipPath
       clipPathUnits="userSpaceOnUse"
       id="clipPath157"><path
         d="m 27.52,7.412 h 360 V 99.32 h -360 z"
         transform="translate(-130.8247,-68.649504)"
         id="path157" /></clipPath><clipPath
       clipPathUnits="userSpaceOnUse"
       id="clipPath159"><path
         d="m 27.52,7.412 h 360 V 99.32 h -360 z"
         transform="translate(-145.8345,-66.174302)"
         id="path159" /></clipPath><clipPath
       clipPathUnits="userSpaceOnUse"
       id="clipPath161"><path
         d="m 27.52,7.412 h 360 V 99.32 h -360 z"
         transform="translate(-153.1221,-66.976599)"
         id="path161" /></clipPath><clipPath
       clipPathUnits="userSpaceOnUse"
       id="clipPath163"><path
         d="m 27.52,7.412 h 360 V 99.32 h -360 z"
         transform="translate(-168.17781,-69.726302)"
         id="path163" /></clipPath><clipPath
       clipPathUnits="userSpaceOnUse"
       id="clipPath165"><path
         d="m 27.52,7.412 h 360 V 99.32 h -360 z"
         transform="translate(-177.5974,-59.964301)"
         id="path165" /></clipPath><clipPath
       clipPathUnits="userSpaceOnUse"
       id="clipPath167"><path
         d="m 27.52,7.412 h 360 V 99.32 h -360 z"
         transform="translate(-187.51971,-66.976599)"
         id="path167" /></clipPath><clipPath
       clipPathUnits="userSpaceOnUse"
       id="clipPath169"><path
         d="m 27.52,7.412 h 360 V 99.32 h -360 z"
         transform="translate(-213.87351,-75.249302)"
         id="path169" /></clipPath><clipPath
       clipPathUnits="userSpaceOnUse"
       id="clipPath171"><path
         d="m 27.52,7.412 h 360 V 99.32 h -360 z"
         transform="translate(-226.432,-66.174302)"
         id="path171" /></clipPath><clipPath
       clipPathUnits="userSpaceOnUse"
       id="clipPath173"><path
         d="m 27.52,7.412 h 360 V 99.32 h -360 z"
         transform="translate(-237.22671,-61.614002)"
         id="path173" /></clipPath><clipPath
       clipPathUnits="userSpaceOnUse"
       id="clipPath175"><path
         d="m 27.52,7.412 h 360 V 99.32 h -360 z"
         transform="translate(-244.71981,-74.997204)"
         id="path175" /></clipPath><clipPath
       clipPathUnits="userSpaceOnUse"
       id="clipPath177"><path
         d="m 27.52,7.412 h 360 V 99.32 h -360 z"
         transform="translate(-255.71991,-64.684899)"
         id="path177" /></clipPath><clipPath
       clipPathUnits="userSpaceOnUse"
       id="clipPath179"><path
         d="m 27.52,7.412 h 360 V 99.32 h -360 z"
         transform="translate(-278.20071,-75.249302)"
         id="path179" /></clipPath><clipPath
       clipPathUnits="userSpaceOnUse"
       id="clipPath181"><path
         d="m 27.52,7.412 h 360 V 99.32 h -360 z"
         transform="translate(-282.7849,-59.231004)"
         id="path181" /></clipPath><clipPath
       clipPathUnits="userSpaceOnUse"
       id="clipPath183"><path
         d="m 27.52,7.412 h 360 V 99.32 h -360 z"
         transform="translate(-297.40591,-69.245199)"
         id="path183" /></clipPath><clipPath
       clipPathUnits="userSpaceOnUse"
       id="clipPath185"><path
         d="m 27.52,7.412 h 360 V 99.32 h -360 z"
         transform="translate(-310.60531,-64.684899)"
         id="path185" /></clipPath><clipPath
       clipPathUnits="userSpaceOnUse"
       id="clipPath187"><path
         d="m 27.52,7.412 h 360 V 99.32 h -360 z"
         transform="translate(-319.79501,-69.245199)"
         id="path187" /></clipPath><clipPath
       clipPathUnits="userSpaceOnUse"
       id="clipPath189"><path
         d="m 27.52,7.412 h 360 V 99.32 h -360 z"
         transform="translate(-333.65981,-66.174302)"
         id="path189" /></clipPath><clipPath
       clipPathUnits="userSpaceOnUse"
       id="clipPath191"><path
         d="m 27.52,7.412 h 360 V 99.32 h -360 z"
         transform="translate(-353.16141,-59.231004)"
         id="path191" /></clipPath><clipPath
       clipPathUnits="userSpaceOnUse"
       id="clipPath193"><path
         d="m 27.52,7.412 h 360 V 99.32 h -360 z"
         transform="translate(-363.49771,-66.174302)"
         id="path193" /></clipPath><clipPath
       clipPathUnits="userSpaceOnUse"
       id="clipPath195"><path
         d="m 27.52,7.412 h 360 V 99.32 h -360 z"
         transform="translate(-369.93741,-59.231004)"
         id="path195" /></clipPath><clipPath
       clipPathUnits="userSpaceOnUse"
       id="clipPath197"><path
         d="m 27.52,7.412 h 360 V 99.32 h -360 z"
         transform="translate(-379.40211,-68.649504)"
         id="path197" /></clipPath></defs><g
     id="g1"
     transform="matrix(0.26458333,0,0,0.26458334,-18.01875,-245.88615)"><g
       id="g10"
       style="display:inline"><g
         id="group-MC0" /><path
         id="path11"
         d="M 0,0 1.268,-0.199 1.115,-0.734 -0.52,-0.688 -2.231,-0.734 v 0.535 L -0.993,0 0.458,9.153 -0.932,9.459 -0.78,9.994 1.1,9.948 2.582,9.994 4.294,1.711 4.248,0.794 l 4.569,9.2 1.36,-0.046 1.727,0.046 V 9.459 L 10.575,9.26 9.092,0 10.284,-0.199 10.131,-0.734 8.374,-0.688 6.235,-0.734 v 0.535 L 7.64,0 8.848,7.61 9.337,9.337 4.263,-0.718 H 3.331 L 1.559,7.931 1.421,9.337 Z"
         style="fill:#2f3944;fill-opacity:1;fill-rule:nonzero;stroke:none"
         transform="matrix(1.3333333,0,0,-1.3333333,126.48133,1000.4441)" /><path
         id="path12"
         d="m 0,0 c 0,-1.712 0.779,-2.369 1.635,-2.521 1.391,0.458 1.834,2.368 1.834,3.652 0,1.711 -0.81,2.368 -1.666,2.521 C 0.413,3.194 0,1.284 0,0 m 4.921,1.345 c 0,-1.865 -1.07,-3.561 -2.95,-4.248 L 1.039,-3.255 c -1.314,0 -2.491,1.07 -2.491,3.041 0,1.864 1.07,3.561 2.95,4.248 L 2.43,4.386 c 1.314,0 2.491,-1.07 2.491,-3.041"
         style="fill:#2f3944;fill-opacity:1;fill-rule:nonzero;stroke:none"
         transform="matrix(1.3333333,0,0,-1.3333333,143.1648,997.36773)"
         clip-path="url(#clipPath13)" /><path
         id="path14"
         d="m 0,0 c 0,-1.712 0.779,-2.369 1.635,-2.521 1.391,0.458 1.834,2.368 1.834,3.652 0,1.711 -0.81,2.368 -1.666,2.521 C 0.413,3.194 0,1.284 0,0 m 4.921,1.345 c 0,-1.865 -1.07,-3.561 -2.95,-4.248 L 1.039,-3.255 c -1.314,0 -2.491,1.07 -2.491,3.041 0,1.864 1.07,3.561 2.95,4.248 L 2.43,4.386 c 1.314,0 2.491,-1.07 2.491,-3.041"
         style="fill:#2f3944;fill-opacity:1;fill-rule:nonzero;stroke:none"
         transform="matrix(1.3333333,0,0,-1.3333333,152.7796,997.36773)"
         clip-path="url(#clipPath15)" /><path
         id="path16"
         d="M 0,0 1.757,1.467 2.399,5.119 C 2.002,5.394 0.947,5.608 0.489,5.608 -0.458,4.936 -0.993,3.454 -0.993,2.048 -0.993,0.856 -0.52,0.245 0,0 m 1.375,-0.642 0.168,0.902 0.275,0.657 -2.2,-2.063 c -1.054,0.199 -2.063,0.902 -2.063,2.904 0,1.818 0.825,3.453 2.659,4.278 L 1.238,6.495 C 1.559,6.479 2.063,6.357 2.597,6.189 L 3.117,9.107 1.635,8.695 1.452,9.169 4.141,10.009 4.508,9.658 2.796,0 4.065,0.795 4.324,0.413 2.154,-1.146 Z"
         style="fill:#2f3944;fill-opacity:1;fill-rule:nonzero;stroke:none"
         transform="matrix(1.3333333,0,0,-1.3333333,163.71893,1000.1796)"
         clip-path="url(#clipPath17)" /><path
         id="path18"
         d="M 0,0 -0.856,-0.092 -1.772,6.189 -3.071,5.715 -3.3,6.097 -1.192,7.32 -0.367,6.938 0.306,0.52 2.888,5.211 1.88,6.51 3.195,7.32 3.79,6.51 3.469,4.737 -1.543,-3.683 h -1.956 l 0.244,1.406 h 1.162 z"
         style="fill:#2f3944;fill-opacity:1;fill-rule:nonzero;stroke:none"
         transform="matrix(1.3333333,0,0,-1.3333333,174.29027,1001.2797)"
         clip-path="url(#clipPath19)" /><path
         id="path20"
         d="m 0,0 c -2.629,0 -4.279,1.803 -4.279,4.706 0,2.338 0.993,5.043 4.279,6.143 l 1.283,0.428 c 1.513,0 2.675,-0.657 3.24,-1.161 L 4.447,7.915 H 3.637 L 3.316,9.398 C 2.873,9.841 2.017,10.223 0.55,10.452 -1.529,9.551 -2.598,7.595 -2.598,5.012 c 0,-2.75 1.497,-4.11 3.255,-4.217 0.764,0.29 1.192,0.534 1.681,0.962 L 3.24,3.576 H 4.08 L 3.484,1.009 Z"
         style="fill:#2f3944;fill-opacity:1;fill-rule:nonzero;stroke:none"
         transform="matrix(1.3333333,0,0,-1.3333333,191.0564,1001.7685)"
         clip-path="url(#clipPath21)" /><path
         id="path22"
         d="m 0,0 c 0,-1.712 0.779,-2.369 1.635,-2.521 1.391,0.458 1.834,2.368 1.834,3.652 0,1.711 -0.811,2.368 -1.666,2.521 C 0.413,3.194 0,1.284 0,0 M 4.92,1.345 C 4.92,-0.52 3.851,-2.216 1.971,-2.903 L 1.039,-3.255 c -1.315,0 -2.491,1.07 -2.491,3.041 0,1.864 1.07,3.561 2.949,4.248 l 0.932,0.352 c 1.315,0 2.491,-1.07 2.491,-3.041"
         style="fill:#2f3944;fill-opacity:1;fill-rule:nonzero;stroke:none"
         transform="matrix(1.3333333,0,0,-1.3333333,199.63133,997.36773)"
         clip-path="url(#clipPath23)" /><path
         id="path24"
         d="M 0,0 -0.183,0.474 2.506,1.314 2.873,0.963 1.176,-8.695 2.445,-7.9 2.704,-8.282 0.535,-9.841 -0.244,-9.352 1.482,0.412 Z"
         style="fill:#2f3944;fill-opacity:1;fill-rule:nonzero;stroke:none"
         transform="matrix(1.3333333,0,0,-1.3333333,207.43227,988.58627)"
         clip-path="url(#clipPath25)" /><path
         id="path26"
         d="m 0,0 -0.184,0.474 2.69,0.84 0.366,-0.351 -1.696,-9.658 1.268,0.795 0.26,-0.382 -2.169,-1.559 -0.78,0.489 1.727,9.764 z"
         style="fill:#2f3944;fill-opacity:1;fill-rule:nonzero;stroke:none"
         transform="matrix(1.3333333,0,0,-1.3333333,212.81013,988.58627)"
         clip-path="url(#clipPath27)" /><path
         id="path28"
         d="M 0,0 2.491,1.024 C 2.597,1.36 2.644,1.589 2.644,1.849 2.644,2.537 2.277,2.797 1.818,2.873 0.718,2.414 0.199,1.207 0,0 M 3.301,-1.925 3.576,-2.307 C 3.194,-2.628 2.323,-3.255 1.589,-3.683 L 0.993,-4.034 c -1.497,0 -2.521,1.146 -2.521,2.812 0,1.925 1.1,3.774 3.057,4.507 L 2.384,3.607 C 3.347,3.438 4.065,3.041 4.065,2.002 4.065,1.651 3.973,1.223 3.79,0.688 l -3.851,-1.223 c -0.015,-0.137 -0.015,-0.275 -0.015,-0.397 0,-1.36 0.855,-1.956 1.574,-1.971 0.534,0.229 1.283,0.626 1.803,0.978"
         style="fill:#2f3944;fill-opacity:1;fill-rule:nonzero;stroke:none"
         transform="matrix(1.3333333,0,0,-1.3333333,219.288,996.3288)"
         clip-path="url(#clipPath29)" /><path
         id="path30"
         d="M 0,0 1.742,1.406 2.415,5.074 C 2.017,5.379 1.146,5.608 0.489,5.608 -0.458,4.936 -0.993,3.454 -0.993,2.048 -0.993,0.856 -0.519,0.245 0,0 m -2.858,-4.508 0.214,1.253 h 2.812 c 0.474,0.321 0.978,1.101 1.115,1.972 l 0.245,1.528 0.26,0.656 -2.17,-2.047 c -1.055,0.199 -2.062,0.902 -2.062,2.904 0,1.818 0.825,3.453 2.658,4.278 l 1.024,0.459 c 0.596,0 1.773,-0.276 2.598,-0.719 L 2.506,-1.62 C 2.384,-2.277 1.757,-2.812 0.825,-3.515 l -1.329,-0.993 z"
         style="fill:#2f3944;fill-opacity:1;fill-rule:nonzero;stroke:none"
         transform="matrix(1.3333333,0,0,-1.3333333,229.128,1000.1796)"
         clip-path="url(#clipPath31)" /><path
         id="path32"
         d="M 0,0 2.491,1.024 C 2.598,1.36 2.644,1.589 2.644,1.849 2.644,2.537 2.277,2.797 1.819,2.873 0.718,2.414 0.199,1.207 0,0 M 3.301,-1.925 3.576,-2.307 C 3.194,-2.628 2.323,-3.255 1.589,-3.683 L 0.994,-4.034 c -1.498,0 -2.522,1.146 -2.522,2.812 0,1.925 1.1,3.774 3.056,4.507 L 2.384,3.607 C 3.347,3.438 4.065,3.041 4.065,2.002 4.065,1.651 3.973,1.223 3.79,0.688 l -3.851,-1.223 c -0.015,-0.137 -0.015,-0.275 -0.015,-0.397 0,-1.36 0.855,-1.956 1.574,-1.971 0.534,0.229 1.283,0.626 1.803,0.978"
         style="fill:#2f3944;fill-opacity:1;fill-rule:nonzero;stroke:none"
         transform="matrix(1.3333333,0,0,-1.3333333,237.29573,996.3288)"
         clip-path="url(#clipPath33)" /><path
         id="path34"
         d="m 0,0 c 0,-1.712 0.779,-2.369 1.635,-2.521 1.391,0.458 1.834,2.368 1.834,3.652 0,1.711 -0.81,2.368 -1.665,2.521 C 0.412,3.194 0,1.284 0,0 m 4.921,1.345 c 0,-1.865 -1.07,-3.561 -2.949,-4.248 L 1.04,-3.255 c -1.315,0 -2.491,1.07 -2.491,3.041 0,1.864 1.069,3.561 2.949,4.248 L 2.43,4.386 c 1.314,0 2.491,-1.07 2.491,-3.041"
         style="fill:#2f3944;fill-opacity:1;fill-rule:nonzero;stroke:none"
         transform="matrix(1.3333333,0,0,-1.3333333,250.76067,997.36773)"
         clip-path="url(#clipPath35)" /><path
         id="path36"
         d="M 0,0 C 0.336,0.367 0.566,0.902 0.627,1.268 L 1.911,8.603 H 0.428 L 0.504,8.878 1.07,9.383 h 0.978 l 0.138,0.825 c 0.137,0.81 0.427,1.467 0.993,1.834 l 1.94,1.222 H 6.372 L 6.128,12.057 H 4.233 C 3.881,11.721 3.637,11.14 3.576,10.743 L 3.331,9.337 H 5.059 L 4.89,8.603 H 3.194 L 2.017,1.803 C 1.88,1.039 1.559,0.321 1.009,-0.031 l -1.895,-1.222 h -1.07 L -1.696,0 Z"
         style="fill:#2f3944;fill-opacity:1;fill-rule:nonzero;stroke:none"
         transform="matrix(1.3333333,0,0,-1.3333333,257.68573,1004.5193)"
         clip-path="url(#clipPath37)" /><path
         id="path38"
         d="m 0,0 c -2.629,0 -4.279,1.803 -4.279,4.706 0,2.338 0.993,5.043 4.279,6.143 l 1.283,0.428 c 1.514,0 2.675,-0.657 3.24,-1.161 L 4.447,7.915 H 3.637 L 3.316,9.398 C 2.873,9.841 2.017,10.223 0.551,10.452 -1.528,9.551 -2.598,7.595 -2.598,5.012 c 0,-2.75 1.498,-4.11 3.255,-4.217 0.765,0.29 1.192,0.534 1.681,0.962 L 3.24,3.576 H 4.08 L 3.484,1.009 Z"
         style="fill:#2f3944;fill-opacity:1;fill-rule:nonzero;stroke:none"
         transform="matrix(1.3333333,0,0,-1.3333333,276.06107,1001.7685)"
         clip-path="url(#clipPath39)" /><path
         id="path40"
         d="m 0,0 c 0,-1.712 0.779,-2.369 1.635,-2.521 1.391,0.458 1.834,2.368 1.834,3.652 0,1.711 -0.811,2.368 -1.666,2.521 C 0.412,3.194 0,1.284 0,0 M 4.92,1.345 C 4.92,-0.52 3.851,-2.216 1.971,-2.903 L 1.039,-3.255 c -1.315,0 -2.491,1.07 -2.491,3.041 0,1.864 1.07,3.561 2.949,4.248 l 0.932,0.352 c 1.315,0 2.491,-1.07 2.491,-3.041"
         style="fill:#2f3944;fill-opacity:1;fill-rule:nonzero;stroke:none"
         transform="matrix(1.3333333,0,0,-1.3333333,284.63707,997.36773)"
         clip-path="url(#clipPath41)" /><path
         id="path42"
         d="M 0,0 C 1.176,0 1.574,-0.749 1.467,-1.605 L 3.774,0 C 4.997,0 5.409,-0.825 5.257,-1.712 L 4.401,-6.495 5.67,-5.7 5.929,-6.082 3.759,-7.641 2.98,-7.152 3.851,-2.247 c 0.107,0.581 -0.015,1.024 -0.413,1.024 -0.397,0 -0.978,-0.32 -1.36,-0.595 L 1.376,-2.323 0.458,-7.411 H -0.84 l 0.916,5.164 c 0.107,0.581 -0.015,1.024 -0.412,1.024 -0.397,0 -0.978,-0.336 -1.36,-0.595 L -2.43,-2.323 -3.331,-7.411 H -4.63 L -3.499,-1.054 -4.92,-1.559 -5.088,-1.131 -2.583,0 -2.109,-0.489 -2.247,-1.223 -2.46,-1.681 Z"
         style="fill:#2f3944;fill-opacity:1;fill-rule:nonzero;stroke:none"
         transform="matrix(1.3333333,0,0,-1.3333333,298.89653,991.52013)"
         clip-path="url(#clipPath43)" /><path
         id="path44"
         d="M 0,0 C 1.177,0 1.574,-0.749 1.467,-1.605 L 3.774,0 C 4.997,0 5.41,-0.825 5.257,-1.712 L 4.402,-6.495 5.67,-5.7 5.929,-6.082 3.759,-7.641 2.98,-7.152 3.852,-2.247 c 0.106,0.581 -0.016,1.024 -0.414,1.024 -0.397,0 -0.977,-0.32 -1.359,-0.595 L 1.376,-2.323 0.459,-7.411 H -0.84 l 0.916,5.164 c 0.107,0.581 -0.015,1.024 -0.412,1.024 -0.397,0 -0.978,-0.336 -1.36,-0.595 L -2.43,-2.323 -3.331,-7.411 H -4.63 L -3.499,-1.054 -4.92,-1.559 -5.088,-1.131 -2.582,0 -2.108,-0.489 -2.246,-1.223 -2.46,-1.681 Z"
         style="fill:#2f3944;fill-opacity:1;fill-rule:nonzero;stroke:none"
         transform="matrix(1.3333333,0,0,-1.3333333,314.5004,991.52013)"
         clip-path="url(#clipPath45)" /><path
         id="path46"
         d="M 0,0 -0.168,0.428 2.338,1.559 2.797,1.085 1.941,-3.897 c -0.122,-0.688 0.107,-0.962 0.474,-0.962 0.443,0 1.1,0.473 1.451,0.703 l 0.703,0.473 0.856,5.012 h 1.299 l -1.1,-6.265 1.268,0.795 0.26,-0.382 -2.17,-1.559 -0.673,0.428 0.123,0.886 0.213,0.459 -2.628,-1.773 c -1.223,0 -1.589,0.963 -1.451,1.727 l 0.856,4.859 z"
         style="fill:#2f3944;fill-opacity:1;fill-rule:nonzero;stroke:none"
         transform="matrix(1.3333333,0,0,-1.3333333,323.44107,993.5984)"
         clip-path="url(#clipPath47)" /><path
         id="path48"
         d="m 0,0 c 0.107,0.581 0.046,1.024 -0.489,1.024 -0.443,0 -1.039,-0.321 -1.436,-0.596 l -0.734,-0.504 -0.902,-5.089 h -1.298 l 1.13,6.357 -1.42,-0.504 -0.168,0.428 2.505,1.131 0.474,-0.489 -0.138,-0.734 -0.213,-0.459 2.613,1.682 c 1.223,0 1.635,-0.826 1.482,-1.712 l -0.856,-4.783 1.269,0.795 0.26,-0.383 -2.171,-1.558 -0.779,0.489 z"
         style="fill:#2f3944;fill-opacity:1;fill-rule:nonzero;stroke:none"
         transform="matrix(1.3333333,0,0,-1.3333333,341.08307,994.51547)"
         clip-path="url(#clipPath49)" /><path
         id="path50"
         d="M 0,0 0.443,0.076 1.299,0 V -0.734 L 1.04,-1.391 0.627,-1.467 l -0.963,0.076 0.061,0.764 z m -2.154,-4.661 -0.168,0.428 2.506,1.131 0.474,-0.489 -1.055,-6.006 1.268,0.795 0.26,-0.382 -2.17,-1.559 -0.779,0.489 1.085,6.097 z"
         style="fill:#2f3944;fill-opacity:1;fill-rule:nonzero;stroke:none"
         transform="matrix(1.3333333,0,0,-1.3333333,347.8656,987.38373)"
         clip-path="url(#clipPath51)" /><path
         id="path52"
         d="m 0,0 0.289,-0.367 c -0.458,-0.366 -1.252,-0.901 -1.97,-1.344 l -0.611,-0.383 c -1.361,0 -2.522,1.04 -2.522,2.965 0,1.895 1.115,3.545 3.117,4.34 l 0.841,0.336 c 0.397,0 1.207,-0.29 1.65,-0.55 L 0.061,3.759 C -0.474,4.141 -1.162,4.493 -1.651,4.707 -2.736,4.126 -3.362,2.903 -3.362,1.314 c 0,-1.482 0.764,-2.108 1.589,-2.261 C -1.284,-0.749 -0.382,-0.26 0,0"
         style="fill:#2f3944;fill-opacity:1;fill-rule:nonzero;stroke:none"
         transform="matrix(1.3333333,0,0,-1.3333333,356.7288,998.9164)"
         clip-path="url(#clipPath53)" /><path
         id="path54"
         d="M 0,0 1.65,1.391 2.307,5.104 C 1.91,5.379 1.024,5.593 0.504,5.593 -0.26,4.982 -1.008,3.759 -1.008,2.017 -1.008,0.947 -0.489,0.245 0,0 m 2.704,-0.015 1.269,0.795 0.26,-0.383 -2.17,-1.559 -0.78,0.489 0.153,0.902 0.26,0.657 -2.17,-2.048 c -1.009,0.23 -1.987,0.933 -1.987,2.874 0,2.002 1.025,3.423 2.797,4.309 L 1.253,6.479 C 1.818,6.449 2.919,6.143 3.729,5.837 Z"
         style="fill:#2f3944;fill-opacity:1;fill-rule:nonzero;stroke:none"
         transform="matrix(1.3333333,0,0,-1.3333333,362.18613,1000.1592)"
         clip-path="url(#clipPath55)" /><path
         id="path56"
         d="m 0,0 1.987,0.81 0.244,-0.413 -2.873,-1.543 -0.779,0.428 1.039,6.066 h -1.421 l 0.077,0.26 0.565,0.535 h 0.917 l 0.198,1.07 1.1,0.978 H 1.421 L 1.039,6.067 H 2.98 L 2.827,5.348 h -1.91 z"
         style="fill:#2f3944;fill-opacity:1;fill-rule:nonzero;stroke:none"
         transform="matrix(1.3333333,0,0,-1.3333333,370.94547,1000.1796)"
         clip-path="url(#clipPath57)" /><path
         id="path58"
         d="M 0,0 0.443,0.076 1.299,0 v -0.734 l -0.26,-0.657 -0.413,-0.076 -0.962,0.076 0.061,0.764 z m -2.154,-4.661 -0.169,0.428 2.506,1.131 0.474,-0.489 -1.054,-6.006 1.268,0.795 0.26,-0.382 -2.17,-1.559 -0.78,0.489 1.086,6.097 z"
         style="fill:#2f3944;fill-opacity:1;fill-rule:nonzero;stroke:none"
         transform="matrix(1.3333333,0,0,-1.3333333,378.42147,987.38373)"
         clip-path="url(#clipPath59)" /><path
         id="path60"
         d="m 0,0 c 0,-1.712 0.779,-2.369 1.635,-2.521 1.391,0.458 1.834,2.368 1.834,3.652 0,1.711 -0.81,2.368 -1.665,2.521 C 0.413,3.194 0,1.284 0,0 m 4.921,1.345 c 0,-1.865 -1.07,-3.561 -2.949,-4.248 L 1.04,-3.255 c -1.315,0 -2.491,1.07 -2.491,3.041 0,1.864 1.069,3.561 2.949,4.248 L 2.43,4.386 c 1.314,0 2.491,-1.07 2.491,-3.041"
         style="fill:#2f3944;fill-opacity:1;fill-rule:nonzero;stroke:none"
         transform="matrix(1.3333333,0,0,-1.3333333,382.80013,997.36773)"
         clip-path="url(#clipPath61)" /><path
         id="path62"
         d="m 0,0 c 0.108,0.581 0.046,1.024 -0.489,1.024 -0.443,0 -1.039,-0.321 -1.436,-0.596 l -0.734,-0.504 -0.902,-5.089 h -1.298 l 1.131,6.357 -1.421,-0.504 -0.169,0.428 2.507,1.131 0.473,-0.489 -0.137,-0.734 -0.214,-0.459 2.613,1.682 c 1.223,0 1.635,-0.826 1.482,-1.712 l -0.855,-4.783 1.268,0.795 0.26,-0.383 -2.171,-1.558 -0.779,0.489 z"
         style="fill:#2f3944;fill-opacity:1;fill-rule:nonzero;stroke:none"
         transform="matrix(1.3333333,0,0,-1.3333333,397.36627,994.51547)"
         clip-path="url(#clipPath63)" /><path
         id="path64"
         d="m 67.062,81.221 h 0.035 v 0.012 h -0.035 z"
         style="fill:#be4a1f;fill-opacity:1;fill-rule:nonzero;stroke:none"
         transform="matrix(1.3333333,0,0,-1.3333333,0,1056)"
         clip-path="url(#clipPath65)" /><path
         id="path66"
         d="m 0,0 v 1.104 h -0.68 v 1.885 h -0.461 c -0.974,0 -1.942,0.143 -2.88,0.28 -0.855,0.125 -1.663,0.245 -2.41,0.245 -0.701,0 -1.281,-0.111 -1.763,-0.338 -0.482,0.227 -1.062,0.338 -1.764,0.338 -0.746,0 -1.554,-0.12 -2.41,-0.245 -0.937,-0.137 -1.906,-0.28 -2.88,-0.28 h -0.46 V 1.104 h -0.681 V 0 h 0.681 v -1.495 h -0.673 v -1.104 h 0.673 v -2.047 h 0.46 c 1.041,0 2.062,0.158 3.049,0.31 0.834,0.129 1.622,0.251 2.295,0.251 0.543,0 0.951,-0.079 1.266,-0.243 v -10e-4 h 0.887 v 10e-4 c 0.316,0.164 0.724,0.243 1.265,0.243 0.675,0 1.462,-0.122 2.296,-0.251 0.987,-0.152 2.009,-0.31 3.049,-0.31 h 0.461 v 2.047 h 0.672 v 1.104 H -0.68 V 0 Z m -12.339,-3.426 c -0.764,-0.119 -1.55,-0.238 -2.332,-0.281 l 0.209,5.806 c 0.763,0.049 1.505,0.154 2.228,0.26 0.821,0.121 1.598,0.234 2.276,0.234 0.529,0 0.945,-0.067 1.287,-0.21 V 1.577 L -8.844,-3.28 c -0.312,0.075 -0.66,0.114 -1.06,0.114 -0.743,0 -1.565,-0.127 -2.435,-0.26 m 8.29,0 c -0.87,0.133 -1.692,0.26 -2.437,0.26 -0.398,0 -0.746,-0.039 -1.058,-0.114 l -0.174,4.857 v 0.806 c 0.343,0.143 0.759,0.21 1.287,0.21 0.679,0 1.455,-0.113 2.277,-0.234 0.722,-0.106 1.465,-0.211 2.228,-0.26 l 0.207,-5.806 c -0.782,0.043 -1.566,0.162 -2.33,0.281"
         style="fill:#be4a1f;fill-opacity:1;fill-rule:nonzero;stroke:none"
         transform="matrix(1.3333333,0,0,-1.3333333,100.36507,938.51013)"
         clip-path="url(#clipPath67)" /><path
         id="path68"
         d="m 0,0 c -0.046,-0.007 -0.09,-0.013 -0.136,-0.02 -0.432,-0.064 -0.872,-0.128 -1.316,-0.178 l -0.025,-0.745 c 0.491,0.054 0.973,0.125 1.448,0.195 0.01,0.002 0.019,0.003 0.029,0.005 z"
         style="fill:#be4a1f;fill-opacity:1;fill-rule:nonzero;stroke:none"
         transform="matrix(1.3333333,0,0,-1.3333333,84.0804,936.47707)"
         clip-path="url(#clipPath69)" /><path
         id="path70"
         d="m 0,0 v -0.743 c 0.783,0.109 1.501,0.187 2.125,0.136 L 2.15,0.126 C 1.486,0.176 0.758,0.103 0,0"
         style="fill:#be4a1f;fill-opacity:1;fill-rule:nonzero;stroke:none"
         transform="matrix(1.3333333,0,0,-1.3333333,84.816533,936.37253)"
         clip-path="url(#clipPath71)" /><path
         id="path72"
         d="m 0,0 c -0.046,-0.007 -0.09,-0.013 -0.136,-0.02 -0.472,-0.069 -0.952,-0.14 -1.437,-0.193 l -0.026,-0.743 c 0.532,0.056 1.056,0.132 1.57,0.208 0.01,0.001 0.019,0.003 0.029,0.004 z"
         style="fill:#be4a1f;fill-opacity:1;fill-rule:nonzero;stroke:none"
         transform="matrix(1.3333333,0,0,-1.3333333,84.0804,940.968)"
         clip-path="url(#clipPath73)" /><path
         id="path74"
         d="m 0,0 v -0.743 c 0.732,0.101 1.41,0.177 2.004,0.144 L 2.029,0.134 C 1.398,0.166 0.712,0.097 0,0"
         style="fill:#be4a1f;fill-opacity:1;fill-rule:nonzero;stroke:none"
         transform="matrix(1.3333333,0,0,-1.3333333,84.816533,940.86347)"
         clip-path="url(#clipPath75)" /><path
         id="path76"
         d="m 0,0 v -0.744 c 0.028,0.004 0.057,0.008 0.085,0.013 0.984,0.143 1.884,0.276 2.645,0.225 L 2.756,0.225 C 1.913,0.278 0.974,0.143 0,0"
         style="fill:#be4a1f;fill-opacity:1;fill-rule:nonzero;stroke:none"
         transform="matrix(1.3333333,0,0,-1.3333333,83.928267,938.74493)"
         clip-path="url(#clipPath77)" /><path
         id="path78"
         d="m 0,0 c -0.28,-0.04 -0.562,-0.078 -0.846,-0.11 l -0.027,-0.743 c 0.295,0.031 0.586,0.07 0.873,0.109 z"
         style="fill:#be4a1f;fill-opacity:1;fill-rule:nonzero;stroke:none"
         transform="matrix(1.3333333,0,0,-1.3333333,83.192133,938.85027)"
         clip-path="url(#clipPath79)" /><path
         id="path80"
         d="M 0,0 C -0.637,0.078 -1.25,0.125 -1.815,0.083 L -1.789,-0.65 C -1.256,-0.607 -0.653,-0.658 0,-0.742 Z"
         style="fill:#be4a1f;fill-opacity:1;fill-rule:nonzero;stroke:none"
         transform="matrix(1.3333333,0,0,-1.3333333,93.6152,936.31493)"
         clip-path="url(#clipPath81)" /><path
         id="path82"
         d="m 0,0 c -0.444,0.051 -0.883,0.115 -1.316,0.178 -0.158,0.023 -0.316,0.047 -0.471,0.068 v -0.743 c 0.12,-0.017 0.242,-0.034 0.364,-0.053 0.476,-0.07 0.958,-0.141 1.45,-0.194 z"
         style="fill:#be4a1f;fill-opacity:1;fill-rule:nonzero;stroke:none"
         transform="matrix(1.3333333,0,0,-1.3333333,96.7336,936.7416)"
         clip-path="url(#clipPath83)" /><path
         id="path84"
         d="m 0,0 c -0.559,0.063 -1.1,0.1 -1.602,0.069 l 0.026,-0.731 C -1.1,-0.631 -0.571,-0.67 0,-0.74 Z"
         style="fill:#be4a1f;fill-opacity:1;fill-rule:nonzero;stroke:none"
         transform="matrix(1.3333333,0,0,-1.3333333,93.412267,938.536)"
         clip-path="url(#clipPath85)" /><path
         id="path86"
         d="m 0,0 c -0.464,0.052 -0.924,0.119 -1.376,0.187 -0.21,0.029 -0.417,0.06 -0.623,0.089 v -0.743 c 0.169,-0.024 0.341,-0.049 0.516,-0.075 0.494,-0.073 0.998,-0.146 1.51,-0.201 z"
         style="fill:#be4a1f;fill-opacity:1;fill-rule:nonzero;stroke:none"
         transform="matrix(1.3333333,0,0,-1.3333333,96.814133,938.9976)"
         clip-path="url(#clipPath87)" /><path
         id="path88"
         d="M 0,0 C 0.502,-0.074 1.014,-0.148 1.535,-0.202 L 1.508,0.541 C 1.023,0.594 0.543,0.664 0.071,0.733 0.048,0.737 0.024,0.74 0,0.744 Z"
         style="fill:#be4a1f;fill-opacity:1;fill-rule:nonzero;stroke:none"
         transform="matrix(1.3333333,0,0,-1.3333333,94.8844,941.97253)"
         clip-path="url(#clipPath89)" /><path
         id="path90"
         d="M 0,0 C -0.736,0.101 -1.444,0.176 -2.095,0.142 L -2.068,-0.59 C -1.456,-0.557 -0.758,-0.636 0,-0.744 Z"
         style="fill:#be4a1f;fill-opacity:1;fill-rule:nonzero;stroke:none"
         transform="matrix(1.3333333,0,0,-1.3333333,94.1484,940.87547)"
         clip-path="url(#clipPath91)" /><path
         id="path92"
         d="M 0,0 V -0.001 L 4.16,-3.025 2.557,-7.953 c 0.002,-0.009 0.006,-0.019 0.014,-0.025 0.007,-0.006 0.016,-0.006 0.025,-0.006 l 4.194,3.05 4.193,-3.047 c 0.009,-0.003 0.018,0 0.025,0.003 0.013,0.012 0.016,0.029 0.009,0.045 l -1.595,4.909 4.158,3.022 V 0.001 C 13.6,0.007 13.611,0.027 13.606,0.046 13.6,0.064 13.579,0.074 13.558,0.068 V 0.069 H 8.416 L 6.827,4.96 H 6.825 C 6.825,4.981 6.809,4.998 6.79,4.998 6.771,4.998 6.755,4.981 6.755,4.96 H 6.753 L 5.165,0.069 H 0.022 L 0.021,0.066 C 0.002,0.073 -0.019,0.063 -0.025,0.045 -0.031,0.027 -0.021,0.007 0,0 M 5.832,-0.85 6.79,1.545 7.748,-0.85 10.322,-1.021 8.34,-2.673 l 0.633,-2.5 -2.183,1.376 -2.183,-1.376 0.634,2.5 -1.982,1.652 z"
         style="fill:#be4a1f;fill-opacity:1;fill-rule:nonzero;stroke:none"
         transform="matrix(1.3333333,0,0,-1.3333333,80.386133,955.58147)"
         clip-path="url(#clipPath93)" /><path
         id="path94"
         d="M 0,0 C 0.858,0.258 1.577,0.823 2.025,1.593 2.472,2.361 2.611,3.267 2.414,4.14 L 2.328,4.524 1.95,4.412 C 1.516,4.283 1.116,4.073 0.77,3.798 0.85,4.225 0.85,4.668 0.765,5.102 0.597,5.979 0.106,6.752 -0.617,7.279 L -0.935,7.511 -1.145,7.177 C -1.62,6.422 -1.789,5.521 -1.623,4.643 -1.455,3.773 -0.967,3.004 -0.251,2.476 -0.383,2.176 -0.474,1.861 -0.518,1.539 -0.73,2.121 -1.093,2.643 -1.582,3.046 l -0.304,0.252 -0.23,-0.321 c -0.517,-0.725 -0.741,-1.614 -0.628,-2.5 0.117,-0.883 0.56,-1.686 1.251,-2.256 l 0.016,-0.011 c -0.203,-0.276 -0.363,-0.576 -0.478,-0.896 -0.086,0.614 -0.334,1.199 -0.729,1.695 l -0.245,0.31 -0.291,-0.268 c -0.658,-0.603 -1.059,-1.425 -1.131,-2.317 -0.07,-0.887 0.2,-1.761 0.757,-2.462 l 0.014,-0.018 c -0.256,-0.226 -0.474,-0.488 -0.652,-0.776 0.042,0.62 -0.078,1.244 -0.363,1.811 l -0.176,0.352 -0.34,-0.202 C -5.879,-5.015 -6.442,-5.737 -6.696,-6.594 -6.947,-7.45 -6.865,-8.36 -6.465,-9.162 l 0.011,-0.019 c -0.297,-0.169 -0.564,-0.379 -0.799,-0.625 0.169,0.598 0.179,1.234 0.018,1.845 l -0.1,0.382 -0.373,-0.125 c -0.845,-0.286 -1.545,-0.877 -1.971,-1.663 -0.408,-0.759 -0.52,-1.637 -0.32,-2.475 -0.113,-0.077 -0.231,-0.158 -0.354,-0.242 -0.122,0.084 -0.241,0.165 -0.353,0.242 0.199,0.838 0.088,1.716 -0.321,2.476 -0.426,0.785 -1.125,1.376 -1.971,1.662 l -0.373,0.125 -0.1,-0.382 c -0.161,-0.611 -0.151,-1.247 0.018,-1.845 -0.234,0.246 -0.501,0.456 -0.798,0.625 l 0.01,0.019 c 0.401,0.802 0.483,1.712 0.232,2.568 -0.254,0.857 -0.818,1.579 -1.586,2.033 l -0.339,0.202 -0.176,-0.352 c -0.286,-0.567 -0.405,-1.191 -0.363,-1.811 -0.179,0.289 -0.397,0.55 -0.652,0.776 l 0.013,0.018 c 0.558,0.701 0.827,1.575 0.757,2.464 -0.072,0.89 -0.473,1.712 -1.131,2.315 l -0.291,0.268 -0.245,-0.31 c -0.395,-0.496 -0.642,-1.081 -0.729,-1.695 -0.114,0.32 -0.274,0.62 -0.477,0.896 l 0.016,0.011 c 0.69,0.57 1.134,1.373 1.25,2.256 0.114,0.886 -0.109,1.775 -0.628,2.5 l -0.23,0.321 -0.304,-0.252 c -0.489,-0.403 -0.852,-0.925 -1.063,-1.508 -0.044,0.323 -0.134,0.638 -0.268,0.938 0.717,0.528 1.204,1.297 1.372,2.168 0.166,0.879 -0.003,1.778 -0.478,2.533 l -0.209,0.334 -0.319,-0.232 c -0.723,-0.527 -1.214,-1.3 -1.382,-2.176 -0.084,-0.435 -0.085,-0.877 -0.005,-1.305 -0.346,0.275 -0.746,0.485 -1.179,0.614 l -0.378,0.112 -0.086,-0.384 c -0.197,-0.873 -0.059,-1.779 0.389,-2.547 0.447,-0.77 1.166,-1.335 2.024,-1.593 l 0.333,-0.099 c 0.034,-0.28 0.104,-0.555 0.205,-0.821 -0.475,0.305 -1.018,0.49 -1.591,0.536 l -0.393,0.032 -0.006,-0.395 c -0.011,-0.895 0.311,-1.751 0.908,-2.41 0.596,-0.661 1.417,-1.065 2.309,-1.14 l 0.346,-0.029 c 0.091,-0.268 0.217,-0.522 0.37,-0.759 -0.388,0.146 -0.798,0.222 -1.22,0.222 -0.149,0 -0.299,-0.01 -0.447,-0.027 l -0.391,-0.051 0.076,-0.385 c 0.174,-0.88 0.666,-1.651 1.386,-2.175 0.599,-0.436 1.311,-0.665 2.055,-0.665 0.147,0 0.294,0.009 0.439,0.026 l 0.345,0.045 c 0.146,-0.243 0.32,-0.465 0.521,-0.667 -0.559,0.084 -1.133,0.035 -1.673,-0.153 l -0.373,-0.13 0.155,-0.363 c 0.351,-0.823 0.992,-1.477 1.804,-1.839 0.451,-0.201 0.929,-0.303 1.42,-0.303 0.393,0 0.781,0.066 1.154,0.194 l 0.274,0.096 c 0.458,-0.389 0.976,-0.777 1.688,-1.265 -0.326,-0.214 -0.684,-0.448 -1.085,-0.704 l 0.691,-0.43 c 0.391,0.252 0.738,0.479 1.053,0.689 0.316,-0.21 0.662,-0.437 1.053,-0.689 l 0.691,0.43 c -0.4,0.256 -0.759,0.49 -1.083,0.704 0.71,0.488 1.228,0.876 1.686,1.265 l 0.276,-0.096 c 0.373,-0.128 0.759,-0.194 1.152,-0.194 0.492,0 0.97,0.102 1.42,0.302 0.813,0.363 1.453,1.017 1.804,1.84 l 0.155,0.363 -0.373,0.13 c -0.54,0.188 -1.114,0.237 -1.672,0.152 0.2,0.201 0.375,0.425 0.52,0.668 l 0.345,-0.045 c 0.145,-0.017 0.292,-0.026 0.439,-0.026 h 10e-4 c 0.743,0 1.455,0.229 2.055,0.665 0.72,0.524 1.212,1.295 1.385,2.175 l 0.076,0.385 -0.391,0.051 c -0.148,0.017 -0.298,0.027 -0.447,0.027 -0.421,0 -0.832,-0.076 -1.22,-0.222 0.153,0.237 0.279,0.491 0.371,0.759 l 0.345,0.029 c 0.893,0.075 1.713,0.479 2.309,1.14 0.597,0.659 0.92,1.515 0.908,2.41 L 1.446,-0.352 1.053,-0.384 C 0.481,-0.43 -0.063,-0.615 -0.538,-0.92 c 0.102,0.266 0.171,0.541 0.206,0.821 z m -19.644,0.698 c 0.074,0.555 0.31,1.068 0.678,1.483 0.249,-0.496 0.346,-1.054 0.274,-1.609 -0.073,-0.554 -0.309,-1.069 -0.678,-1.482 -0.25,0.494 -0.347,1.052 -0.274,1.608 m -1.104,4.267 c 0.106,0.55 0.373,1.048 0.764,1.439 0.22,-0.508 0.282,-1.071 0.178,-1.621 -0.106,-0.55 -0.373,-1.049 -0.766,-1.442 -0.22,0.511 -0.283,1.073 -0.176,1.624 m -0.147,-4.106 c -0.5,0.238 -0.918,0.62 -1.198,1.104 -0.282,0.483 -0.409,1.035 -0.37,1.589 0.498,-0.238 0.916,-0.618 1.199,-1.103 0.281,-0.483 0.407,-1.035 0.369,-1.59 m 0.191,-3.524 c -0.375,0.414 -0.614,0.93 -0.69,1.48 0.537,-0.128 1.024,-0.417 1.401,-0.833 0.375,-0.412 0.613,-0.927 0.689,-1.478 -0.539,0.13 -1.026,0.417 -1.4,0.831 m 3.015,0.859 c 0.346,-0.433 0.555,-0.957 0.601,-1.517 0.044,-0.558 -0.083,-1.109 -0.358,-1.591 -0.348,0.432 -0.556,0.959 -0.6,1.518 -0.043,0.558 0.082,1.11 0.357,1.59 m -0.7,-5.098 c -0.453,0.328 -0.792,0.782 -0.981,1.304 0.557,-0.015 1.089,-0.194 1.542,-0.524 0.454,-0.327 0.792,-0.78 0.98,-1.305 -0.558,0.018 -1.089,0.197 -1.541,0.525 m 5.552,-1.668 c 0.491,-0.254 0.895,-0.651 1.162,-1.143 0.266,-0.495 0.373,-1.05 0.316,-1.602 -0.492,0.257 -0.896,0.654 -1.16,1.146 -0.267,0.495 -0.375,1.05 -0.318,1.599 m -2.799,1.501 c -0.158,0.537 -0.149,1.104 0.02,1.628 0.427,-0.35 0.742,-0.82 0.901,-1.358 0.158,-0.539 0.149,-1.104 -0.021,-1.631 -0.429,0.352 -0.743,0.824 -0.9,1.361 m 0.388,-3.504 c -0.511,0.227 -0.937,0.603 -1.23,1.075 0.544,0.098 1.106,0.033 1.618,-0.196 0.511,-0.228 0.936,-0.6 1.228,-1.073 -0.543,-0.1 -1.107,-0.033 -1.616,0.194 m 6.215,0.857 c 0.269,0.495 0.673,0.892 1.164,1.146 0.057,-0.549 -0.05,-1.104 -0.318,-1.599 -0.263,-0.492 -0.667,-0.889 -1.16,-1.146 -0.057,0.552 0.05,1.107 0.314,1.599 m 4.805,0.218 c -0.293,-0.472 -0.718,-0.848 -1.23,-1.075 -0.356,-0.158 -0.732,-0.239 -1.12,-0.239 -0.167,0 -0.333,0.014 -0.496,0.045 0.293,0.473 0.717,0.845 1.228,1.073 0.511,0.229 1.075,0.294 1.618,0.196 m -0.842,2.427 c -0.156,-0.535 -0.47,-1.007 -0.899,-1.359 -0.171,0.527 -0.179,1.092 -0.022,1.629 0.16,0.539 0.474,1.01 0.902,1.36 0.169,-0.524 0.177,-1.091 0.019,-1.63 m 1.452,3.75 c 0.046,0.56 0.255,1.084 0.601,1.517 0.275,-0.48 0.4,-1.032 0.357,-1.591 -0.044,-0.558 -0.252,-1.085 -0.6,-1.517 -0.275,0.482 -0.401,1.033 -0.358,1.591 m 1.301,-3.581 c -0.452,-0.328 -0.983,-0.507 -1.541,-0.525 0.188,0.525 0.526,0.978 0.98,1.305 0.454,0.33 0.986,0.509 1.543,0.524 -0.19,-0.522 -0.529,-0.976 -0.982,-1.304 M 1.758,3.552 C 1.796,2.998 1.669,2.446 1.388,1.963 1.107,1.479 0.691,1.097 0.19,0.859 0.151,1.414 0.278,1.966 0.559,2.449 0.842,2.934 1.259,3.314 1.758,3.552 M -0.9,4.781 C -1.004,5.333 -0.941,5.896 -0.722,6.404 -0.33,6.013 -0.063,5.514 0.042,4.963 0.149,4.414 0.087,3.852 -0.134,3.341 -0.527,3.734 -0.794,4.233 -0.9,4.781 m -1.114,-4.21 c -0.072,0.556 0.025,1.114 0.274,1.61 0.369,-0.415 0.605,-0.928 0.678,-1.485 0.074,-0.554 -0.023,-1.112 -0.273,-1.606 -0.369,0.413 -0.606,0.928 -0.679,1.481 m 2.012,-3.236 c -0.374,-0.414 -0.861,-0.701 -1.399,-0.831 0.076,0.551 0.313,1.066 0.688,1.478 0.378,0.416 0.865,0.705 1.401,0.833 -0.076,-0.55 -0.314,-1.066 -0.69,-1.48"
         style="fill:#be4a1f;fill-opacity:1;fill-rule:nonzero;stroke:none"
         transform="matrix(1.3333333,0,0,-1.3333333,103.20773,960.27027)"
         clip-path="url(#clipPath95)" /><path
         id="path96"
         d="M 0,0 -0.644,0.081 C -0.73,0.092 -9.31,1.159 -15.993,1.16 h -0.004 -0.005 C -22.684,1.159 -31.263,0.092 -31.35,0.081 L -31.994,0 V -11.871 H -32 v -1.657 c 0,-5 0.495,-11.464 4.359,-17.123 0.797,-1.165 1.702,-2.24 2.786,-3.286 l -0.001,-0.001 c 0.008,-0.006 0.014,-0.012 0.022,-0.018 2.096,-2.017 4.867,-3.92 8.829,-6.129 v -0.006 c 0.002,0.003 0.003,0.003 0.004,0.003 0.002,0 0.002,0 0.004,-0.003 v 0.006 c 3.963,2.209 6.733,4.112 8.83,6.129 0.007,0.006 0.014,0.012 0.02,0.018 v 0.001 c 1.084,1.046 1.989,2.121 2.786,3.286 3.864,5.659 4.36,12.123 4.36,17.123 v 0.236 L 0,-13.291 Z m -29.753,-1.23 c 2.7,0.299 8.772,0.904 13.756,0.904 4.983,0 11.054,-0.605 13.755,-0.904 l 0.756,-10.641 h -14.511 -14.512 z m 24.177,-28.59 c -0.75,-1.096 -1.608,-2.114 -2.642,-3.104 -3.191,-2.931 -6.774,-4.55 -7.783,-4.97 -1.009,0.42 -4.591,2.039 -7.783,4.97 -1.034,0.99 -1.892,2.008 -2.641,3.104 -3.624,5.307 -4.1,11.46 -4.103,16.241 l 0.004,0.001 14.527,0.807 14.524,-0.806 c -0.004,-4.782 -0.479,-10.936 -4.103,-16.243"
         style="fill:#be4a1f;fill-opacity:1;fill-rule:nonzero;stroke:none"
         transform="matrix(1.3333333,0,0,-1.3333333,110.76907,930.88013)"
         clip-path="url(#clipPath97)" /><path
         id="path98"
         d="m 0,0 -1.436,-0.046 -0.077,0.535 0.749,0.153 v 4.37 c 0,0.795 -0.367,1.146 -0.978,1.146 -0.459,0 -1.055,-0.336 -1.62,-0.687 L -3.821,5.18 V 0.642 L -2.98,0.489 -3.056,-0.046 -4.508,0 -6.113,-0.046 -6.189,0.489 -5.272,0.642 V 9.994 L -5.822,9.902 -8.924,9.948 V 0.688 L -7.167,0.489 -7.244,-0.046 -9.719,0 l -2.567,-0.046 -0.077,0.535 1.834,0.199 v 9.26 l -2.292,-0.046 -0.703,-1.91 h -0.596 v 2.705 l 4.386,-0.031 3.759,0.031 1.635,0.183 h 0.519 V 5.929 l 2.232,1.452 c 1.956,0 2.276,-0.734 2.276,-2.675 V 0.642 L 1.834,0.489 1.757,-0.046 Z"
         style="fill:#be4a1f;fill-opacity:1;fill-rule:nonzero;stroke:none"
         transform="matrix(1.3333333,0,0,-1.3333333,141.37573,946.724)"
         clip-path="url(#clipPath99)" /><path
         id="path100"
         d="m 0,0 c 0,1.177 -0.229,1.987 -1.406,1.987 -0.932,0 -1.528,-0.871 -1.65,-2.14 z m -3.072,-0.764 c 0,-1.742 0.932,-2.98 2.537,-2.98 0.611,0 1.345,0.291 1.91,0.642 L 1.62,-3.683 c -0.734,-0.504 -1.696,-0.932 -2.674,-1.207 -1.849,0 -3.515,1.314 -3.515,3.714 0,2.261 1.36,3.468 3.453,3.927 2.018,0 2.705,-1.269 2.705,-2.873 v -0.642 z"
         style="fill:#be4a1f;fill-opacity:1;fill-rule:nonzero;stroke:none"
         transform="matrix(1.3333333,0,0,-1.3333333,150.76347,940.55067)"
         clip-path="url(#clipPath101)" /><path
         id="path102"
         d="M 0,0 0.076,0.535 2.033,0.489 3.821,0.535 3.897,0 2.598,-0.198 v -6.235 c 0,-1.987 -0.81,-3.316 -3.851,-4.019 -3.01,0 -4.08,1.619 -4.08,4.049 v 6.205 L -6.708,0 -6.632,0.535 -4.523,0.489 -2.43,0.535 -2.353,0 -3.652,-0.198 v -6.434 c 0,-1.895 0.81,-2.98 2.552,-2.98 1.589,0 2.475,1.07 2.475,3.026 v 6.388 z"
         style="fill:#be4a1f;fill-opacity:1;fill-rule:nonzero;stroke:none"
         transform="matrix(1.3333333,0,0,-1.3333333,166.95853,933.1952)"
         clip-path="url(#clipPath103)" /><path
         id="path104"
         d="m 0,0 -1.757,-0.046 -0.076,0.535 1.069,0.153 V 6.219 L -1.833,6.128 -1.91,6.662 -0.076,7.136 0.581,7.182 0.658,5.899 2.919,7.381 c 1.956,0 2.277,-0.657 2.277,-2.491 V 0.642 L 6.357,0.489 6.281,-0.046 4.524,0 3.056,-0.046 2.98,0.489 3.745,0.642 v 4.37 c 0,0.795 -0.353,1.146 -1.009,1.146 -0.535,0 -1.07,-0.336 -1.589,-0.687 L 0.688,5.165 V 0.642 L 1.529,0.489 1.452,-0.046 Z"
         style="fill:#be4a1f;fill-opacity:1;fill-rule:nonzero;stroke:none"
         transform="matrix(1.3333333,0,0,-1.3333333,174.90147,946.724)"
         clip-path="url(#clipPath105)" /><path
         id="path106"
         d="M 0,0 1.1,0.076 1.529,0 1.605,-0.856 1.437,-1.589 0.351,-1.681 l -0.412,0.092 -0.092,0.856 z m 0.764,-10.513 -1.757,-0.046 -0.076,0.535 L 0,-9.871 v 5.577 l -1.069,-0.092 -0.077,0.535 1.833,0.474 0.765,0.061 v -6.555 l 1.146,-0.153 -0.076,-0.535 z"
         style="fill:#be4a1f;fill-opacity:1;fill-rule:nonzero;stroke:none"
         transform="matrix(1.3333333,0,0,-1.3333333,185.5552,932.70627)"
         clip-path="url(#clipPath107)" /><path
         id="path108"
         d="M 0,0 1.849,5.532 1.146,5.684 1.223,6.219 2.567,6.173 3.836,6.219 3.912,5.684 2.934,5.532 0.428,-0.749 -0.688,-1.207 -3.347,5.532 -4.294,5.684 -4.217,6.219 -2.461,6.173 -0.856,6.219 -0.779,5.684 -1.788,5.532 -0.122,1.054 Z"
         style="fill:#be4a1f;fill-opacity:1;fill-rule:nonzero;stroke:none"
         transform="matrix(1.3333333,0,0,-1.3333333,194.74347,945.4608)"
         clip-path="url(#clipPath109)" /><path
         id="path110"
         d="m 0,0 c 0,1.177 -0.23,1.987 -1.406,1.987 -0.933,0 -1.528,-0.871 -1.65,-2.14 z m -3.072,-0.764 c 0,-1.742 0.932,-2.98 2.536,-2.98 0.612,0 1.346,0.291 1.911,0.642 l 0.244,-0.581 c -0.733,-0.504 -1.696,-0.932 -2.674,-1.207 -1.849,0 -3.515,1.314 -3.515,3.714 0,2.261 1.36,3.468 3.454,3.927 2.017,0 2.705,-1.269 2.705,-2.873 v -0.642 z"
         style="fill:#be4a1f;fill-opacity:1;fill-rule:nonzero;stroke:none"
         transform="matrix(1.3333333,0,0,-1.3333333,206.05013,940.55067)"
         clip-path="url(#clipPath111)" /><path
         id="path112"
         d="M 0,0 1.742,2.14 H 2.964 V 0.611 H 1.833 C 1.467,0.535 0.794,0.031 0.382,-0.474 L 0.076,-0.84 v -3.637 l 1.605,-0.153 -0.077,-0.581 -2.216,0.046 -1.711,-0.046 -0.076,0.535 1.069,0.153 v 5.577 l -1.069,-0.091 -0.077,0.535 1.834,0.473 0.611,0.046 z"
         style="fill:#be4a1f;fill-opacity:1;fill-rule:nonzero;stroke:none"
         transform="matrix(1.3333333,0,0,-1.3333333,212.73067,939.83747)"
         clip-path="url(#clipPath113)" /><path
         id="path114"
         d="m 0,0 c -0.153,0.092 -0.612,0.336 -1.162,0.336 -0.596,0 -1.161,-0.321 -1.161,-0.901 0,-0.489 0.382,-0.795 1.069,-1.146 l 1.178,-0.596 c 1.023,-0.52 1.436,-1.101 1.436,-1.972 0,-1.375 -1.116,-1.895 -2.873,-2.277 -0.932,0 -1.925,0.459 -2.323,0.688 l -0.291,1.727 h 0.979 l 0.519,-1.269 c 0.321,-0.213 0.764,-0.382 1.253,-0.382 0.811,0 1.223,0.52 1.223,1.162 0,0.596 -0.321,0.856 -1.116,1.268 l -1.207,0.627 c -0.657,0.336 -1.284,0.917 -1.284,1.772 0,1.07 0.994,1.666 2.766,2.048 0.826,0 1.712,-0.367 2.155,-0.688 v -1.528 h -0.81 z"
         style="fill:#be4a1f;fill-opacity:1;fill-rule:nonzero;stroke:none"
         transform="matrix(1.3333333,0,0,-1.3333333,223.09933,938.3296)"
         clip-path="url(#clipPath115)" /><path
         id="path116"
         d="M 0,0 1.1,0.076 1.529,0 1.604,-0.856 1.437,-1.589 0.351,-1.681 l -0.412,0.092 -0.092,0.856 z m 0.764,-10.513 -1.757,-0.046 -0.076,0.535 L 0,-9.871 v 5.577 l -1.069,-0.092 -0.077,0.535 1.833,0.474 0.765,0.061 v -6.555 l 1.146,-0.153 -0.076,-0.535 z"
         style="fill:#be4a1f;fill-opacity:1;fill-rule:nonzero;stroke:none"
         transform="matrix(1.3333333,0,0,-1.3333333,227.70213,932.70627)"
         clip-path="url(#clipPath117)" /><path
         id="path118"
         d="M 0,0 V 1.528 H 1.314 L 2.827,3.836 2.216,3.652 -0.351,10.086 H -2.659 V 5.425 c 0,-0.443 0.168,-0.917 0.81,-0.917 0.443,0 0.916,0.214 1.345,0.428 l 0.26,-0.52 -1.926,-1.054 c -1.711,0 -1.941,0.611 -1.941,1.986 v 4.554 h -1.482 v 0.26 l 0.535,0.535 h 0.993 v 0.993 l 0.993,0.993 h 0.398 v -1.91 H 2.139 L 2.216,10.254 1.207,10.101 2.903,5.624 3.026,4.569 4.92,10.101 4.217,10.254 4.294,10.789 5.639,10.743 6.907,10.789 6.984,10.254 6.006,10.101 3.53,3.851 1.819,0 Z"
         style="fill:#be4a1f;fill-opacity:1;fill-rule:nonzero;stroke:none"
         transform="matrix(1.3333333,0,0,-1.3333333,238.82547,951.55307)"
         clip-path="url(#clipPath119)" /><path
         id="path120"
         d="m 0,0 c 1.223,0 1.849,1.253 1.849,2.903 0,1.941 -0.932,3.24 -2.262,3.24 C -1.65,6.143 -2.261,4.89 -2.261,3.224 -2.261,1.482 -1.36,0 0,0 m 3.377,3.224 c 0,-2.277 -1.39,-3.591 -3.759,-3.973 -2.033,0 -3.408,1.574 -3.408,3.652 0,2.293 1.391,3.592 3.759,3.989 2.033,0 3.408,-1.589 3.408,-3.668"
         style="fill:#be4a1f;fill-opacity:1;fill-rule:nonzero;stroke:none"
         transform="matrix(1.3333333,0,0,-1.3333333,257.05627,946.072)"
         clip-path="url(#clipPath121)" /><path
         id="path122"
         d="M 0,0 H 1.911 V -0.718 H 0 v -5.639 l 1.757,-0.107 -0.076,-0.581 -2.369,0.046 -1.757,-0.046 -0.077,0.535 1.07,0.153 v 5.639 h -1.345 v 0.26 l 0.459,0.534 h 0.886 v 0.153 c 0,0.917 0.291,1.513 0.841,2.14 L 0.672,3.82 H 2.597 V 2.598 H 0.611 L 0.321,2.185 C 0.107,1.895 0,1.452 0,0.458 Z"
         style="fill:#be4a1f;fill-opacity:1;fill-rule:nonzero;stroke:none"
         transform="matrix(1.3333333,0,0,-1.3333333,266.1416,937.39213)"
         clip-path="url(#clipPath123)" /><path
         id="path124"
         d="M 0,0 -2.475,0.046 -5.042,0 -5.119,0.535 -3.285,0.734 v 9.26 L -5.577,9.964 -6.28,8.023 h -0.596 v 2.704 l 4.386,-0.045 4.401,0.045 V 8.023 H 1.315 L 0.612,9.964 -1.681,9.994 V 0.734 L 0.076,0.535 Z"
         style="fill:#be4a1f;fill-opacity:1;fill-rule:nonzero;stroke:none"
         transform="matrix(1.3333333,0,0,-1.3333333,284.27147,946.7852)"
         clip-path="url(#clipPath125)" /><path
         id="path126"
         d="m 0,0 c 0,1.177 -0.229,1.987 -1.406,1.987 -0.932,0 -1.527,-0.871 -1.65,-2.14 z m -3.072,-0.764 c 0,-1.742 0.933,-2.98 2.537,-2.98 0.611,0 1.345,0.291 1.911,0.642 L 1.62,-3.683 c -0.733,-0.504 -1.696,-0.932 -2.674,-1.207 -1.849,0 -3.515,1.314 -3.515,3.714 0,2.261 1.36,3.468 3.454,3.927 2.017,0 2.704,-1.269 2.704,-2.873 v -0.642 z"
         style="fill:#be4a1f;fill-opacity:1;fill-rule:nonzero;stroke:none"
         transform="matrix(1.3333333,0,0,-1.3333333,291.99187,940.55067)"
         clip-path="url(#clipPath127)" /><path
         id="path128"
         d="M 0,0 -0.077,-0.535 -1.269,-0.489 -2.842,-0.535 -2.919,0 -1.849,0.153 0.413,2.934 -1.804,5.975 -2.752,6.128 -2.674,6.678 -0.917,6.632 0.535,6.678 0.61,6.128 0.015,5.975 1.146,4.279 1.268,3.881 2.719,5.975 1.971,6.128 2.047,6.678 3.239,6.632 4.813,6.678 4.89,6.128 3.79,5.975 1.772,3.53 4.172,0.153 5.119,0 5.043,-0.535 3.285,-0.489 1.833,-0.535 1.757,0 2.383,0.153 1.024,2.124 0.901,2.476 -0.719,0.153 Z"
         style="fill:#be4a1f;fill-opacity:1;fill-rule:nonzero;stroke:none"
         transform="matrix(1.3333333,0,0,-1.3333333,298.75493,946.072)"
         clip-path="url(#clipPath129)" /><path
         id="path130"
         d="m 0,0 -2.216,-0.917 c -0.229,-0.229 -0.306,-0.535 -0.306,-0.855 0,-0.78 0.443,-1.055 0.886,-1.055 0.428,0 0.796,0.26 0.994,0.397 L 0,-1.986 Z m -0.963,3.744 c 1.925,0 2.414,-0.489 2.414,-2.43 v -2.995 c 0,-0.657 0.107,-0.901 0.26,-1.146 h 0.764 l 0.061,-0.535 -1.971,-0.382 -0.473,1.177 -1.819,-1.33 c -1.314,0 -2.247,0.734 -2.247,1.956 0,0.55 0.2,0.948 0.536,1.406 L 0,0.611 v 0.765 c 0,0.916 -0.076,1.467 -0.902,1.467 -0.413,0 -0.917,-0.138 -1.253,-0.276 L -2.415,1.36 h -1.314 v 1.161 z"
         style="fill:#be4a1f;fill-opacity:1;fill-rule:nonzero;stroke:none"
         transform="matrix(1.3333333,0,0,-1.3333333,311.5884,941.87507)"
         clip-path="url(#clipPath131)" /><path
         id="path132"
         d="m 0,0 c -0.154,0.092 -0.612,0.336 -1.162,0.336 -0.596,0 -1.161,-0.321 -1.161,-0.901 0,-0.489 0.382,-0.795 1.069,-1.146 l 1.178,-0.596 c 1.023,-0.52 1.436,-1.101 1.436,-1.972 0,-1.375 -1.116,-1.895 -2.873,-2.277 -0.932,0 -1.925,0.459 -2.323,0.688 l -0.291,1.727 h 0.979 l 0.519,-1.269 c 0.321,-0.213 0.764,-0.382 1.253,-0.382 0.81,0 1.222,0.52 1.222,1.162 0,0.596 -0.32,0.856 -1.115,1.268 l -1.207,0.627 c -0.657,0.336 -1.284,0.917 -1.284,1.772 0,1.07 0.994,1.666 2.766,2.048 0.825,0 1.712,-0.367 2.155,-0.688 v -1.528 h -0.81 z"
         style="fill:#be4a1f;fill-opacity:1;fill-rule:nonzero;stroke:none"
         transform="matrix(1.3333333,0,0,-1.3333333,321.28493,938.3296)"
         clip-path="url(#clipPath133)" /><path
         id="path134"
         d="m 0,0 -2.216,-0.917 c -0.229,-0.229 -0.305,-0.535 -0.305,-0.855 0,-0.78 0.443,-1.055 0.886,-1.055 0.428,0 0.795,0.26 0.993,0.397 L 0,-1.986 Z m -0.963,3.744 c 1.926,0 2.415,-0.489 2.415,-2.43 v -2.995 c 0,-0.657 0.107,-0.901 0.26,-1.146 h 0.764 l 0.061,-0.535 -1.971,-0.382 -0.474,1.177 -1.818,-1.33 c -1.315,0 -2.247,0.734 -2.247,1.956 0,0.55 0.199,0.948 0.535,1.406 L 0,0.611 v 0.765 c 0,0.916 -0.076,1.467 -0.901,1.467 -0.413,0 -0.917,-0.138 -1.253,-0.276 L -2.414,1.36 h -1.315 v 1.161 z"
         style="fill:#be4a1f;fill-opacity:1;fill-rule:nonzero;stroke:none"
         transform="matrix(1.3333333,0,0,-1.3333333,334.64707,941.87507)"
         clip-path="url(#clipPath135)" /><path
         id="path136"
         d="M 0,0 V 0.26 L 0.535,0.794 H 1.528 V 1.788 L 2.521,2.781 H 2.918 V 0.688 H 5.226 V 0 H 2.933 v -4.477 c 0,-0.444 0.169,-0.917 0.81,-0.917 0.444,0 0.78,0.153 1.208,0.366 l 0.26,-0.519 -1.788,-0.994 c -1.712,0 -1.941,0.612 -1.941,1.987 V 0 Z"
         style="fill:#be4a1f;fill-opacity:1;fill-rule:nonzero;stroke:none"
         transform="matrix(1.3333333,0,0,-1.3333333,337.92667,938.35)"
         clip-path="url(#clipPath137)" /><path
         id="path138"
         d="m 0,0 -0.107,0.825 -1.681,-4.859 h 3.255 z m -2.032,-4.752 -0.993,-2.858 1.329,-0.199 -0.076,-0.535 -1.834,0.046 -1.635,-0.046 -0.077,0.535 1.192,0.168 3.79,9.902 0.917,0.26 L 4.569,-7.641 5.761,-7.809 5.685,-8.344 3.576,-8.298 1.559,-8.344 1.483,-7.809 2.781,-7.61 1.742,-4.752 Z"
         style="fill:#be4a1f;fill-opacity:1;fill-rule:nonzero;stroke:none"
         transform="matrix(1.3333333,0,0,-1.3333333,356.1992,935.6604)"
         clip-path="url(#clipPath139)" /><path
         id="path140"
         d="m 0,0 c 0,-0.657 0.076,-0.901 0.183,-1.146 h 0.764 l 0.061,-0.535 -1.971,-0.382 -0.428,1.238 -2.215,-1.391 c -2.018,0 -2.354,0.718 -2.354,2.491 V 4.263 L -7.029,4.187 -7.106,4.783 -5.272,5.18 -4.509,5.241 V 0.153 c 0,-0.795 0.337,-1.146 1.086,-1.146 0.474,0 1.085,0.382 1.665,0.764 l 0.306,0.198 V 4.263 L -2.369,4.187 -2.445,4.783 -0.764,5.18 0,5.241 Z"
         style="fill:#be4a1f;fill-opacity:1;fill-rule:nonzero;stroke:none"
         transform="matrix(1.3333333,0,0,-1.3333333,372.53747,944.11613)"
         clip-path="url(#clipPath141)" /><path
         id="path142"
         d="m 0,0 c -0.153,0.092 -0.611,0.336 -1.161,0.336 -0.597,0 -1.162,-0.321 -1.162,-0.901 0,-0.489 0.383,-0.795 1.07,-1.146 l 1.177,-0.596 c 1.023,-0.52 1.436,-1.101 1.436,-1.972 0,-1.375 -1.116,-1.895 -2.873,-2.277 -0.932,0 -1.925,0.459 -2.323,0.688 l -0.29,1.727 h 0.978 l 0.519,-1.269 c 0.321,-0.213 0.764,-0.382 1.253,-0.382 0.811,0 1.223,0.52 1.223,1.162 0,0.596 -0.321,0.856 -1.116,1.268 l -1.207,0.627 c -0.657,0.336 -1.283,0.917 -1.283,1.772 0,1.07 0.993,1.666 2.766,2.048 0.825,0 1.711,-0.367 2.154,-0.688 v -1.528 h -0.81 z"
         style="fill:#be4a1f;fill-opacity:1;fill-rule:nonzero;stroke:none"
         transform="matrix(1.3333333,0,0,-1.3333333,380.2976,938.3296)"
         clip-path="url(#clipPath143)" /><path
         id="path144"
         d="M 0,0 V 0.26 L 0.535,0.794 H 1.529 V 1.788 L 2.522,2.781 H 2.919 V 0.688 H 5.226 V 0 H 2.934 v -4.477 c 0,-0.444 0.168,-0.917 0.81,-0.917 0.443,0 0.779,0.153 1.208,0.366 L 5.211,-5.547 3.423,-6.541 c -1.712,0 -1.94,0.612 -1.94,1.987 V 0 Z"
         style="fill:#be4a1f;fill-opacity:1;fill-rule:nonzero;stroke:none"
         transform="matrix(1.3333333,0,0,-1.3333333,382.76147,938.35)"
         clip-path="url(#clipPath145)" /><path
         id="path146"
         d="M 0,0 1.1,0.076 1.528,0 1.604,-0.856 1.436,-1.589 0.351,-1.681 l -0.412,0.092 -0.092,0.856 z m 0.764,-10.513 -1.757,-0.046 -0.076,0.535 L 0,-9.871 v 5.577 l -1.069,-0.092 -0.078,0.535 1.835,0.474 0.763,0.061 v -6.555 l 1.146,-0.153 -0.075,-0.535 z"
         style="fill:#be4a1f;fill-opacity:1;fill-rule:nonzero;stroke:none"
         transform="matrix(1.3333333,0,0,-1.3333333,392.31533,932.70627)"
         clip-path="url(#clipPath147)" /><path
         id="path148"
         d="m 0,0 -1.758,-0.046 -0.076,0.535 1.07,0.153 v 5.577 l -1.07,-0.091 -0.077,0.534 1.835,0.474 0.657,0.046 0.076,-1.283 2.261,1.482 c 1.956,0 2.277,-0.657 2.277,-2.491 V 0.642 L 6.356,0.489 6.28,-0.046 4.523,0 3.056,-0.046 2.98,0.489 3.744,0.642 v 4.37 c 0,0.795 -0.352,1.146 -1.009,1.146 -0.534,0 -1.07,-0.336 -1.589,-0.687 L 0.687,5.165 V 0.642 L 1.528,0.489 1.451,-0.046 Z"
         style="fill:#be4a1f;fill-opacity:1;fill-rule:nonzero;stroke:none"
         transform="matrix(1.3333333,0,0,-1.3333333,399.13947,946.724)"
         clip-path="url(#clipPath149)" /><path
         id="path150"
         d="m 0,0 -0.596,-3.3 c -1.237,-0.596 -3.643,-1.512 -5.569,-1.787 -4.262,0 -8.25,2.887 -8.25,8.226 0,5.34 3.552,7.952 8.663,8.64 2.383,0 4.492,-1.077 5.477,-1.788 V 6.898 h -1.261 l -0.733,2.131 c -0.618,0.664 -1.925,1.558 -3.804,1.558 -3.391,0 -5.706,-2.406 -5.706,-6.897 0,-3.713 2.269,-7.517 6.279,-7.517 1.375,0 2.383,0.756 3.002,1.284 L -1.26,0 Z"
         style="fill:#2f3944;fill-opacity:1;fill-rule:nonzero;stroke:none"
         transform="matrix(1.3333333,0,0,-1.3333333,141.95173,970.85347)"
         clip-path="url(#clipPath151)" /><path
         id="path152"
         d="m 0,0 c 0,1.765 -0.344,2.979 -2.108,2.979 -1.398,0 -2.292,-1.306 -2.475,-3.208 z m -4.606,-1.145 c 0,-2.613 1.398,-4.469 3.804,-4.469 0.917,0 2.016,0.435 2.865,0.962 l 0.366,-0.871 c -1.1,-0.756 -2.544,-1.398 -4.01,-1.81 -2.773,0 -5.271,1.971 -5.271,5.569 0,3.391 2.04,5.202 5.179,5.889 3.025,0 4.056,-1.902 4.056,-4.308 v -0.962 z"
         style="fill:#2f3944;fill-opacity:1;fill-rule:nonzero;stroke:none"
         transform="matrix(1.3333333,0,0,-1.3333333,153.22667,967.7676)"
         clip-path="url(#clipPath153)" /><path
         id="path154"
         d="m 0,0 -2.635,-0.069 -0.115,0.802 1.604,0.229 v 8.365 l -1.604,-0.138 -0.115,0.802 2.75,0.711 0.986,0.069 0.114,-1.925 3.392,2.222 c 2.933,0 3.415,-0.985 3.415,-3.735 V 0.962 L 9.533,0.733 9.418,-0.069 6.783,0 4.583,-0.069 4.469,0.733 5.614,0.962 V 7.516 C 5.614,8.708 5.087,9.235 4.102,9.235 3.3,9.235 2.498,8.731 1.719,8.204 L 1.031,7.746 V 0.962 L 2.292,0.733 2.177,-0.069 Z"
         style="fill:#2f3944;fill-opacity:1;fill-rule:nonzero;stroke:none"
         transform="matrix(1.3333333,0,0,-1.3333333,161.8132,977.02533)"
         clip-path="url(#clipPath155)" /><path
         id="path156"
         d="m 0,0 v 0.389 l 0.802,0.802 h 1.49 v 1.49 L 3.781,4.17 H 4.377 V 1.031 H 7.838 V 0 H 4.4 v -6.714 c 0,-0.665 0.252,-1.376 1.215,-1.376 0.664,0 1.168,0.23 1.81,0.551 l 0.389,-0.78 -2.681,-1.489 c -2.566,0 -2.91,0.916 -2.91,2.979 V 0 Z"
         style="fill:#2f3944;fill-opacity:1;fill-rule:nonzero;stroke:none"
         transform="matrix(1.3333333,0,0,-1.3333333,174.43293,964.46733)"
         clip-path="url(#clipPath157)" /><path
         id="path158"
         d="m 0,0 c 0,1.765 -0.343,2.979 -2.108,2.979 -1.398,0 -2.291,-1.306 -2.475,-3.208 z m -4.606,-1.145 c 0,-2.613 1.398,-4.469 3.805,-4.469 0.916,0 2.016,0.435 2.864,0.962 l 0.366,-0.871 c -1.099,-0.756 -2.543,-1.398 -4.01,-1.81 -2.772,0 -5.27,1.971 -5.27,5.569 0,3.391 2.039,5.202 5.178,5.889 3.025,0 4.057,-1.902 4.057,-4.308 v -0.962 z"
         style="fill:#2f3944;fill-opacity:1;fill-rule:nonzero;stroke:none"
         transform="matrix(1.3333333,0,0,-1.3333333,194.446,967.7676)"
         clip-path="url(#clipPath159)" /><path
         id="path160"
         d="M 0,0 2.613,3.208 H 4.446 V 0.916 H 2.75 C 2.2,0.802 1.192,0.046 0.573,-0.71 L 0.115,-1.26 v -5.454 l 2.406,-0.23 -0.115,-0.87 -3.323,0.068 -2.566,-0.068 -0.115,0.802 1.605,0.229 v 8.364 l -1.605,-0.137 -0.114,0.802 2.75,0.71 0.916,0.069 z"
         style="fill:#2f3944;fill-opacity:1;fill-rule:nonzero;stroke:none"
         transform="matrix(1.3333333,0,0,-1.3333333,204.1628,966.69787)"
         clip-path="url(#clipPath161)" /><path
         id="path162"
         d="M 0,0 H 2.865 V -1.077 H 0 v -8.456 l 2.635,-0.16 -0.114,-0.871 -3.552,0.069 -2.635,-0.069 -0.115,0.802 1.604,0.229 v 8.456 h -2.016 v 0.39 l 0.687,0.801 h 1.329 v 0.23 c 0,1.375 0.436,2.269 1.26,3.208 L 1.008,5.729 H 3.896 V 3.896 H 0.917 L 0.481,3.277 C 0.16,2.842 0,2.177 0,0.687 Z"
         style="fill:#2f3944;fill-opacity:1;fill-rule:nonzero;stroke:none"
         transform="matrix(1.3333333,0,0,-1.3333333,224.23707,963.0316)"
         clip-path="url(#clipPath163)" /><path
         id="path164"
         d="m 0,0 c 1.833,0 2.772,1.879 2.772,4.354 0,2.911 -1.398,4.858 -3.392,4.858 -1.855,0 -2.772,-1.879 -2.772,-4.377 C -3.392,2.223 -2.04,0 0,0 m 5.064,4.835 c 0,-3.414 -2.086,-5.385 -5.637,-5.958 -3.048,0 -5.11,2.361 -5.11,5.477 0,3.438 2.085,5.385 5.636,5.981 3.048,0 5.111,-2.383 5.111,-5.5"
         style="fill:#2f3944;fill-opacity:1;fill-rule:nonzero;stroke:none"
         transform="matrix(1.3333333,0,0,-1.3333333,236.79653,976.0476)"
         clip-path="url(#clipPath165)" /><path
         id="path166"
         d="M 0,0 2.613,3.208 H 4.446 V 0.916 H 2.75 C 2.2,0.802 1.192,0.046 0.573,-0.71 L 0.115,-1.26 v -5.454 l 2.406,-0.23 -0.115,-0.87 -3.322,0.068 -2.567,-0.068 -0.115,0.802 1.604,0.229 v 8.364 l -1.604,-0.137 -0.115,0.802 2.75,0.71 0.917,0.069 z"
         style="fill:#2f3944;fill-opacity:1;fill-rule:nonzero;stroke:none"
         transform="matrix(1.3333333,0,0,-1.3333333,250.02627,966.69787)"
         clip-path="url(#clipPath167)" /><path
         id="path168"
         d="M 0,0 2.543,-0.069 4.674,0 4.789,-0.802 2.842,-1.1 v -13.887 l 1.832,-0.298 -0.114,-0.802 -2.75,0.069 -3.323,-0.069 -0.114,0.802 2.062,0.298 v 10.473 l 0.298,2.681 -5.798,-14.231 h -1.421 l -4.606,11.572 -0.848,2.659 v -13.154 l 2.017,-0.298 -0.183,-0.802 -2.453,0.069 -2.588,-0.069 -0.116,0.802 1.834,0.298 v 13.841 l -1.948,0.344 0.114,0.802 2.361,-0.069 2.521,0.069 4.812,-12.123 0.184,-1.283 z"
         style="fill:#2f3944;fill-opacity:1;fill-rule:nonzero;stroke:none"
         transform="matrix(1.3333333,0,0,-1.3333333,285.16467,955.6676)"
         clip-path="url(#clipPath169)" /><path
         id="path170"
         d="m 0,0 c 0,1.765 -0.343,2.979 -2.108,2.979 -1.398,0 -2.292,-1.306 -2.475,-3.208 z m -4.606,-1.145 c 0,-2.613 1.398,-4.469 3.804,-4.469 0.917,0 2.017,0.435 2.865,0.962 l 0.366,-0.871 c -1.1,-0.756 -2.544,-1.398 -4.01,-1.81 -2.772,0 -5.271,1.971 -5.271,5.569 0,3.391 2.039,5.202 5.179,5.889 3.025,0 4.056,-1.902 4.056,-4.308 v -0.962 z"
         style="fill:#2f3944;fill-opacity:1;fill-rule:nonzero;stroke:none"
         transform="matrix(1.3333333,0,0,-1.3333333,301.90933,967.7676)"
         clip-path="url(#clipPath171)" /><path
         id="path172"
         d="m 0,0 0.687,0.55 v 6.073 c -0.504,0.573 -1.306,0.916 -2.269,0.916 -1.833,0 -3.001,-1.672 -3.001,-4.376 0,-2.544 1.007,-4.103 2.383,-4.103 0.618,0 1.397,0.298 2.2,0.94 m 2.864,0.55 c 0,-0.917 0.16,-1.329 0.389,-1.673 h 1.284 l 0.091,-0.848 -3.07,-0.572 -0.711,1.764 -2.956,-1.994 c -2.91,0 -4.766,2.177 -4.766,5.34 0,3.712 2.269,5.66 5.615,6.118 0.457,0 1.42,-0.366 1.947,-0.619 v 4.332 l -1.604,-0.046 -0.115,0.779 2.75,0.711 1.146,0.091 z"
         style="fill:#2f3944;fill-opacity:1;fill-rule:nonzero;stroke:none"
         transform="matrix(1.3333333,0,0,-1.3333333,316.30227,973.848)"
         clip-path="url(#clipPath173)" /><path
         id="path174"
         d="M 0,0 1.65,0.115 2.292,0 2.406,-1.283 2.154,-2.383 0.527,-2.521 -0.092,-2.383 -0.229,-1.1 Z m 1.146,-15.766 -2.636,-0.069 -0.114,0.802 1.604,0.229 v 8.365 l -1.604,-0.138 -0.115,0.802 2.75,0.711 1.146,0.091 v -9.831 l 1.719,-0.229 -0.115,-0.802 z"
         style="fill:#2f3944;fill-opacity:1;fill-rule:nonzero;stroke:none"
         transform="matrix(1.3333333,0,0,-1.3333333,326.29307,956.00373)"
         clip-path="url(#clipPath175)" /><path
         id="path176"
         d="m 0,0 -3.323,-1.375 c -0.344,-0.344 -0.458,-0.802 -0.458,-1.283 0,-1.169 0.664,-1.581 1.329,-1.581 0.642,0 1.192,0.389 1.489,0.595 L 0,-2.979 Z m -1.444,5.614 c 2.888,0 3.621,-0.733 3.621,-3.643 v -4.492 c 0,-0.985 0.161,-1.352 0.39,-1.718 H 3.713 L 3.804,-5.041 0.848,-5.614 0.137,-3.85 -2.59,-5.844 c -1.97,0 -3.368,1.1 -3.368,2.934 0,0.825 0.298,1.421 0.802,2.108 L 0,0.917 v 1.145 c 0,1.376 -0.115,2.2 -1.352,2.2 -0.619,0 -1.375,-0.206 -1.879,-0.412 l -0.39,-1.81 h -1.971 v 1.741 z"
         style="fill:#2f3944;fill-opacity:1;fill-rule:nonzero;stroke:none"
         transform="matrix(1.3333333,0,0,-1.3333333,340.95987,969.75347)"
         clip-path="url(#clipPath177)" /><path
         id="path178"
         d="m 0,0 0.23,-4.125 h -0.779 l -1.284,2.979 -6.073,0.069 v -6.096 l 3.209,0.092 0.916,2.406 h 0.802 l -0.229,-2.864 0.229,-3.094 h -0.802 l -0.916,2.406 -3.209,0.092 v -6.875 l 6.303,0.068 1.534,3.094 H 0.803 L 0,-16.087 l -9.097,0.069 -3.163,-0.069 -0.114,0.802 2.062,0.298 V -1.1 l -2.062,0.298 0.114,0.802 3.163,-0.069 z"
         style="fill:#2f3944;fill-opacity:1;fill-rule:nonzero;stroke:none"
         transform="matrix(1.3333333,0,0,-1.3333333,370.93427,955.6676)"
         clip-path="url(#clipPath179)" /><path
         id="path180"
         d="m 0,0 -2.635,-0.069 -0.115,0.802 1.604,0.229 v 8.365 l -1.604,-0.138 -0.115,0.802 2.75,0.711 0.985,0.069 0.115,-1.925 3.391,2.222 c 2.934,0 3.415,-0.985 3.415,-3.735 V 0.962 L 9.533,0.733 9.418,-0.069 6.783,0 4.583,-0.069 4.468,0.733 5.614,0.962 V 7.516 C 5.614,8.708 5.087,9.235 4.101,9.235 3.3,9.235 2.497,8.731 1.719,8.204 L 1.03,7.746 V 0.962 L 2.292,0.733 2.176,-0.069 Z"
         style="fill:#2f3944;fill-opacity:1;fill-rule:nonzero;stroke:none"
         transform="matrix(1.3333333,0,0,-1.3333333,377.04653,977.02533)"
         clip-path="url(#clipPath181)" /><path
         id="path182"
         d="m 0,0 c -1.238,0 -1.948,-0.962 -1.948,-2.429 0,-1.1 0.481,-2.887 2.36,-2.887 1.238,0 1.948,0.847 1.948,2.176 C 2.36,-1.948 1.878,0 0,0 m -1.49,-10.404 c -1.168,-1.283 -1.26,-1.696 -1.26,-2.016 0,-1.078 1.237,-1.902 3.117,-1.902 1.879,0 3.482,1.214 3.482,2.749 0,0.825 -0.619,1.169 -2.176,1.169 z m 5.317,10.06 1.237,1.398 H 6.44 V -0.802 H 5.064 L 4.308,-1.169 c 0.138,-0.344 0.229,-0.71 0.229,-1.1 0,-1.947 -1.352,-3.323 -4.468,-4.125 -0.321,0 -0.619,0 -0.894,0.046 l -1.238,-1.42 c 0,-0.482 0.344,-0.803 0.894,-0.803 h 4.193 c 2.086,0 3.003,-0.962 3.003,-2.36 0,-1.879 -2.384,-3.712 -5.844,-4.744 -3.323,0 -4.996,1.032 -4.996,3.163 v 0.39 l 2.498,1.924 c -1.604,0.596 -1.718,1.33 -1.718,2.384 v 0.137 l 2.291,1.581 c -1.443,0.504 -2.383,1.604 -2.383,3.025 0,1.948 1.329,3.323 4.469,4.125 1.489,0 2.75,-0.527 3.483,-1.398"
         style="fill:#2f3944;fill-opacity:1;fill-rule:nonzero;stroke:none"
         transform="matrix(1.3333333,0,0,-1.3333333,396.5412,963.67307)"
         clip-path="url(#clipPath183)" /><path
         id="path184"
         d="m 0,0 -3.323,-1.375 c -0.344,-0.344 -0.458,-0.802 -0.458,-1.283 0,-1.169 0.664,-1.581 1.329,-1.581 0.642,0 1.192,0.389 1.489,0.595 L 0,-2.979 Z m -1.444,5.614 c 2.888,0 3.621,-0.733 3.621,-3.643 v -4.492 c 0,-0.985 0.161,-1.352 0.39,-1.718 H 3.713 L 3.804,-5.041 0.848,-5.614 0.137,-3.85 -2.59,-5.844 c -1.97,0 -3.368,1.1 -3.368,2.934 0,0.825 0.298,1.421 0.802,2.108 L 0,0.917 v 1.145 c 0,1.376 -0.115,2.2 -1.352,2.2 -0.619,0 -1.375,-0.206 -1.879,-0.412 l -0.39,-1.81 h -1.971 v 1.741 z"
         style="fill:#2f3944;fill-opacity:1;fill-rule:nonzero;stroke:none"
         transform="matrix(1.3333333,0,0,-1.3333333,414.1404,969.75347)"
         clip-path="url(#clipPath185)" /><path
         id="path186"
         d="m 0,0 c -1.237,0 -1.948,-0.962 -1.948,-2.429 0,-1.1 0.482,-2.887 2.361,-2.887 1.237,0 1.947,0.847 1.947,2.176 C 2.36,-1.948 1.879,0 0,0 m -1.49,-10.404 c -1.168,-1.283 -1.26,-1.696 -1.26,-2.016 0,-1.078 1.237,-1.902 3.117,-1.902 1.879,0 3.483,1.214 3.483,2.749 0,0.825 -0.619,1.169 -2.177,1.169 z m 5.317,10.06 1.238,1.398 H 6.44 V -0.802 H 5.065 L 4.308,-1.169 c 0.138,-0.344 0.23,-0.71 0.23,-1.1 0,-1.947 -1.353,-3.323 -4.469,-4.125 -0.321,0 -0.619,0 -0.894,0.046 l -1.238,-1.42 c 0,-0.482 0.344,-0.803 0.894,-0.803 h 4.194 c 2.086,0 3.002,-0.962 3.002,-2.36 0,-1.879 -2.383,-3.712 -5.844,-4.744 -3.322,0 -4.995,1.032 -4.995,3.163 v 0.39 l 2.497,1.924 c -1.603,0.596 -1.718,1.33 -1.718,2.384 v 0.137 l 2.291,1.581 c -1.443,0.504 -2.382,1.604 -2.382,3.025 0,1.948 1.328,3.323 4.468,4.125 1.489,0 2.75,-0.527 3.483,-1.398"
         style="fill:#2f3944;fill-opacity:1;fill-rule:nonzero;stroke:none"
         transform="matrix(1.3333333,0,0,-1.3333333,426.39333,963.67307)"
         clip-path="url(#clipPath187)" /><path
         id="path188"
         d="m 0,0 c 0,1.765 -0.344,2.979 -2.108,2.979 -1.398,0 -2.292,-1.306 -2.475,-3.208 z m -4.606,-1.145 c 0,-2.613 1.398,-4.469 3.804,-4.469 0.917,0 2.017,0.435 2.865,0.962 l 0.366,-0.871 c -1.1,-0.756 -2.544,-1.398 -4.01,-1.81 -2.773,0 -5.271,1.971 -5.271,5.569 0,3.391 2.039,5.202 5.179,5.889 3.025,0 4.056,-1.902 4.056,-4.308 v -0.962 z"
         style="fill:#2f3944;fill-opacity:1;fill-rule:nonzero;stroke:none"
         transform="matrix(1.3333333,0,0,-1.3333333,444.87973,967.7676)"
         clip-path="url(#clipPath189)" /><path
         id="path190"
         d="m 0,0 -2.176,-0.069 -0.116,0.802 1.146,0.229 v 6.554 c 0,1.192 -0.503,1.719 -1.329,1.719 -0.687,0 -1.535,-0.458 -2.338,-1.031 L -5.5,7.723 V 0.962 L -4.468,0.733 -4.583,-0.069 -6.531,0 -8.593,-0.069 -8.708,0.733 -7.676,0.962 v 6.554 c 0,1.192 -0.505,1.719 -1.33,1.719 -0.687,0 -1.535,-0.458 -2.337,-1.031 L -12.031,7.723 V 0.962 l 1.146,-0.229 -0.114,-0.802 -2.063,0.069 -2.635,-0.069 -0.115,0.802 1.604,0.229 v 8.365 l -1.604,-0.138 -0.115,0.802 2.75,0.711 0.986,0.069 0.114,-1.903 3.163,2.2 c 2.222,0 3.047,-0.664 3.3,-2.245 l 3.231,2.245 c 2.933,0 3.414,-1.1 3.414,-4.01 V 0.962 L 2.75,0.733 2.635,-0.069 Z"
         style="fill:#2f3944;fill-opacity:1;fill-rule:nonzero;stroke:none"
         transform="matrix(1.3333333,0,0,-1.3333333,470.88187,977.02533)"
         clip-path="url(#clipPath191)" /><path
         id="path192"
         d="m 0,0 c 0,1.765 -0.344,2.979 -2.108,2.979 -1.398,0 -2.292,-1.306 -2.475,-3.208 z m -4.606,-1.145 c 0,-2.613 1.398,-4.469 3.804,-4.469 0.917,0 2.017,0.435 2.865,0.962 l 0.366,-0.871 c -1.1,-0.756 -2.544,-1.398 -4.01,-1.81 -2.773,0 -5.271,1.971 -5.271,5.569 0,3.391 2.039,5.202 5.179,5.889 3.025,0 4.056,-1.902 4.056,-4.308 v -0.962 z"
         style="fill:#2f3944;fill-opacity:1;fill-rule:nonzero;stroke:none"
         transform="matrix(1.3333333,0,0,-1.3333333,484.6636,967.7676)"
         clip-path="url(#clipPath193)" /><path
         id="path194"
         d="m 0,0 -2.635,-0.069 -0.115,0.802 1.604,0.229 v 8.365 l -1.604,-0.138 -0.115,0.802 2.75,0.711 0.986,0.069 0.114,-1.925 3.392,2.222 c 2.933,0 3.415,-0.985 3.415,-3.735 V 0.962 L 9.533,0.733 9.419,-0.069 6.783,0 4.583,-0.069 4.469,0.733 5.615,0.962 V 7.516 C 5.615,8.708 5.088,9.235 4.102,9.235 3.3,9.235 2.498,8.731 1.719,8.204 L 1.031,7.746 V 0.962 L 2.292,0.733 2.177,-0.069 Z"
         style="fill:#2f3944;fill-opacity:1;fill-rule:nonzero;stroke:none"
         transform="matrix(1.3333333,0,0,-1.3333333,493.24987,977.02533)"
         clip-path="url(#clipPath195)" /><path
         id="path196"
         d="m 0,0 v 0.389 l 0.802,0.802 h 1.49 v 1.49 L 3.781,4.17 H 4.377 V 1.031 H 7.838 V 0 H 4.4 v -6.714 c 0,-0.665 0.252,-1.376 1.214,-1.376 0.665,0 1.169,0.23 1.81,0.551 l 0.39,-0.78 -2.681,-1.489 c -2.566,0 -2.91,0.916 -2.91,2.979 V 0 Z"
         style="fill:#2f3944;fill-opacity:1;fill-rule:nonzero;stroke:none"
         transform="matrix(1.3333333,0,0,-1.3333333,505.86947,964.46733)"
         clip-path="url(#clipPath197)" /></g></g></svg>
