<?xml version="1.0" encoding="UTF-8"?>
<svg width="532px" height="528px" viewBox="0 0 532 528" version="1.1" xmlns="http://www.w3.org/2000/svg" xmlns:xlink="http://www.w3.org/1999/xlink">
    <title>ALL CIRCLES</title>
    <defs>
        <rect id="path-1" x="0" y="0" width="531" height="465"></rect>
        <path d="M353.5,462 C546.799662,462 703.5,305.299662 703.5,112 C703.5,-81.2996624 546.799662,-238 353.5,-238 C160.200338,-238 3.5,-81.2996624 3.5,112 C3.5,305.299662 160.200338,462 353.5,462 Z" id="path-3"></path>
        <mask id="mask-4" maskContentUnits="userSpaceOnUse" maskUnits="objectBoundingBox" x="0" y="0" width="700" height="700" fill="white">
            <use xlink:href="#path-3"></use>
        </mask>
    </defs>
    <g id="ALL-CIRCLES" stroke="none" stroke-width="1" fill="none" fill-rule="evenodd">
        <g id="Oval-Copy" transform="translate(0, 63)">
            <mask id="mask-2" fill="white">
                <use xlink:href="#path-1"></use>
            </mask>
            <g id="Mask"></g>
            <g id="Oval" stroke-dasharray="7,7" mask="url(#mask-2)" stroke="#00598D" stroke-width="3">
                <use mask="url(#mask-4)" xlink:href="#path-3"></use>
            </g>
        </g>
        <g id="Group" transform="translate(29, 0)" fill-rule="nonzero">
            <path d="M324,463.090578 C324,475.529667 324,487.968695 324,499.859033 C315.20064,499.859033 306.85618,500.241331 298.56362,499.746786 C290.94206,499.292255 283.302593,498.278377 275.801982,496.828726 C261.49686,494.063902 246.939642,491.902704 233.120621,487.492482 C215.272264,481.796382 197.607438,475.074953 180.665816,467.083056 C161.433741,458.01065 143.104092,446.997398 126.707346,433.17876 C114.932601,423.255365 102.549259,413.886902 91.853325,402.8851 C73.3943658,383.898314 57.586854,362.711623 44.1983394,339.706414 C31.8664346,318.516678 21.1224554,296.629737 14.6761691,272.946752 C10.2907994,256.8353 6.32750512,240.483427 3.94653816,223.981821 C1.44259615,206.627947 -0.00494893244,188.967327 0,171.441488 C0.00993835803,150.186615 2.68037853,129.072492 7.32920226,108.176058 C13.622724,79.886798 23.2629592,52.9247183 36.5299408,27.2545836 C40.7826237,19.0260943 45.6213462,11.0871372 50.5294886,3.2279201 C50.9526358,2.55034899 52.6763128,0 52.6763128,0 C52.6763128,0 103.363155,0 103.363155,0 C60.3834445,55.2968771 39.1820651,118.143034 41.7438566,188.247012 C44.7014925,269.183431 76.560005,336.977584 136.595078,390.75355 C188.366987,437.127873 249.697243,460.64934 319.264122,462.064032 C320.84899,462.09625 322.421658,462.734835 324,463.090578 Z" id="Path" fill="#3C4952"></path>
            <path d="M365.22566,418.912749 C347.293441,419.778189 329.772161,421.143795 312.264581,420.987704 C284.481256,420.740036 257.668475,415.26355 231.929833,404.382169 C213.864754,396.744982 196.807995,387.377949 181.087769,375.889669 C164.657487,363.882422 149.658775,350.204132 136.749084,334.262871 C123.801417,318.274745 112.10077,301.623893 103.305572,282.984042 C94.0746568,263.420769 87.0216216,243.122358 83.9699464,221.744918 C81.7562296,206.237518 79.7237373,190.483952 80.0308809,174.887374 C80.6318175,144.37368 86.3497232,114.618359 98.7920858,86.4465441 C102.031394,79.112169 105.461708,71.8613912 109.066671,64 C118.790027,69.1671444 127.777024,73.9429604 137.133139,78.9149526 C111.229261,129.066078 104.723395,181.024293 119.378361,235.184563 C130.837014,277.53219 153.577808,313.384899 187.331943,341.050898 C235.648051,380.652431 291.464704,397.428424 354.151291,388.554872 C416.574112,379.71865 465.092303,347.263823 502.719989,296.696379 C502.936702,298.923963 502.680914,300.435488 502.683232,301.660371 C502.708193,314.926794 503.35881,343.177464 502.719989,344.428969 C502.419513,345.017627 500.91264,346.613634 500.506331,347.051028 C480.579046,368.502367 457.158648,385.254243 430.822351,398.07982 C411.599156,407.441357 391.460681,413.995383 370.488916,418.089376 C368.892827,418.400981 367.259022,418.5212 365.22566,418.912749 Z" id="Path" fill="#F8971F"></path>
            <path d="M325.403589,462.985688 C323.330279,462.985688 321.929678,463.01789 320.339626,462.985688 C250.545226,461.571662 188.854172,437.673526 136.912941,391.321051 C76.6815206,337.570422 44.1793705,269.169533 41.2120615,188.271247 C38.6418916,118.200298 59.4455011,55.3663525 103.018879,0.151575849 C114.458128,-0.189469812 128.682591,0.151575849 139.903593,0.151575849 C140.900478,0.151575849 140.900478,0.151575849 140.900478,0.151575849 C140.900478,0.151575849 140.363013,0.496254339 140.207195,0.596181353 C100.612646,42.9920175 76.1889191,92.1505502 70.5476587,149.820139 C64.9326302,207.22157 74.567397,261.49917 105.282194,311.118427 C126.652643,345.642111 154.208194,374.164315 188.645747,395.877522 C223.141081,417.627133 260.875317,430.219977 301.343164,433.826265 C341.484188,437.403422 380.58893,431.516816 418.664055,417.050091 C422.209593,426.017107 425.560887,434.492856 429,443.190649 C395.533764,456.324284 361.319213,462.841595 325.403589,462.985688 Z" id="Path" fill="#BD5800"></path>
        </g>
    </g>
</svg>