<?xml version="1.0" encoding="UTF-8"?>
<svg width="532px" height="528px" viewBox="0 0 532 528" version="1.1" xmlns="http://www.w3.org/2000/svg" xmlns:xlink="http://www.w3.org/1999/xlink">
    <title>svg-circles</title>
    <g id="svg-circles" stroke="none" stroke-width="1" fill="none" fill-rule="evenodd">
        <path d="M353,463.090578 C353,475.529667 353,487.968695 353,499.859033 C344.20064,499.859033 335.85618,500.241331 327.56362,499.746786 C319.94206,499.292255 312.302593,498.278377 304.801982,496.828726 C290.49686,494.063902 275.939642,491.902704 262.120621,487.492482 C244.272264,481.796382 226.607438,475.074953 209.665816,467.083056 C190.433741,458.01065 172.104092,446.997398 155.707346,433.17876 C143.932601,423.255365 131.549259,413.886902 120.853325,402.8851 C102.394366,383.898314 86.586854,362.711623 73.1983394,339.706414 C60.8664346,318.516678 50.1224554,296.629737 43.6761691,272.946752 C39.2907994,256.8353 35.3275051,240.483427 32.9465382,223.981821 C30.4425962,206.627947 28.9950511,188.967327 29,171.441488 C29.0099384,150.186615 31.6803785,129.072492 36.3292023,108.176058 C42.622724,79.886798 52.2629592,52.9247183 65.5299408,27.2545836 C69.7826237,19.0260943 74.6213462,11.0871372 79.5294886,3.2279201 C79.9526358,2.55034899 81.6763128,0 81.6763128,0 C81.6763128,0 132.363155,0 132.363155,0 C89.3834445,55.2968771 68.1820651,118.143034 70.7438566,188.247012 C73.7014925,269.183431 105.560005,336.977584 165.595078,390.75355 C217.366987,437.127873 278.697243,460.64934 348.264122,462.064032 C349.84899,462.09625 351.421658,462.734835 353,463.090578 Z" id="Path" fill="#3C4952" fill-rule="nonzero"></path>
    </g>
</svg>