<?xml version="1.0" encoding="UTF-8"?>
<svg width="532px" height="528px" viewBox="0 0 532 528" version="1.1" xmlns="http://www.w3.org/2000/svg" xmlns:xlink="http://www.w3.org/1999/xlink">
    <title>svg-circles</title>
    <g id="svg-circles" stroke="none" stroke-width="1" fill="none" fill-rule="evenodd">
        <path d="M354.403589,462.985688 C352.330279,462.985688 350.929678,463.01789 349.339626,462.985688 C279.545226,461.571662 217.854172,437.673526 165.912941,391.321051 C105.681521,337.570422 73.1793705,269.169533 70.2120615,188.271247 C67.6418916,118.200298 88.4455011,55.3663525 132.018879,0.151575849 C143.458128,-0.189469812 157.682591,0.151575849 168.903593,0.151575849 C169.900478,0.151575849 169.900478,0.151575849 169.900478,0.151575849 C169.900478,0.151575849 169.363013,0.496254339 169.207195,0.596181353 C129.612646,42.9920175 105.188919,92.1505502 99.5476587,149.820139 C93.9326302,207.22157 103.567397,261.49917 134.282194,311.118427 C155.652643,345.642111 183.208194,374.164315 217.645747,395.877522 C252.141081,417.627133 289.875317,430.219977 330.343164,433.826265 C370.484188,437.403422 409.58893,431.516816 447.664055,417.050091 C451.209593,426.017107 454.560887,434.492856 458,443.190649 C424.533764,456.324284 390.319213,462.841595 354.403589,462.985688 Z" id="Path" fill="#BD5800" fill-rule="nonzero"></path>
    </g>
</svg>