<?xml version="1.0" encoding="UTF-8" standalone="no"?>
<!-- Created with Inkscape (http://www.inkscape.org/) -->

<svg
   width="37.578323mm"
   height="37.06131mm"
   viewBox="0 0 37.578323 37.061309"
   version="1.1"
   id="svg1"
   xml:space="preserve"
   xmlns="http://www.w3.org/2000/svg"
   xmlns:svg="http://www.w3.org/2000/svg"><defs
     id="defs1" /><g
     id="g848"
     transform="matrix(0.26458333,0,0,0.26458334,-2743.2711,-102.99546)"><g
       id="g886"><path
         id="path887"
         d="m 0,0 c -19.491,-22.031 -17.432,-55.689 4.598,-75.18 6.775,-5.994 14.652,-9.943 22.876,-11.906 v 2.199 c -7.715,1.925 -15.097,5.669 -21.464,11.302 -21.149,18.711 -23.126,51.024 -4.415,72.173 18.712,21.15 51.025,23.126 72.174,4.415 21.149,-18.711 23.126,-51.024 4.414,-72.174 -6.916,-7.817 -15.691,-13.006 -25.073,-15.508 v -2.208 c 9.98,2.548 19.33,8.009 26.669,16.304 C 99.27,-48.552 97.21,-14.893 75.18,4.598 53.15,24.089 19.491,22.031 0,0"
         style="fill:#bd4a1f;fill-opacity:1;fill-rule:nonzero;stroke:none"
         transform="matrix(1.3333333,0,0,-1.3333333,10386.097,413.23373)" /></g></g></svg>
