<?xml version="1.0" encoding="UTF-8" standalone="no"?>
<!-- Created with Inkscape (http://www.inkscape.org/) -->

<svg
   width="3.4078023mm"
   height="3.4078348mm"
   viewBox="0 0 3.4078023 3.4078347"
   version="1.1"
   id="svg1"
   xml:space="preserve"
   xmlns="http://www.w3.org/2000/svg"
   xmlns:svg="http://www.w3.org/2000/svg"><defs
     id="defs1"><clipPath
       clipPathUnits="userSpaceOnUse"
       id="clipPath968"><path
         d="M 0,0 H 612 V 792 H 0 Z"
         transform="translate(-302.58526,-393.27831)"
         id="path968" /></clipPath></defs><g
     id="g848"
     transform="matrix(0.26458333,0,0,0.26458334,-2760.5463,-137.75132)"><g
       id="g966"><path
         id="path967"
         d="m 0,0 c 1.886,-1.886 4.945,-1.886 6.831,0 1.886,1.886 1.886,4.944 0,6.831 C 4.944,8.717 1.886,8.717 0,6.831 -1.886,4.945 -1.886,1.886 0,0"
         style="fill:#bd4a1f;fill-opacity:1;fill-rule:nonzero;stroke:none"
         transform="matrix(1.3333333,0,0,-1.3333333,10435.447,531.62893)"
         clip-path="url(#clipPath968)" /></g><g
       id="g968"><path
         id="path969"
         d="M 0,0 1.981,1.981 1.449,2.514 -0.032,1.034 -1.469,2.471 -1.97,1.97 Z"
         style="fill:#303944;fill-opacity:1;fill-rule:nonzero;stroke:none"
         transform="matrix(1.3333333,0,0,-1.3333333,10439.928,529.25067)" /></g></g></svg>
