<?xml version="1.0" encoding="UTF-8" standalone="no"?>
<!-- Created with Inkscape (http://www.inkscape.org/) -->

<svg
   width="105.19049mm"
   height="56.731422mm"
   viewBox="0 0 105.19049 56.731422"
   version="1.1"
   id="svg1"
   xml:space="preserve"
   xmlns="http://www.w3.org/2000/svg"
   xmlns:svg="http://www.w3.org/2000/svg"><defs
     id="defs1"><linearGradient
       x1="0"
       y1="0"
       x2="1"
       y2="0"
       gradientUnits="userSpaceOnUse"
       gradientTransform="matrix(240.705,0,0,240.705,2e-4,34.7011)"
       spreadMethod="pad"
       id="linearGradient1044"><stop
         style="stop-opacity:1;stop-color:#bd4a1f"
         offset="0"
         id="stop1038" /><stop
         style="stop-opacity:1;stop-color:#bd4a1f"
         offset="0.00027999"
         id="stop1039" /><stop
         style="stop-opacity:1;stop-color:#bd4a1f"
         offset="0.00078616"
         id="stop1040" /><stop
         style="stop-opacity:1;stop-color:#bd4a1f"
         offset="0.21077623"
         id="stop1041" /><stop
         style="stop-opacity:1;stop-color:#f68b13"
         offset="0.590409"
         id="stop1042" /><stop
         style="stop-opacity:1;stop-color:#f68b13"
         offset="0.62071899"
         id="stop1043" /><stop
         style="stop-opacity:1;stop-color:#f68b13"
         offset="1"
         id="stop1044" /></linearGradient><linearGradient
       x1="0"
       y1="0"
       x2="1"
       y2="0"
       gradientUnits="userSpaceOnUse"
       gradientTransform="matrix(-268.2,0,0,-268.2,268.1997,16.0212)"
       spreadMethod="pad"
       id="linearGradient1051"><stop
         style="stop-opacity:1;stop-color:#bd4a1f"
         offset="0"
         id="stop1045" /><stop
         style="stop-opacity:1;stop-color:#bd4a1f"
         offset="0.00062821"
         id="stop1046" /><stop
         style="stop-opacity:1;stop-color:#bd4a1f"
         offset="0.00078616"
         id="stop1047" /><stop
         style="stop-opacity:1;stop-color:#bd4a1f"
         offset="0.68446768"
         id="stop1048" /><stop
         style="stop-opacity:1;stop-color:#f68b13"
         offset="0.856364"
         id="stop1049" /><stop
         style="stop-opacity:1;stop-color:#f68b13"
         offset="0.86699315"
         id="stop1050" /><stop
         style="stop-opacity:1;stop-color:#f68b13"
         offset="1"
         id="stop1051" /></linearGradient></defs><g
     id="g996"
     transform="matrix(0.26458333,0,0,0.26458334,-2930.5892,-21.701012)"><g
       id="g1037"><path
         id="path1038"
         d="M 31.688247,-3.28125e-5 V -58.031283 H 45.715591 V -71.824252 H 1.3718406 v 13.792969 H 15.047622 V -3.28125e-5 Z M 65.432388,-31.125033 c 0,-3.984375 1.136718,-7.066406 4.335937,-7.066406 2.390625,0 3.421875,1.59375 3.421875,4.675781 V -3.28125e-5 H 89.151138 V -38.191439 c 0,-6.492188 -2.964844,-13.570313 -12.316407,-13.570313 -5.589843,0 -9.808593,2.859375 -11.402343,6.621094 V -71.824252 H 49.47145 V -3.28125e-5 h 15.960938 z m 49.371092,14.144531 c 0,3.527344 -1.2539,6.152344 -4.11328,6.152344 -2.05078,0 -3.30469,-1.253906 -3.30469,-3.421875 0,-2.847656 1.82813,-4.101562 4.45313,-5.695312 l 2.96484,-1.945313 z m 15.50391,-16.535156 c 0,-12.082031 -5.92969,-18.246094 -18.12891,-18.246094 -12.656249,0 -18.351561,6.960938 -18.351561,16.992188 v 2.730469 h 14.695311 v -2.390625 c 0,-2.730469 0.57422,-5.015625 3.19922,-5.015625 2.625,0 3.08203,2.050781 3.08203,5.015625 v 1.710937 l -8.4375,4.558594 c -8.437499,4.558594 -14.14453,8.320312 -14.14453,16.535156 0,7.0664064 4.21875,12.42187519 12.65625,12.42187519 5.13281,0 9.35156,-2.50781249 11.0625,-6.38671879 1.59375,4.3359375 5.23828,6.38671879 9.91406,6.38671879 3.53906,0 6.04688,-1.01953125 8.09766,-2.39062499 v -9.4687502 c -0.91406,0.234375 -1.25391,0.351563 -1.94531,0.351563 -1.35938,0 -1.69922,-0.691407 -1.69922,-2.167969 z m 22.56445,2.390625 c 0,-3.984375 1.13672,-7.066406 4.33594,-7.066406 2.39062,0 3.42187,1.59375 3.42187,4.675781 V -3.28125e-5 h 15.96094 V -38.191439 c 0,-6.492188 -2.96484,-13.570313 -12.31641,-13.570313 -5.58984,0 -9.80859,2.859375 -11.40234,6.621094 v -5.707031 H 136.9109 V -3.28125e-5 h 15.96094 z m 44.46094,19.382813 2.84765,-5.929688 6.50391,17.6718751875 h 16.64063 L 212.27418,-29.871127 223.10231,-50.847689 h -14.70703 l -11.0625,20.636719 V -71.824252 H 181.37184 V -3.28125e-5 h 15.96094 z m 0,0"
         style="fill:url(#linearGradient1044);fill-opacity:1;fill-rule:nonzero;stroke:none"
         aria-label="Thank"
         transform="matrix(1.3333333,0,0,1.3333333,11074.413,177.7852)" /></g><g
       id="g1044"><path
         id="path1044"
         d="M 25.651028,-45.373738 17.330716,-71.822956 H -0.00131562 L 16.756497,-25.19405 V 0.0012625 H 33.057278 V -25.19405 L 49.815091,-71.822956 H 33.291653 Z m 33.518555,13.792969 c 0,-4.898437 0.796875,-7.863281 4.21875,-7.863281 3.410156,0 4.21875,2.964844 4.21875,7.863281 v 12.316406 c 0,4.898438 -0.808594,7.863282 -4.21875,7.863282 -3.421875,0 -4.21875,-2.964844 -4.21875,-7.863282 z m 24.386719,4.910156 c 0,-14.484375 -5.695313,-25.089843 -20.167969,-25.089843 -14.484375,0 -20.179688,10.605468 -20.179688,25.089843 v 2.507813 c 0,14.4726562 5.695313,25.078125 20.179688,25.078125 14.472656,0 20.167969,-10.6054688 20.167969,-25.078125 z m 27.143558,6.949219 c 0,3.996094 -0.91407,7.066406 -4.11328,7.066406 -2.39063,0 -3.30469,-1.59375 -3.30469,-4.675781 V -50.846394 H 87.32095 v 38.191406 c 0,6.5039067 2.847656,13.570313 12.199219,13.570313 5.589841,0 9.574221,-2.8476563 11.179691,-6.609375 v 5.6953125 h 15.94922 V -50.846394 h -15.94922 z m 0,0"
         style="fill:url(#linearGradient1051);fill-opacity:1;fill-rule:nonzero;stroke:none"
         aria-label="You"
         transform="matrix(1.3333333,0,0,1.3333333,11304.947,295.21707)" /></g></g></svg>
